<mxfile host="app.diagrams.net" modified="2021-03-16T12:38:45.289Z" agent="5.0 (Macintosh; Intel Mac OS X 11_2_3) AppleWebKit/537.36 (KHTML, like Gecko) Chrome/89.0.4389.82 Safari/537.36" etag="357KPOvNPZr8JqtLF3ss" version="14.4.8" type="github">
  <diagram id="W8qMYebtBz2bxF447H5y" name="Page-1">
    <mxGraphModel dx="1503" dy="708" grid="1" gridSize="10" guides="1" tooltips="1" connect="1" arrows="1" fold="1" page="1" pageScale="1" pageWidth="827" pageHeight="1169" math="0" shadow="0">
      <root>
        <mxCell id="0" />
        <mxCell id="1" parent="0" />
        <mxCell id="gb7MCGiWxArlBIPiMh3H-1" value="" style="rounded=0;html=1;jettySize=auto;orthogonalLoop=1;fontSize=11;endArrow=block;endFill=0;endSize=8;strokeWidth=1;shadow=0;labelBackgroundColor=none;edgeStyle=orthogonalEdgeStyle;" edge="1" parent="1" source="gb7MCGiWxArlBIPiMh3H-2" target="gb7MCGiWxArlBIPiMh3H-5">
          <mxGeometry relative="1" as="geometry" />
        </mxCell>
        <mxCell id="gb7MCGiWxArlBIPiMh3H-2" value="Massage received" style="rounded=1;whiteSpace=wrap;html=1;fontSize=12;glass=0;strokeWidth=1;shadow=0;" vertex="1" parent="1">
          <mxGeometry x="830.5" y="210" width="120" height="40" as="geometry" />
        </mxCell>
        <mxCell id="gb7MCGiWxArlBIPiMh3H-3" value="No" style="edgeStyle=orthogonalEdgeStyle;rounded=0;html=1;jettySize=auto;orthogonalLoop=1;fontSize=11;endArrow=block;endFill=0;endSize=8;strokeWidth=1;shadow=0;labelBackgroundColor=none;" edge="1" parent="1" source="gb7MCGiWxArlBIPiMh3H-5" target="gb7MCGiWxArlBIPiMh3H-6">
          <mxGeometry y="10" relative="1" as="geometry">
            <mxPoint as="offset" />
          </mxGeometry>
        </mxCell>
        <mxCell id="gb7MCGiWxArlBIPiMh3H-4" style="edgeStyle=orthogonalEdgeStyle;rounded=0;orthogonalLoop=1;jettySize=auto;html=1;entryX=0.5;entryY=0;entryDx=0;entryDy=0;" edge="1" parent="1" target="gb7MCGiWxArlBIPiMh3H-9">
          <mxGeometry relative="1" as="geometry">
            <mxPoint x="890.5" y="360" as="sourcePoint" />
          </mxGeometry>
        </mxCell>
        <mxCell id="gb7MCGiWxArlBIPiMh3H-5" value="Has Tc seconds passed from last closed event?" style="rhombus;whiteSpace=wrap;html=1;shadow=0;fontFamily=Helvetica;fontSize=12;align=center;strokeWidth=1;spacing=6;spacingTop=-4;fillColor=#d5e8d4;strokeColor=#82b366;" vertex="1" parent="1">
          <mxGeometry x="840.5" y="280" width="100" height="80" as="geometry" />
        </mxCell>
        <mxCell id="gb7MCGiWxArlBIPiMh3H-6" value="No initiation of an event" style="rounded=1;whiteSpace=wrap;html=1;fontSize=12;glass=0;strokeWidth=1;shadow=0;fillColor=#d80073;strokeColor=#A50040;fontColor=#ffffff;" vertex="1" parent="1">
          <mxGeometry x="990.5" y="300" width="120" height="40" as="geometry" />
        </mxCell>
        <mxCell id="gb7MCGiWxArlBIPiMh3H-7" value="No" style="edgeStyle=orthogonalEdgeStyle;rounded=0;html=1;jettySize=auto;orthogonalLoop=1;fontSize=11;endArrow=block;endFill=0;endSize=8;strokeWidth=1;shadow=0;labelBackgroundColor=none;" edge="1" parent="1" source="gb7MCGiWxArlBIPiMh3H-9" target="gb7MCGiWxArlBIPiMh3H-10">
          <mxGeometry y="10" relative="1" as="geometry">
            <mxPoint as="offset" />
          </mxGeometry>
        </mxCell>
        <mxCell id="gb7MCGiWxArlBIPiMh3H-8" style="edgeStyle=orthogonalEdgeStyle;rounded=0;orthogonalLoop=1;jettySize=auto;html=1;exitX=0.5;exitY=1;exitDx=0;exitDy=0;entryX=0.5;entryY=0;entryDx=0;entryDy=0;" edge="1" parent="1" source="gb7MCGiWxArlBIPiMh3H-9" target="gb7MCGiWxArlBIPiMh3H-28">
          <mxGeometry relative="1" as="geometry" />
        </mxCell>
        <mxCell id="gb7MCGiWxArlBIPiMh3H-9" value="Is 80% of detection area is inside the Ar" style="rhombus;whiteSpace=wrap;html=1;shadow=0;fontFamily=Helvetica;fontSize=12;align=center;strokeWidth=1;spacing=6;spacingTop=-4;fillColor=#d5e8d4;strokeColor=#82b366;" vertex="1" parent="1">
          <mxGeometry x="840.5" y="390" width="100" height="80" as="geometry" />
        </mxCell>
        <mxCell id="gb7MCGiWxArlBIPiMh3H-10" value="No initiation of an event" style="rounded=1;whiteSpace=wrap;html=1;fontSize=12;glass=0;strokeWidth=1;shadow=0;fillColor=#d80073;strokeColor=#A50040;fontColor=#ffffff;" vertex="1" parent="1">
          <mxGeometry x="990.5" y="410" width="120" height="40" as="geometry" />
        </mxCell>
        <mxCell id="gb7MCGiWxArlBIPiMh3H-11" style="edgeStyle=orthogonalEdgeStyle;rounded=0;orthogonalLoop=1;jettySize=auto;html=1;exitX=0.5;exitY=1;exitDx=0;exitDy=0;entryX=0.5;entryY=0;entryDx=0;entryDy=0;" edge="1" parent="1" source="gb7MCGiWxArlBIPiMh3H-12" target="gb7MCGiWxArlBIPiMh3H-76">
          <mxGeometry relative="1" as="geometry" />
        </mxCell>
        <mxCell id="gb7MCGiWxArlBIPiMh3H-12" value="Is event already open?" style="rhombus;whiteSpace=wrap;html=1;shadow=0;fontFamily=Helvetica;fontSize=12;align=center;strokeWidth=1;spacing=6;spacingTop=-4;fillColor=#d5e8d4;strokeColor=#82b366;" vertex="1" parent="1">
          <mxGeometry x="843.75" y="620" width="100" height="80" as="geometry" />
        </mxCell>
        <mxCell id="gb7MCGiWxArlBIPiMh3H-13" value="No" style="edgeStyle=orthogonalEdgeStyle;rounded=0;html=1;jettySize=auto;orthogonalLoop=1;fontSize=11;endArrow=block;endFill=0;endSize=8;strokeWidth=1;shadow=0;labelBackgroundColor=none;exitX=1;exitY=0.5;exitDx=0;exitDy=0;" edge="1" parent="1" source="gb7MCGiWxArlBIPiMh3H-12">
          <mxGeometry y="10" relative="1" as="geometry">
            <mxPoint as="offset" />
            <mxPoint x="940.5" y="690" as="sourcePoint" />
            <mxPoint x="990" y="660" as="targetPoint" />
            <Array as="points">
              <mxPoint x="970" y="660" />
              <mxPoint x="970" y="660" />
            </Array>
          </mxGeometry>
        </mxCell>
        <mxCell id="gb7MCGiWxArlBIPiMh3H-14" value="Start event" style="rounded=1;whiteSpace=wrap;html=1;fontSize=12;glass=0;strokeWidth=1;shadow=0;fillColor=#e1d5e7;strokeColor=#9673a6;" vertex="1" parent="1">
          <mxGeometry x="991.5" y="640" width="120" height="40" as="geometry" />
        </mxCell>
        <mxCell id="gb7MCGiWxArlBIPiMh3H-15" value="&lt;meta charset=&quot;utf-8&quot;&gt;&lt;span style=&quot;color: rgb(0, 0, 0); font-family: helvetica; font-size: 11px; font-style: normal; font-weight: 400; letter-spacing: normal; text-align: center; text-indent: 0px; text-transform: none; word-spacing: 0px; background-color: rgb(248, 249, 250); display: inline; float: none;&quot;&gt;Yes&lt;/span&gt;" style="text;whiteSpace=wrap;html=1;" vertex="1" parent="1">
          <mxGeometry x="897" y="690" width="20" height="20" as="geometry" />
        </mxCell>
        <mxCell id="gb7MCGiWxArlBIPiMh3H-16" style="edgeStyle=orthogonalEdgeStyle;rounded=0;orthogonalLoop=1;jettySize=auto;html=1;exitX=0;exitY=0.5;exitDx=0;exitDy=0;" edge="1" parent="1" source="gb7MCGiWxArlBIPiMh3H-17" target="gb7MCGiWxArlBIPiMh3H-56">
          <mxGeometry relative="1" as="geometry">
            <mxPoint x="807" y="820" as="targetPoint" />
          </mxGeometry>
        </mxCell>
        <mxCell id="gb7MCGiWxArlBIPiMh3H-17" value="Is more than Nd detection received within Ts seconds?" style="rhombus;whiteSpace=wrap;html=1;shadow=0;fontFamily=Helvetica;fontSize=12;align=center;strokeWidth=1;spacing=6;spacingTop=-4;fillColor=#d5e8d4;strokeColor=#82b366;" vertex="1" parent="1">
          <mxGeometry x="847" y="810" width="100" height="80" as="geometry" />
        </mxCell>
        <mxCell id="gb7MCGiWxArlBIPiMh3H-18" value="&lt;span style=&quot;color: rgb(0 , 0 , 0) ; font-family: &amp;#34;helvetica&amp;#34; ; font-size: 11px ; font-style: normal ; font-weight: 400 ; letter-spacing: normal ; text-align: center ; text-indent: 0px ; text-transform: none ; word-spacing: 0px ; background-color: rgb(248 , 249 , 250) ; display: inline ; float: none&quot;&gt;No&lt;/span&gt;" style="text;whiteSpace=wrap;html=1;" vertex="1" parent="1">
          <mxGeometry x="820.5" y="790" width="40" height="30" as="geometry" />
        </mxCell>
        <mxCell id="gb7MCGiWxArlBIPiMh3H-19" value="" style="edgeStyle=orthogonalEdgeStyle;rounded=0;orthogonalLoop=1;jettySize=auto;html=1;exitX=0.5;exitY=1;exitDx=0;exitDy=0;" edge="1" parent="1" source="gb7MCGiWxArlBIPiMh3H-17">
          <mxGeometry relative="1" as="geometry">
            <mxPoint x="897.5" y="900" as="sourcePoint" />
            <mxPoint x="897" y="910" as="targetPoint" />
          </mxGeometry>
        </mxCell>
        <mxCell id="gb7MCGiWxArlBIPiMh3H-20" value="&lt;meta charset=&quot;utf-8&quot;&gt;&lt;span style=&quot;color: rgb(0, 0, 0); font-family: helvetica; font-size: 11px; font-style: normal; font-weight: 400; letter-spacing: normal; text-align: center; text-indent: 0px; text-transform: none; word-spacing: 0px; background-color: rgb(248, 249, 250); display: inline; float: none;&quot;&gt;Yes&lt;/span&gt;" style="text;whiteSpace=wrap;html=1;" vertex="1" parent="1">
          <mxGeometry x="900.5" y="880" width="29.5" height="20" as="geometry" />
        </mxCell>
        <mxCell id="gb7MCGiWxArlBIPiMh3H-21" value="No" style="edgeStyle=orthogonalEdgeStyle;rounded=0;html=1;jettySize=auto;orthogonalLoop=1;fontSize=11;endArrow=block;endFill=0;endSize=8;strokeWidth=1;shadow=0;labelBackgroundColor=none;" edge="1" parent="1" source="gb7MCGiWxArlBIPiMh3H-23" target="gb7MCGiWxArlBIPiMh3H-24">
          <mxGeometry y="10" relative="1" as="geometry">
            <mxPoint as="offset" />
          </mxGeometry>
        </mxCell>
        <mxCell id="gb7MCGiWxArlBIPiMh3H-22" style="edgeStyle=orthogonalEdgeStyle;rounded=0;orthogonalLoop=1;jettySize=auto;html=1;exitX=0;exitY=0.5;exitDx=0;exitDy=0;entryX=0.5;entryY=0;entryDx=0;entryDy=0;" edge="1" parent="1" source="gb7MCGiWxArlBIPiMh3H-23" target="gb7MCGiWxArlBIPiMh3H-12">
          <mxGeometry relative="1" as="geometry" />
        </mxCell>
        <mxCell id="gb7MCGiWxArlBIPiMh3H-23" value="less than Hmax and more than Hmin" style="rhombus;whiteSpace=wrap;html=1;shadow=0;fontFamily=Helvetica;fontSize=12;align=center;strokeWidth=1;spacing=6;spacingTop=-4;fillColor=#d5e8d4;strokeColor=#82b366;" vertex="1" parent="1">
          <mxGeometry x="954.5" y="550" width="106" height="80" as="geometry" />
        </mxCell>
        <mxCell id="gb7MCGiWxArlBIPiMh3H-24" value="No initiation of an event" style="rounded=1;whiteSpace=wrap;html=1;fontSize=12;glass=0;strokeWidth=1;shadow=0;fillColor=#d80073;strokeColor=#A50040;fontColor=#ffffff;" vertex="1" parent="1">
          <mxGeometry x="1104.5" y="570" width="105.5" height="40" as="geometry" />
        </mxCell>
        <mxCell id="gb7MCGiWxArlBIPiMh3H-25" style="edgeStyle=orthogonalEdgeStyle;rounded=0;orthogonalLoop=1;jettySize=auto;html=1;exitX=1;exitY=0.5;exitDx=0;exitDy=0;entryX=0.5;entryY=0;entryDx=0;entryDy=0;" edge="1" parent="1" source="gb7MCGiWxArlBIPiMh3H-28" target="gb7MCGiWxArlBIPiMh3H-23">
          <mxGeometry relative="1" as="geometry" />
        </mxCell>
        <mxCell id="gb7MCGiWxArlBIPiMh3H-26" style="edgeStyle=orthogonalEdgeStyle;rounded=0;orthogonalLoop=1;jettySize=auto;html=1;exitX=0;exitY=0.5;exitDx=0;exitDy=0;entryX=1;entryY=0.5;entryDx=0;entryDy=0;" edge="1" parent="1" source="gb7MCGiWxArlBIPiMh3H-28" target="gb7MCGiWxArlBIPiMh3H-69">
          <mxGeometry relative="1" as="geometry" />
        </mxCell>
        <mxCell id="gb7MCGiWxArlBIPiMh3H-27" style="edgeStyle=orthogonalEdgeStyle;rounded=0;orthogonalLoop=1;jettySize=auto;html=1;exitX=0.5;exitY=1;exitDx=0;exitDy=0;" edge="1" parent="1" source="gb7MCGiWxArlBIPiMh3H-28">
          <mxGeometry relative="1" as="geometry">
            <mxPoint x="893.6666666666667" y="620" as="targetPoint" />
          </mxGeometry>
        </mxCell>
        <mxCell id="gb7MCGiWxArlBIPiMh3H-28" value="Event type" style="rhombus;whiteSpace=wrap;html=1;shadow=0;fontFamily=Helvetica;fontSize=12;align=center;strokeWidth=1;spacing=6;spacingTop=-4;fillColor=#d5e8d4;strokeColor=#82b366;" vertex="1" parent="1">
          <mxGeometry x="853.5" y="500" width="80.5" height="60" as="geometry" />
        </mxCell>
        <mxCell id="gb7MCGiWxArlBIPiMh3H-29" value="&lt;meta charset=&quot;utf-8&quot;&gt;&lt;span style=&quot;color: rgb(0, 0, 0); font-family: helvetica; font-size: 11px; font-style: normal; font-weight: 400; letter-spacing: normal; text-align: center; text-indent: 0px; text-transform: none; word-spacing: 0px; background-color: rgb(248, 249, 250); display: inline; float: none;&quot;&gt;Yes&lt;/span&gt;" style="text;whiteSpace=wrap;html=1;" vertex="1" parent="1">
          <mxGeometry x="900.5" y="470" width="40" height="30" as="geometry" />
        </mxCell>
        <mxCell id="gb7MCGiWxArlBIPiMh3H-30" value="&lt;meta charset=&quot;utf-8&quot;&gt;&lt;span style=&quot;color: rgb(0, 0, 0); font-family: helvetica; font-size: 11px; font-style: normal; font-weight: 400; letter-spacing: normal; text-align: center; text-indent: 0px; text-transform: none; word-spacing: 0px; background-color: rgb(248, 249, 250); display: inline; float: none;&quot;&gt;Yes&lt;/span&gt;" style="text;whiteSpace=wrap;html=1;" vertex="1" parent="1">
          <mxGeometry x="900.5" y="360" width="19.5" height="20" as="geometry" />
        </mxCell>
        <mxCell id="gb7MCGiWxArlBIPiMh3H-31" value="&lt;span style=&quot;color: rgb(0 , 0 , 0) ; font-family: &amp;#34;helvetica&amp;#34; ; font-size: 11px ; font-style: normal ; font-weight: 400 ; letter-spacing: normal ; text-align: center ; text-indent: 0px ; text-transform: none ; word-spacing: 0px ; background-color: rgb(248 , 249 , 250) ; display: inline ; float: none&quot;&gt;Person&lt;/span&gt;" style="text;whiteSpace=wrap;html=1;" vertex="1" parent="1">
          <mxGeometry x="954.5" y="500" width="40" height="30" as="geometry" />
        </mxCell>
        <mxCell id="gb7MCGiWxArlBIPiMh3H-32" value="&lt;span style=&quot;color: rgb(0 , 0 , 0) ; font-family: &amp;#34;helvetica&amp;#34; ; font-size: 11px ; font-style: normal ; font-weight: 400 ; letter-spacing: normal ; text-align: center ; text-indent: 0px ; text-transform: none ; word-spacing: 0px ; background-color: rgb(248 , 249 , 250) ; display: inline ; float: none&quot;&gt;Else&lt;/span&gt;" style="text;whiteSpace=wrap;html=1;" vertex="1" parent="1">
          <mxGeometry x="860.5" y="555" width="29.5" height="20" as="geometry" />
        </mxCell>
        <mxCell id="gb7MCGiWxArlBIPiMh3H-33" style="edgeStyle=orthogonalEdgeStyle;rounded=0;orthogonalLoop=1;jettySize=auto;html=1;exitX=0;exitY=0.5;exitDx=0;exitDy=0;" edge="1" parent="1" source="gb7MCGiWxArlBIPiMh3H-34">
          <mxGeometry relative="1" as="geometry">
            <mxPoint x="897.5" y="1025" as="targetPoint" />
          </mxGeometry>
        </mxCell>
        <mxCell id="gb7MCGiWxArlBIPiMh3H-34" value="Is number of no helmet detections is greater than Rh?" style="rhombus;whiteSpace=wrap;html=1;shadow=0;fontFamily=Helvetica;fontSize=12;align=center;strokeWidth=1;spacing=6;spacingTop=-4;fillColor=#d5e8d4;strokeColor=#82b366;" vertex="1" parent="1">
          <mxGeometry x="961" y="980" width="116" height="90" as="geometry" />
        </mxCell>
        <mxCell id="gb7MCGiWxArlBIPiMh3H-35" style="edgeStyle=orthogonalEdgeStyle;rounded=0;orthogonalLoop=1;jettySize=auto;html=1;exitX=1;exitY=0.5;exitDx=0;exitDy=0;entryX=0.5;entryY=0;entryDx=0;entryDy=0;" edge="1" parent="1" source="gb7MCGiWxArlBIPiMh3H-38" target="gb7MCGiWxArlBIPiMh3H-34">
          <mxGeometry relative="1" as="geometry" />
        </mxCell>
        <mxCell id="gb7MCGiWxArlBIPiMh3H-36" style="edgeStyle=orthogonalEdgeStyle;rounded=0;orthogonalLoop=1;jettySize=auto;html=1;exitX=0.5;exitY=1;exitDx=0;exitDy=0;entryX=0.5;entryY=0;entryDx=0;entryDy=0;" edge="1" parent="1" source="gb7MCGiWxArlBIPiMh3H-38" target="gb7MCGiWxArlBIPiMh3H-47">
          <mxGeometry relative="1" as="geometry">
            <mxPoint x="897" y="1030" as="targetPoint" />
          </mxGeometry>
        </mxCell>
        <mxCell id="gb7MCGiWxArlBIPiMh3H-37" style="edgeStyle=orthogonalEdgeStyle;rounded=0;orthogonalLoop=1;jettySize=auto;html=1;exitX=0;exitY=0.5;exitDx=0;exitDy=0;entryX=0.5;entryY=0;entryDx=0;entryDy=0;" edge="1" parent="1" source="gb7MCGiWxArlBIPiMh3H-38" target="gb7MCGiWxArlBIPiMh3H-63">
          <mxGeometry relative="1" as="geometry">
            <mxPoint x="776.5" y="990" as="targetPoint" />
          </mxGeometry>
        </mxCell>
        <mxCell id="gb7MCGiWxArlBIPiMh3H-38" value="Event type" style="rhombus;whiteSpace=wrap;html=1;shadow=0;fontFamily=Helvetica;fontSize=12;align=center;strokeWidth=1;spacing=6;spacingTop=-4;fillColor=#d5e8d4;strokeColor=#82b366;" vertex="1" parent="1">
          <mxGeometry x="847" y="910" width="100" height="80" as="geometry" />
        </mxCell>
        <mxCell id="gb7MCGiWxArlBIPiMh3H-39" value="&lt;span style=&quot;color: rgb(0 , 0 , 0) ; font-family: &amp;#34;helvetica&amp;#34; ; font-size: 11px ; font-style: normal ; font-weight: 400 ; letter-spacing: normal ; text-align: center ; text-indent: 0px ; text-transform: none ; word-spacing: 0px ; background-color: rgb(248 , 249 , 250) ; display: inline ; float: none&quot;&gt;Helmet&lt;/span&gt;" style="text;whiteSpace=wrap;html=1;" vertex="1" parent="1">
          <mxGeometry x="961" y="920" width="40" height="30" as="geometry" />
        </mxCell>
        <mxCell id="gb7MCGiWxArlBIPiMh3H-40" value="&lt;div style=&quot;text-align: center&quot;&gt;&lt;span style=&quot;font-size: 11px&quot;&gt;&lt;font face=&quot;helvetica&quot;&gt;Else&lt;/font&gt;&lt;/span&gt;&lt;/div&gt;" style="text;whiteSpace=wrap;html=1;" vertex="1" parent="1">
          <mxGeometry x="860.5" y="980" width="40" height="30" as="geometry" />
        </mxCell>
        <mxCell id="gb7MCGiWxArlBIPiMh3H-41" value="Publish Event" style="rounded=1;whiteSpace=wrap;html=1;fontSize=12;glass=0;strokeWidth=1;shadow=0;fillColor=#dae8fc;strokeColor=#6c8ebf;" vertex="1" parent="1">
          <mxGeometry x="997" y="1110" width="121" height="40" as="geometry" />
        </mxCell>
        <mxCell id="gb7MCGiWxArlBIPiMh3H-42" value="No" style="edgeStyle=orthogonalEdgeStyle;rounded=0;html=1;jettySize=auto;orthogonalLoop=1;fontSize=11;endArrow=block;endFill=0;endSize=8;strokeWidth=1;shadow=0;labelBackgroundColor=none;exitX=1;exitY=0.5;exitDx=0;exitDy=0;" edge="1" parent="1" source="gb7MCGiWxArlBIPiMh3H-34" target="gb7MCGiWxArlBIPiMh3H-43">
          <mxGeometry y="10" relative="1" as="geometry">
            <mxPoint as="offset" />
            <mxPoint x="1067" y="1020" as="sourcePoint" />
          </mxGeometry>
        </mxCell>
        <mxCell id="gb7MCGiWxArlBIPiMh3H-43" value="No initiation of an event" style="rounded=1;whiteSpace=wrap;html=1;fontSize=12;glass=0;strokeWidth=1;shadow=0;fillColor=#d80073;strokeColor=#A50040;fontColor=#ffffff;" vertex="1" parent="1">
          <mxGeometry x="1127" y="1005" width="99.5" height="40" as="geometry" />
        </mxCell>
        <mxCell id="gb7MCGiWxArlBIPiMh3H-44" value="&lt;meta charset=&quot;utf-8&quot;&gt;&lt;span style=&quot;color: rgb(0, 0, 0); font-family: helvetica; font-size: 11px; font-style: normal; font-weight: 400; letter-spacing: normal; text-align: center; text-indent: 0px; text-transform: none; word-spacing: 0px; background-color: rgb(248, 249, 250); display: inline; float: none;&quot;&gt;Yes&lt;/span&gt;" style="text;whiteSpace=wrap;html=1;" vertex="1" parent="1">
          <mxGeometry x="934" y="560" width="26" height="20" as="geometry" />
        </mxCell>
        <mxCell id="gb7MCGiWxArlBIPiMh3H-45" value="&lt;meta charset=&quot;utf-8&quot;&gt;&lt;span style=&quot;color: rgb(0, 0, 0); font-family: helvetica; font-size: 11px; font-style: normal; font-weight: 400; letter-spacing: normal; text-align: center; text-indent: 0px; text-transform: none; word-spacing: 0px; background-color: rgb(248, 249, 250); display: inline; float: none;&quot;&gt;Yes&lt;/span&gt;" style="text;whiteSpace=wrap;html=1;" vertex="1" parent="1">
          <mxGeometry x="917" y="1020" width="40" height="20" as="geometry" />
        </mxCell>
        <mxCell id="gb7MCGiWxArlBIPiMh3H-46" style="edgeStyle=orthogonalEdgeStyle;rounded=0;orthogonalLoop=1;jettySize=auto;html=1;exitX=0.5;exitY=1;exitDx=0;exitDy=0;" edge="1" parent="1" source="gb7MCGiWxArlBIPiMh3H-47">
          <mxGeometry relative="1" as="geometry">
            <mxPoint x="897" y="1210" as="targetPoint" />
          </mxGeometry>
        </mxCell>
        <mxCell id="gb7MCGiWxArlBIPiMh3H-47" value="Is event already Published?" style="rhombus;whiteSpace=wrap;html=1;shadow=0;fontFamily=Helvetica;fontSize=12;align=center;strokeWidth=1;spacing=6;spacingTop=-4;fillColor=#d5e8d4;strokeColor=#82b366;" vertex="1" parent="1">
          <mxGeometry x="847" y="1090" width="100" height="80" as="geometry" />
        </mxCell>
        <mxCell id="gb7MCGiWxArlBIPiMh3H-48" value="No" style="edgeStyle=orthogonalEdgeStyle;rounded=0;html=1;jettySize=auto;orthogonalLoop=1;fontSize=11;endArrow=block;endFill=0;endSize=8;strokeWidth=1;shadow=0;labelBackgroundColor=none;" edge="1" parent="1">
          <mxGeometry y="10" relative="1" as="geometry">
            <mxPoint as="offset" />
            <mxPoint x="947" y="1130" as="sourcePoint" />
            <mxPoint x="997" y="1130" as="targetPoint" />
          </mxGeometry>
        </mxCell>
        <mxCell id="gb7MCGiWxArlBIPiMh3H-49" value="&lt;meta charset=&quot;utf-8&quot;&gt;&lt;span style=&quot;color: rgb(0, 0, 0); font-family: helvetica; font-size: 11px; font-style: normal; font-weight: 400; letter-spacing: normal; text-align: center; text-indent: 0px; text-transform: none; word-spacing: 0px; background-color: rgb(248, 249, 250); display: inline; float: none;&quot;&gt;Yes&lt;/span&gt;" style="text;whiteSpace=wrap;html=1;" vertex="1" parent="1">
          <mxGeometry x="907" y="1170" width="40" height="30" as="geometry" />
        </mxCell>
        <mxCell id="gb7MCGiWxArlBIPiMh3H-50" value="Is the time from publish greater than Tf seconds?" style="rhombus;whiteSpace=wrap;html=1;shadow=0;fontFamily=Helvetica;fontSize=12;align=center;strokeWidth=1;spacing=6;spacingTop=-4;fillColor=#d5e8d4;strokeColor=#82b366;" vertex="1" parent="1">
          <mxGeometry x="847" y="1210" width="100" height="80" as="geometry" />
        </mxCell>
        <mxCell id="gb7MCGiWxArlBIPiMh3H-51" style="edgeStyle=orthogonalEdgeStyle;rounded=0;orthogonalLoop=1;jettySize=auto;html=1;exitX=0.5;exitY=1;exitDx=0;exitDy=0;entryX=1;entryY=0.5;entryDx=0;entryDy=0;" edge="1" parent="1" source="gb7MCGiWxArlBIPiMh3H-52" target="gb7MCGiWxArlBIPiMh3H-60">
          <mxGeometry relative="1" as="geometry" />
        </mxCell>
        <mxCell id="gb7MCGiWxArlBIPiMh3H-52" value="&lt;span style=&quot;color: rgb(0 , 0 , 0) ; font-family: &amp;#34;helvetica&amp;#34; ; font-size: 11px ; font-style: normal ; font-weight: 400 ; letter-spacing: normal ; text-align: center ; text-indent: 0px ; text-transform: none ; word-spacing: 0px ; background-color: rgb(248 , 249 , 250) ; display: inline ; float: none&quot;&gt;No&lt;/span&gt;" style="text;whiteSpace=wrap;html=1;" vertex="1" parent="1">
          <mxGeometry x="827" y="1220" width="40" height="30" as="geometry" />
        </mxCell>
        <mxCell id="gb7MCGiWxArlBIPiMh3H-53" value="Close Event" style="rounded=1;whiteSpace=wrap;html=1;fontSize=12;glass=0;strokeWidth=1;shadow=0;fillColor=#ffe6cc;strokeColor=#d79b00;" vertex="1" parent="1">
          <mxGeometry x="997" y="1230" width="121" height="40" as="geometry" />
        </mxCell>
        <mxCell id="gb7MCGiWxArlBIPiMh3H-54" value="Yes" style="edgeStyle=orthogonalEdgeStyle;rounded=0;html=1;jettySize=auto;orthogonalLoop=1;fontSize=11;endArrow=block;endFill=0;endSize=8;strokeWidth=1;shadow=0;labelBackgroundColor=none;" edge="1" parent="1">
          <mxGeometry y="10" relative="1" as="geometry">
            <mxPoint as="offset" />
            <mxPoint x="947" y="1250" as="sourcePoint" />
            <mxPoint x="997" y="1250" as="targetPoint" />
          </mxGeometry>
        </mxCell>
        <mxCell id="gb7MCGiWxArlBIPiMh3H-55" style="edgeStyle=orthogonalEdgeStyle;rounded=0;orthogonalLoop=1;jettySize=auto;html=1;exitX=0.5;exitY=1;exitDx=0;exitDy=0;entryX=0.5;entryY=0;entryDx=0;entryDy=0;" edge="1" parent="1" source="gb7MCGiWxArlBIPiMh3H-56" target="gb7MCGiWxArlBIPiMh3H-58">
          <mxGeometry relative="1" as="geometry" />
        </mxCell>
        <mxCell id="gb7MCGiWxArlBIPiMh3H-56" value="Is the time from start greater than Ts seconds?" style="rhombus;whiteSpace=wrap;html=1;shadow=0;fontFamily=Helvetica;fontSize=12;align=center;strokeWidth=1;spacing=6;spacingTop=-4;fillColor=#d5e8d4;strokeColor=#82b366;" vertex="1" parent="1">
          <mxGeometry x="657" y="810" width="100" height="80" as="geometry" />
        </mxCell>
        <mxCell id="gb7MCGiWxArlBIPiMh3H-57" value="&lt;span style=&quot;color: rgb(0 , 0 , 0) ; font-family: &amp;#34;helvetica&amp;#34; ; font-size: 11px ; font-style: normal ; font-weight: 400 ; letter-spacing: normal ; text-align: center ; text-indent: 0px ; text-transform: none ; word-spacing: 0px ; background-color: rgb(248 , 249 , 250) ; display: inline ; float: none&quot;&gt;No&lt;/span&gt;" style="text;whiteSpace=wrap;html=1;" vertex="1" parent="1">
          <mxGeometry x="711" y="1000" width="20" height="20" as="geometry" />
        </mxCell>
        <mxCell id="gb7MCGiWxArlBIPiMh3H-58" value="Close Event" style="rounded=1;whiteSpace=wrap;html=1;fontSize=12;glass=0;strokeWidth=1;shadow=0;fillColor=#ffe6cc;strokeColor=#d79b00;" vertex="1" parent="1">
          <mxGeometry x="646.5" y="920" width="121" height="40" as="geometry" />
        </mxCell>
        <mxCell id="gb7MCGiWxArlBIPiMh3H-59" value="&lt;meta charset=&quot;utf-8&quot;&gt;&lt;span style=&quot;color: rgb(0, 0, 0); font-family: helvetica; font-size: 11px; font-style: normal; font-weight: 400; letter-spacing: normal; text-align: center; text-indent: 0px; text-transform: none; word-spacing: 0px; background-color: rgb(248, 249, 250); display: inline; float: none;&quot;&gt;Yes&lt;/span&gt;" style="text;whiteSpace=wrap;html=1;" vertex="1" parent="1">
          <mxGeometry x="681.5" y="890" width="18.5" height="20" as="geometry" />
        </mxCell>
        <mxCell id="gb7MCGiWxArlBIPiMh3H-60" value="Send Detection" style="rounded=1;whiteSpace=wrap;html=1;fontSize=12;glass=0;strokeWidth=1;shadow=0;fillColor=#f5f5f5;strokeColor=#666666;fontColor=#333333;" vertex="1" parent="1">
          <mxGeometry x="696.5" y="1230" width="121" height="40" as="geometry" />
        </mxCell>
        <mxCell id="gb7MCGiWxArlBIPiMh3H-61" style="edgeStyle=orthogonalEdgeStyle;rounded=0;orthogonalLoop=1;jettySize=auto;html=1;exitX=1;exitY=0.5;exitDx=0;exitDy=0;" edge="1" parent="1" source="gb7MCGiWxArlBIPiMh3H-63">
          <mxGeometry relative="1" as="geometry">
            <mxPoint x="896.5" y="1024.6666666666667" as="targetPoint" />
          </mxGeometry>
        </mxCell>
        <mxCell id="gb7MCGiWxArlBIPiMh3H-62" style="edgeStyle=orthogonalEdgeStyle;rounded=0;orthogonalLoop=1;jettySize=auto;html=1;exitX=0;exitY=0.5;exitDx=0;exitDy=0;" edge="1" parent="1" source="gb7MCGiWxArlBIPiMh3H-63">
          <mxGeometry relative="1" as="geometry">
            <mxPoint x="686.5" y="1025" as="targetPoint" />
          </mxGeometry>
        </mxCell>
        <mxCell id="gb7MCGiWxArlBIPiMh3H-63" value="Anomly net massage recevied?" style="rhombus;whiteSpace=wrap;html=1;shadow=0;fontFamily=Helvetica;fontSize=12;align=center;strokeWidth=1;spacing=6;spacingTop=-4;fillColor=#d5e8d4;strokeColor=#82b366;" vertex="1" parent="1">
          <mxGeometry x="731" y="980" width="116" height="90" as="geometry" />
        </mxCell>
        <mxCell id="gb7MCGiWxArlBIPiMh3H-64" value="&lt;span style=&quot;color: rgb(0 , 0 , 0) ; font-family: &amp;#34;helvetica&amp;#34; ; font-size: 11px ; font-style: normal ; font-weight: 400 ; letter-spacing: normal ; text-align: center ; text-indent: 0px ; text-transform: none ; word-spacing: 0px ; background-color: rgb(248 , 249 , 250) ; display: inline ; float: none&quot;&gt;Smoke&lt;/span&gt;" style="text;whiteSpace=wrap;html=1;" vertex="1" parent="1">
          <mxGeometry x="797" y="920" width="40" height="30" as="geometry" />
        </mxCell>
        <mxCell id="gb7MCGiWxArlBIPiMh3H-65" value="&lt;meta charset=&quot;utf-8&quot;&gt;&lt;span style=&quot;color: rgb(0, 0, 0); font-family: helvetica; font-size: 11px; font-style: normal; font-weight: 400; letter-spacing: normal; text-align: center; text-indent: 0px; text-transform: none; word-spacing: 0px; background-color: rgb(248, 249, 250); display: inline; float: none;&quot;&gt;Yes&lt;/span&gt;" style="text;whiteSpace=wrap;html=1;" vertex="1" parent="1">
          <mxGeometry x="847" y="1020" width="40" height="30" as="geometry" />
        </mxCell>
        <mxCell id="gb7MCGiWxArlBIPiMh3H-66" value="No initiation of an event" style="rounded=1;whiteSpace=wrap;html=1;fontSize=12;glass=0;strokeWidth=1;shadow=0;fillColor=#d80073;strokeColor=#A50040;fontColor=#ffffff;" vertex="1" parent="1">
          <mxGeometry x="580" y="1005" width="106" height="40" as="geometry" />
        </mxCell>
        <mxCell id="gb7MCGiWxArlBIPiMh3H-67" style="edgeStyle=orthogonalEdgeStyle;rounded=0;orthogonalLoop=1;jettySize=auto;html=1;exitX=0.5;exitY=1;exitDx=0;exitDy=0;entryX=0;entryY=0.5;entryDx=0;entryDy=0;" edge="1" parent="1" source="gb7MCGiWxArlBIPiMh3H-69" target="gb7MCGiWxArlBIPiMh3H-12">
          <mxGeometry relative="1" as="geometry">
            <mxPoint x="717.8333333333335" y="690" as="targetPoint" />
          </mxGeometry>
        </mxCell>
        <mxCell id="gb7MCGiWxArlBIPiMh3H-68" style="edgeStyle=orthogonalEdgeStyle;rounded=0;orthogonalLoop=1;jettySize=auto;html=1;exitX=0;exitY=0.5;exitDx=0;exitDy=0;" edge="1" parent="1" source="gb7MCGiWxArlBIPiMh3H-69" target="gb7MCGiWxArlBIPiMh3H-78">
          <mxGeometry relative="1" as="geometry" />
        </mxCell>
        <mxCell id="gb7MCGiWxArlBIPiMh3H-69" value="Were a Person massage received in the last Pt seconds?" style="rhombus;whiteSpace=wrap;html=1;shadow=0;fontFamily=Helvetica;fontSize=12;align=center;strokeWidth=1;spacing=6;spacingTop=-4;fillColor=#d5e8d4;strokeColor=#82b366;" vertex="1" parent="1">
          <mxGeometry x="660" y="485" width="116" height="90" as="geometry" />
        </mxCell>
        <mxCell id="gb7MCGiWxArlBIPiMh3H-70" value="&lt;span style=&quot;color: rgb(0 , 0 , 0) ; font-family: &amp;#34;helvetica&amp;#34; ; font-size: 11px ; font-style: normal ; font-weight: 400 ; letter-spacing: normal ; text-align: center ; text-indent: 0px ; text-transform: none ; word-spacing: 0px ; background-color: rgb(248 , 249 , 250) ; display: inline ; float: none&quot;&gt;Anomaly&lt;/span&gt;" style="text;whiteSpace=wrap;html=1;" vertex="1" parent="1">
          <mxGeometry x="790.5" y="500" width="40" height="30" as="geometry" />
        </mxCell>
        <mxCell id="gb7MCGiWxArlBIPiMh3H-71" style="edgeStyle=orthogonalEdgeStyle;rounded=0;orthogonalLoop=1;jettySize=auto;html=1;exitX=0;exitY=0.5;exitDx=0;exitDy=0;" edge="1" parent="1" source="gb7MCGiWxArlBIPiMh3H-73">
          <mxGeometry relative="1" as="geometry">
            <mxPoint x="560" y="750.1666666666667" as="targetPoint" />
          </mxGeometry>
        </mxCell>
        <mxCell id="gb7MCGiWxArlBIPiMh3H-72" style="edgeStyle=orthogonalEdgeStyle;rounded=0;orthogonalLoop=1;jettySize=auto;html=1;exitX=0.5;exitY=1;exitDx=0;exitDy=0;entryX=0;entryY=0.5;entryDx=0;entryDy=0;" edge="1" parent="1" source="gb7MCGiWxArlBIPiMh3H-73" target="gb7MCGiWxArlBIPiMh3H-47">
          <mxGeometry relative="1" as="geometry">
            <Array as="points">
              <mxPoint x="550" y="795" />
              <mxPoint x="550" y="1130" />
            </Array>
          </mxGeometry>
        </mxCell>
        <mxCell id="gb7MCGiWxArlBIPiMh3H-73" value="Is more than Na detection received within Ta seconds?" style="rhombus;whiteSpace=wrap;html=1;shadow=0;fontFamily=Helvetica;fontSize=12;align=center;strokeWidth=1;spacing=6;spacingTop=-4;fillColor=#d5e8d4;strokeColor=#82b366;" vertex="1" parent="1">
          <mxGeometry x="575" y="705" width="116" height="90" as="geometry" />
        </mxCell>
        <mxCell id="gb7MCGiWxArlBIPiMh3H-74" style="edgeStyle=orthogonalEdgeStyle;rounded=0;orthogonalLoop=1;jettySize=auto;html=1;exitX=0.5;exitY=1;exitDx=0;exitDy=0;entryX=0.5;entryY=0;entryDx=0;entryDy=0;" edge="1" parent="1" source="gb7MCGiWxArlBIPiMh3H-76" target="gb7MCGiWxArlBIPiMh3H-17">
          <mxGeometry relative="1" as="geometry" />
        </mxCell>
        <mxCell id="gb7MCGiWxArlBIPiMh3H-75" style="edgeStyle=orthogonalEdgeStyle;rounded=0;orthogonalLoop=1;jettySize=auto;html=1;exitX=0;exitY=0.5;exitDx=0;exitDy=0;entryX=1;entryY=0.5;entryDx=0;entryDy=0;" edge="1" parent="1" source="gb7MCGiWxArlBIPiMh3H-76" target="gb7MCGiWxArlBIPiMh3H-73">
          <mxGeometry relative="1" as="geometry" />
        </mxCell>
        <mxCell id="gb7MCGiWxArlBIPiMh3H-76" value="Event type" style="rhombus;whiteSpace=wrap;html=1;shadow=0;fontFamily=Helvetica;fontSize=12;align=center;strokeWidth=1;spacing=6;spacingTop=-4;fillColor=#d5e8d4;strokeColor=#82b366;" vertex="1" parent="1">
          <mxGeometry x="854" y="720" width="80.5" height="60" as="geometry" />
        </mxCell>
        <mxCell id="gb7MCGiWxArlBIPiMh3H-77" value="&lt;div style=&quot;text-align: center&quot;&gt;&lt;span style=&quot;font-size: 11px&quot;&gt;&lt;font face=&quot;helvetica&quot;&gt;Else&lt;/font&gt;&lt;/span&gt;&lt;/div&gt;" style="text;whiteSpace=wrap;html=1;" vertex="1" parent="1">
          <mxGeometry x="900.5" y="780" width="40" height="30" as="geometry" />
        </mxCell>
        <mxCell id="gb7MCGiWxArlBIPiMh3H-78" value="No initiation of an event" style="rounded=1;whiteSpace=wrap;html=1;fontSize=12;glass=0;strokeWidth=1;shadow=0;fillColor=#d80073;strokeColor=#A50040;fontColor=#ffffff;" vertex="1" parent="1">
          <mxGeometry x="530" y="510" width="105.5" height="40" as="geometry" />
        </mxCell>
        <mxCell id="gb7MCGiWxArlBIPiMh3H-79" value="&lt;span style=&quot;color: rgb(0 , 0 , 0) ; font-family: &amp;#34;helvetica&amp;#34; ; font-size: 11px ; font-style: normal ; font-weight: 400 ; letter-spacing: normal ; text-align: center ; text-indent: 0px ; text-transform: none ; word-spacing: 0px ; background-color: rgb(248 , 249 , 250) ; display: inline ; float: none&quot;&gt;No&lt;/span&gt;" style="text;whiteSpace=wrap;html=1;" vertex="1" parent="1">
          <mxGeometry x="721.5" y="570" width="19.5" height="20" as="geometry" />
        </mxCell>
        <mxCell id="gb7MCGiWxArlBIPiMh3H-80" value="&lt;div style=&quot;text-align: center&quot;&gt;&lt;span style=&quot;font-size: 11px&quot;&gt;&lt;font face=&quot;helvetica&quot;&gt;Yes&lt;/font&gt;&lt;/span&gt;&lt;/div&gt;" style="text;whiteSpace=wrap;html=1;" vertex="1" parent="1">
          <mxGeometry x="640.5" y="505" width="19.5" height="20" as="geometry" />
        </mxCell>
        <mxCell id="gb7MCGiWxArlBIPiMh3H-81" value="&lt;span style=&quot;color: rgb(0 , 0 , 0) ; font-family: &amp;#34;helvetica&amp;#34; ; font-size: 11px ; font-style: normal ; font-weight: 400 ; letter-spacing: normal ; text-align: center ; text-indent: 0px ; text-transform: none ; word-spacing: 0px ; background-color: rgb(248 , 249 , 250) ; display: inline ; float: none&quot;&gt;Anomaly&lt;/span&gt;" style="text;whiteSpace=wrap;html=1;" vertex="1" parent="1">
          <mxGeometry x="776" y="720" width="40" height="30" as="geometry" />
        </mxCell>
        <mxCell id="gb7MCGiWxArlBIPiMh3H-82" value="No initiation of an event" style="rounded=1;whiteSpace=wrap;html=1;fontSize=12;glass=0;strokeWidth=1;shadow=0;fillColor=#d80073;strokeColor=#A50040;fontColor=#ffffff;" vertex="1" parent="1">
          <mxGeometry x="450" y="725" width="105.5" height="40" as="geometry" />
        </mxCell>
        <mxCell id="gb7MCGiWxArlBIPiMh3H-83" value="&lt;span style=&quot;color: rgb(0 , 0 , 0) ; font-family: &amp;#34;helvetica&amp;#34; ; font-size: 11px ; font-style: normal ; font-weight: 400 ; letter-spacing: normal ; text-align: center ; text-indent: 0px ; text-transform: none ; word-spacing: 0px ; background-color: rgb(248 , 249 , 250) ; display: inline ; float: none&quot;&gt;No&lt;/span&gt;" style="text;whiteSpace=wrap;html=1;" vertex="1" parent="1">
          <mxGeometry x="560.5" y="720" width="19.5" height="20" as="geometry" />
        </mxCell>
        <mxCell id="gb7MCGiWxArlBIPiMh3H-84" value="&lt;meta charset=&quot;utf-8&quot;&gt;&lt;span style=&quot;color: rgb(0, 0, 0); font-family: helvetica; font-size: 11px; font-style: normal; font-weight: 400; letter-spacing: normal; text-align: center; text-indent: 0px; text-transform: none; word-spacing: 0px; background-color: rgb(248, 249, 250); display: inline; float: none;&quot;&gt;Yes&lt;/span&gt;" style="text;whiteSpace=wrap;html=1;" vertex="1" parent="1">
          <mxGeometry x="568.5" y="795" width="28.5" height="20" as="geometry" />
        </mxCell>
        <mxCell id="gb7MCGiWxArlBIPiMh3H-88" value="" style="shape=image;verticalLabelPosition=bottom;labelBackgroundColor=#ffffff;verticalAlign=top;aspect=fixed;imageAspect=0;image=data:image/png,iVBORw0KGgoAAAANSUhEUgAAAggAAAFgCAYAAADes4HJAAAgAElEQVR4XuzdB5RtRfE18AazIGAOiAQBUQSULEgQyYgEiUoGFRCQqEgUJaoggkTJUZJKzlGRKAhIUEAQBDMmREWBb/16ffX+h+O9M/Nm7szceVSvNevNm3tuh919au+q6nN6qhdeeOGFkiURSAQSgUQgEUgEEoEGAlOlQMj1kAgkAolAIpAIJAJtBKpAeO6558qDDz5YfyKg8NrXvrbMMsss9eflL395IpcIJAKJQCKQCCQCLyEEqkD461//Wr7+9a+X0047bZJAePWrX13e8Y53lA022KCst956ZZppppnwsPznP/8pP/rRj8q//vWvsvjii5fppptuwo8pB5AIJAKJQCKQCIwGAlUg/PGPfyxf/OIXywUXXFC++c1vlje96U3l5ptvLt/5zneK6MJZZ51VllxyyTLVVFONRh/GrM6///3vZauttip/+9vfysEHH1zmmGOOMWs7G0oEEoFEIBFIBCYSAi8SCFdeeWW57rrrymyzzVb++9//lqOOOqrsuOOO5Qtf+ELZZ599ytRTT12effbZ8qc//an+vP3tby8zzDBDecUrXjFpzP/85z9rFEJa4je/+U39+4wzzlj/r06f+7tr3vnOd5bXvOY1tV6FGOHdi17w9n/729/Wv7/tbW+rf/N9YsY1b3nLW+p3m6Ll+eefr9f84Q9/KP/+979ru/qmfp/p8+abb14Fwre+9a3ynve8p7zyla+c1L7vGt8jjzxSx/a6172u9jvaeOaZZ+q1+vnrX/+6jv2tb31rHYvv/vnPf679a343xuWal73sZRNeZE2kxZ19TQQSgUQgERg+Al0Fgiq/973vlc9+9rM1xXDIIYeUCy+8sOy///7lV7/6VSXKv/zlL2WllVaq6YnwxhdaaKHy1FNPlZVXXrmccMIJZdppp63fm3feectOO+1Uf0fwBADy3nXXXcs222xTifqSSy4pn/70p8tmm21WIxi33nprJWzRC+2edNJJ5cwzz6wiY9ZZZy2HH354+chHPlJH/49//KOcf/755aCDDqoCRP9e//rXl+2337586lOfKg8//HBZZpllqjhQ9AthX3TRRWWRRRYpjz32WI2enHvuuVVM6N/CCy9c9t5777LAAgvUa33nAx/4QK33mmuuKW94wxvK448/Xn75y1+W3XbbrVx77bX1OuPbdtttq6giJo444ojy4x//uOy7775l9tlnH/5s5TcTgUQgEUgEEoExQqCrQEDCvOyvfvWrZb/99quEhwSRL+KcfvrpyxVXXFHTD9ttt135xje+Ubv8wQ9+sNx7773Vw19ttdXKG9/4xkr4r3rVq8r6669fyfh973tfJWrEqT7EOv/881fxQJDw9BH/0ksvXW655ZZy+eWXT4pCrLPOOtVT1y6yvfHGGyuh++4OO+xQhconP/nJ6tW7Rl+kSvTruOOOK2eccUYl8E984hO1j8SDSATyPv3004v6P/zhD5ef//zn9Xrfg8NMM81UBQ0B8N73vrcsu+yydUzwIZ4Ik0022aQsuuii5YEHHqgChfgRdVh77bWr+PnBD35QMcmSCCQCiUAikAj0OwIvEgg8cF4v8kesvGkkeOKJJ5YFF1ywetm8aKSvPPnkk5U4l1tuuXLxxRdX8kSod911VznwwAPL5z73ueJpCCF6HrmnJBB4pCS+9KUvlUMPPbQcffTRZeONN54kENR56qmnljnnnLOmPEQVpA3OPvvs8tGPfrRGKGyeJCyIBXXvtddedQ+FjZYInmi49NJLy5ZbblnTCtqSdthoo42qODnyyCPLXHPNVcdx3333ldVXX72KF0JH2uDpp5+u5K8f2lWnfktbiJggev8nRHbeeedyzjnn1O8SHtISIho2doogwIbgIJCkVbIkAolAIpAIJAL9jsCLBMLJJ59cw+YInZeN7HnBvHlCAdndf//91Wt/4oknKgkKyy+11FLlsssuq9f4zj333FMjA29+85tfNH5Rieuvv75+Lld/22231dC7OmwejAgCj5vXrjz66KNlrbXWqqQenjlS3nDDDWu6QYhf/t/3pSSkI+wdUIiKm266qXz84x+v0Qr97yQQPNlgjHPPPXeZZ555qtAhMH7xi1+U22+/vQoPKROCYLHFFqv9jCcg9EVkYNNNN60RCW0RJKIMUbSrvuZejX5fGNm/RCARSAQSgZc2Ai8SCIhPXt+7D4TvkWBzkx5vGhEjPGTo85/97Gc1FcBbt5EwBIInBoTuo9hLsMoqq1SBIKrAS3eNaIAQ/dZbbz1JIAj789IVmwHXXHPN6tHz9KMI5+uP/RDEjAgE8SLqoB9KvNNBtMHnrmsLBNfw8FddddXy7ne/u0YIYlOiz0RTRBLmm2++SvAEiLHaMxFFvbD78pe/XEUFgRFjemkvrxx9IpAIJAKJwERFYMBNis1BCeN7muBd73pXfbrBPgRFGF3efTCBII3w+c9/vubpDzjggBqpEOb3lMRwBYJ0ggiDYqOjqIU9Boi+UxGFIBSkJYwhvHz7HERBPOopYtIUNs16ugmEuEZERarBxkhRjB/+8IdVbIke+MkXTk3U2yT7nQgkAonASw+BIQsEGwdFDZZffvma50eW9gfIucvPDyYQEC9BYDPgZz7zmfoIo30D8vsjFQgiGTZSHnPMMXXvg42GCFrUQQrCC5+820HEwiZIKY7DDjusCgSPKtpbse6661axQ7x4agGZ//73v6/fmXnmmWvUo5NAEGWQKrEvw/4CmxLtySBWbOLUhiceHnroobLGGmvUyEmWRCARSAQSgUSg3xEYskCQViAEeOwrrLBCJUubBO0lkFYYTCAgS2LCJkX1eDQQUf/ud78bsUCQFrAvwmZBGyc9zihCIVIg5O9RRaQtzeEFScTEEkssUcWBJzNEHDzp4EkE74DwKKPxEQ7Exx577FFTLp0EAlzskZBmkN4QpRBF8JQDIeVpBoJFGsNeBqmMLIlAIpAIJAKJQL8jUAUCT9sjfgibVy9S0KnYsOddBHL9PHIb9+zOtzlx9913r163pwWIiFNOOeVFm/I8QfDd7363bujTnkcd5fORqacUPJ3w05/+tG4m9Lt3LyjetSAqgIhjX4K/S1kQKMcee2zdJ6D+u+++u5x33nl1X4TvGYdogA2NUiO8fe9DEGm44447KvnbDOkzERIi5uqrr65PW9hHID3gPQ8rrrhijUjYy+DlSkSFzxV1epeCcdgPIQoh/eJRS4LBBkpt2IxJmMSTE/2+MLJ/iUAikAgkAi9tBKpAQHIIFgk332zYhsZ1nkSwH4Fn7Fq/+7sQvCLELt/ucch2iTcpxo5+wsL1NhXyzrWvfhsAYxNgtKmuaMPv8bIl7TQ3FRqHSIE2kHjU1bzGd11jDM3v65/vG5PrCR59jL0DhI0623sUot++r07f8RMl+ko8xFsjX9rLLkefCCQCiUAi0O8ITPX3v//9hXjJUb93dkron6iEjZpZEoFEIBFIBBKBfkZgqmeeeeYFYfksY4OATYr2Q2RJBBKBRCARSAT6GYGaYujnDmbfEoFEIBFIBBKBRGDsEUiBMPaYZ4uJQCKQCCQCiUDfI5ACoe+nKDuYCCQCiUAikAiMPQIpEMYe82wxEUgEEoFEIBHoewRSIPT9FGUHE4FEIBFIBBKBsUcgBcLYY54tJgKJQCKQCCQCfY9ACoS+n6LsYCKQCCQCiUAiMPYIpEAYe8yzxUQgEUgEEoFEoO8RSIHQ91OUHUwEEoFEIBFIBMYegRQIY495tpgIJAKJQCKQCPQ9AikQ+n6KsoOJQCKQCCQCicDYI5ACYewxzxYTgUQgEUgEEoG+RyAFQt9PUXYwEUgEEoFEIBEYewRSIIw95tliIpAIJAKJQCLQ9wikQOj7KcoOJgKJQCKQCCQCY49ACoSxxzxbTAQSgUQgEUgE+h6BFAh9P0XZwUQgEUgEEoFEYOwRSIEw9phni4lAIpAIJAKJQN8jkAKh76coO5gIJAKJQCKQCIw9AikQxh7zbDERSAQSgUQgEeh7BFIg9P0UZQcTgUQgEUgEEoGxRyAFwthjPtktPv744+WBBx4ozzzzTJllllnKfPPNN9l1TJQvNMc666yzlnnnnXfQrj/33HPlF7/4RfnHP/5R3vve95Zppplm0O/kBYlAIpAIJAIDI9A3AoFxv+GGG8qDDz5YNthgg/KGN7xh1ObuvvvuK7fddlv573//27WNIKbvfve7Zb311isLLLBAmXrqqUetT90qfuSRR8qBBx5Yrr766vLPf/6zfOQjHyknnnhiecUrXjHmfRntBn/5y1/WsV5zzTXlX//6V1lmmWXKCSecUF7+8pcP2LS1s88++xRY7bvvvuU973nPaHd12PUTeWeddVb505/+VD75yU+Wd7zjHcOuazy+aF7OO++8Oj/dykwzzVQ++tGPlpe97GXj0cVsMxFIBHqEQF8IBF7jN77xjXL++eeXv/zlL+VHP/pRef/739+jIf5vNUcddVT5yle+Uv7zn/90beMzn/lMede73lW23XbbcuSRR5ZNN910UKIajQ6ffPLJZeeddy6rr7562WSTTcrf//73svzyy4+LWBmN8TXrPOmkk+pY11xzzbLxxhuXp59+uiy33HKDjvVvf/tb+dznPlfF5bHHHjukqIN2CUTXv/rVry6bbbZZz4f3xBNPlLPPPruSZQjOP/7xj+VTn/pU+e1vf1vFD+E5kQphM//889doTbey9NJLl9NOO63imiURSAQmLgLjLhAefvjhstJKK1WDqSCFO+64o3zgAx8YNVQZOcYbQfj57Gc/W9vabbfdyrvf/e76+4wzzliErvWFEX/7298+av0ZqOIDDjig7LnnnuWmm24qCy20UHnhhRfKVFNNNS59Ge1G99tvv7L33nuXm2++uSy44IJDHutwBYK1Nsccc9SUxEMPPdTz4V133XVlxRVXLIceemjZcssta/3W2913313XuTG+9rWv7Xm7o1mhe0K669///ndtRsRHRGH//fevYk4R/Zt55pmn2HU6mvhm3YlAPyEw7gKBEeXNf/GLXywXXHBB9eiE/0dTIDQnQBRh2WWXrWQksjD33HNP+pi3/utf/7q8853vLK973euqYOClzjDDDJN+dzFR8da3vrUafYLH9+wVED5uelHaevLJJ6sYUtdb3vKWKkRe85rX/M+a8HlEVo444ohy2WWXFTn5t73tbfW7f/jDH8qb3vSm8qtf/ar+/r73va/2Ux94qdpBnG9+85trJOSNb3xj9cQR1G9+85v6uzTFY489Vp566qlq0IWGn3/++Tpm9apP/6affvpJxl7b6leHaI/+6If6BxIuPM7f/e53NbQuVeJ7fqabbro6HmP9+te/XqM1l19+ecUvPm+DI7wNQ303LwheigH2zQhC4OTaP//5z3U+9NMPbIxRygb+Ujjw0GaQtr4ap3+RHizNc3OcMDAubagHZq7xPakSkYk99tijrL/++pM+d+2zzz5b+/PKV76yDk9ftWMufVcdr3/96+u/kU4yT9ryN7/DzFokXpv9grU6iGDF3Dbb6qUB2m677eqcScWttdZaL6oa5tbS73//+zpP+qGfWRKBRGBiIDDuAgFp8kamnXba8vnPf74am34RCDwjeWI549VWW60a8Nlmm60svvjileR4nQy68LGUhNTItddeW/76179W4iN87Kdg4BGCvQPf/va3q4BAMsj605/+dNl+++3r9c2iLWkN9SF95AQjqRgkwdNeeeWVq/eGZDbaaKPqzX3rW98q3/nOdyqmcsDaWnLJJcshhxxSSRdpbLPNNpXc1XfrrbfWVIvf/V1bQv3662eLLbaoYX9ihogi6L72ta+Ve++9t4ofREVgIcFuaSFi5bjjjivHHHNMFSCK8SMUwlA9ncZ68MEHlzXWWONFuMjhn3HGGRUHQsUYCTRYEj0hELQDO329//77J/V1hRVWKLvvvnv14r/61a9Wb1ghDJD7N7/5zbLYYouVe+65p+5nuPHGGyuxw3Geeeapf1tkkUXqd8w/UWN9EBX6YJPk0UcfXURDLr300ooPgUXEfOhDH6o4INVHH3204uF64gCu5ugnP/lJnU9raM4556z4rLLKKrUP5hbOcBPZsg7M4xJLLFE/IxKJg8MPP7zWFULWuNxXTfHbK/PUTSAQBzvttFMVtta2dfXhD3+4CoksiUAiMDEQGHeB0ISp3wTCueeeW9Zdd91yzjnnVKJCSBEV+PjHP14JGtEwxjwkTxe4HpFKC8w111yVbGefffZy8cUXVy+SuEC6RIP9BT/4wQ9qLlrOvVkQ/PXXX1/J5vvf/34lRN48krnooouqqHjVq15VQ9faQf6IC+khkw9+8IN1z4R9HQjM94kYHt3WW29dLrnkkrLooouWzTffvJIRYoyIA7JGKscff3yNmBA29j0gO+kg4kjOn1hCaMjQ2BA6HJqFyECixIvvBuEbN0z03/eNVQTH39UDZ0Qt+tEsd955Z92jIApgTwbyQTqIaOGFF54kEAg384O0jRc+t99+ew2FE23+Zu78i5ARLJEEE2RvfokHJEcY+J2w0IZ14TvImxgj8pZaaqm6PoiCL3zhC1UIiYQYN/Em/E6EyN/DjkAgZpC2iMLHPvaxij/szSchBwfiQgTJuvH/XXbZpdYTG2e1Z/zGcdhhh1XBR9SaP/21jrSlfhj0unQTCDCypjfccMOy9tprVyFNKO6444697kLWlwgkAqOEQAqEAVIMnQSCcC7iIQp4rsiVMEAuiBAR8GoR5k9/+tNq3HnYDDQvESny6HnQCMu+AhsQiYB2QTJC5yIRHuOTL1fUyTAjV3sUkCRR4odXKTQdqY0rrriiRgb0y/dCIKiPVynEbgyIh2d+0EEHTRIw/o+Eeb2MvT4KmYsoIEckiYDUTQgQOrzYZiEw7PHwhIEIC5Gjn3fddVfdrIcIhcOJnS9/+ctV4PgOUdWpIPK99tqrYrLVVlvVPvD2iR/1RgTB5kDtImskH301F3AlfpAokcO7178oUgMiDcgNZgSX8SE60S3rQn+JKwLE0zdSEH6Hr5SL9WC+tYe4EbjC428LhFNOOaX+zYZYEQICRR+JNvtiREHMob0MPjdu/2rTkx/WoTUlTaJNcyQdRRyKIogQWZPNp3DMm7Xh+wMV8wCLbk+SdBMIxB7ciX7zBUOpody4OEqWPKtNBEYBgRQIwxAIjDmPXBRAeFiIlwHk7QeJM+Cnn356Dffyvj16hzx4gpF3Rjo8Z14l4mk/RjmYQLjqqqsqwTeL7/z4xz+uZIF4ER+vkueOwEMgiAIgSR6633mn0h+iJcajqIOwIXyQrbSGcQt9Nx/P44nz6JEComoW5InQiCiCI4p+iihceeWVxWOn6hyKQIC97xA3yFfheSNgIf8QCAQMQlVvc4OpvkrXmCt96iQQiJAddtihfuYnSryLwjjNIXJEntrsVIYqEAgD4ku7n/jEJyZVRWCKaGgHyUpJEIzGFU9dEEWiNiIRcCEG1GENWHOwF9UyP80iaiHyYY4HKtIbIkgET6fSTSDYHyGKRYhYT8ZovqbEx3NHwS5nlYlAXyCQAmEYAoGxQ5q8KgIBSSMMpBOeLzLlGfIe5V7tU+Dd29Xe9saQAE+3XQYTCMSFuqMgeh6nfghN85DVIVqwzjrrvEgg8OZEBggEv/NWERTvOOrkSa+66qo1qkAgIOFTTz21jkXdzYKIkbeNjs0izO7vHvVDcM1CfEh1iCYguKEIBOFz1zfFSKenGHj3BIm+ilo0i7y/scCok0DQDxEKeyrakQxeu2iLqIU0D/IlrkYiEIwJoRsT0RRFG9aGSJE+ESL6RSBIRUQRMYI/gSCaJNVhr4TUkr0A6lC3cUchLGzyFNHoVkS5jLc9183rB9qkSPhJtVmnolREjYjMYO+16AvLmJ1IBBKBMmEEAvLjffTauAz0FEO3FMPkCgREiKgYZJECxnwoZXIFAo9VqB1h2LzIsNtkh2CkMpoRhOEIBMQkh498EOxQHre85ZZbavvImLcaL89BYnBB9rxZXvBQBIKwtZw74WUvgj7IbyNMdUYEgagRmtdfmHTqqw19QvGiP/L0cY29IchMvlwdnb5LPPHOhfftCYnoD1yN0VpFjIQR3KQIlE4pBiSKwPWVVx/tqVfkB97GTcANRSDE2rLepKBEAIgYIq/X989AAkE/3F/WAAHsX5srp+Q3gQ7lvs5rEoGJgsC4CwQeuFA4j0YYlYfKMPLehDXlUIWOGW2PSPFGh0JMQ52AsRAIvHAGXgifuEAWNprxfHlZfrcxrV0mVyBceOGFtX4pC9ELO++JAsSCjEcqEIS8pUtslLRXwH4D82d+ECMR0n57HvI3ZyIJxm+/gnEheVEY4Wdixt+GIhB8D3nb44F05LS9lEfqQ0g9BIL3RvDGpTzUG08L2N9gzr3bQpsiCMSndI0nNQgZxBobJAkReBIA/i5FI2LkX/szbNJEwK735IlxEgXC6whRNMZ8S1loz3pu70EgNjwlY6Oje4Do0Nauu+5aoz+8bvtekPxgAoHQ8Vih9t0/oijWnnq12+sQfzeBYNOo9okBa8ReBH2xDyWeAhnqPZrXJQKJwPggMO4CAUEyMsrPf/7zumnNC2SEShla4dzvfe971UMkEFzTSyM3VgKB4RZKlsdmNIVuPbLnWXwEEpvYmstgcgWCDWdIS2ga2SA+7cK0FykGfZPbJ+I80y49oY92p4uQEADtTWiEn/dbICmCyNj9zbyrQ9rBd4cqEOS2ecJepiQtYS3AVI7dZsMQCHLfBARSsns/3vEAC+KAV6+v5sS+C3/THxsw/S5yQMDYv4CwCQQpIu3ZaCrq4AkVbdhUSOAZH2InzgghwkmUw9MfxAsxos62QBDJEK3QD33VJpL3Xgf3hlQGYTEUgXDmmWfWFJM9IvrofrHGPW1BrPRSXFsP3QSCTa2iBcZsbkXO7M/x1EW3/QzjYwKz1UQgEeiGwLgLBAbbo2BIo1kYMo+U2emO+ISM5YMZ5F4aOd4ND9sOdEat+SIXBo5hRUhe3ORZbu17laxn0ZFG7DbXd+Qcm8EYQs/he8Qt3g+APDzGx7NEGna788bVxXttF5iIpiAknmNcI3SNCIinePOj7+qLZ/5tPkSawudElr8hc7vy5YJtnkQa+iYdYezC/3LYETYPwYb0bXrjiRuvfhuXHfDEDXJE+p7EQPSd5gZZEwSeLEBY2pMXVy/SUK+xioDYkyA6YSNhp2KM6hA1MD8w9NiiaAlv2xzGngMePe9cdCD6yrPmrXt0UV9Fr+y/gBGSJ9TghrRFITwJYKOnyAiS911zps8EnmsIWNcgdp/DnFiJTahEir54dNJ6NnfSIvoqemTs/g9//XVPGL+nJqy1eEeGFBIMrTP3RhTiy7rzrz0HrjFHBKIoD5EiuuPJi14XaThzJkIC0yjxeCyxKq2hv/ZrNDd99rovWV8ikAj0FoFxFwi9HU7WlggkAolAIpAIJAK9QCAFQi9QzDoSgUQgEUgEEoEpDIEUCFPYhOZwEoFEIBFIBBKBXiCQAqEXKGYdiUAikAgkAonAFIZACoQpbEJzOIlAIpAIJAKJQC8QSIHQCxSzjkQgEUgEEoFEYApDIAXCFDahOZxEIBFIBBKBRKAXCKRA6AWKWUcikAgkAolAIjCFIZACYQqb0BxOIpAIJAKJQCLQCwRSIPQCxawjEUgEEoFEIBGYwhBIgTCFTWgOJxFIBBKBRCAR6AUCfSEQnAToxzv6vfPeIToOmhnN4v33zlbwbn/ttd9T7z32+uOsgfYJhaPRL2cFOBPC+/ydfPfKV75yNJoZUZ0OI3LY0A033FBPPfS78wkGK3feeWc9HMnpiuutt95gl4/r59ahcVp/jqAe7xLnZDgx0pkkTr+EexwvPZ790zfnUbiHuhWHW7mHenl+SrTlPBH3qeIAqDYmzh1xDoRzMboVp0s6CdSR4E7MzJIIJAL/h8C4CwQH7Dh4x2FBjgZ2yqEDahyQ5HCm0SpO5nPwkmN7HTT06U9/+kUnESJrxOb0QkcFj3a5++67y5ZbblkPVUIGoy2QhjMewsXhVQ7lYXSdeOjkzcGK0xzNp4OKGOOhFgLO/BBNBEkvi7od1OSwKgc+RXGctHE6WMhRz+NdnIJoXTjsyTokZs8666y+EJCOut5///1r37oVRzvvueeeo3KCo4PMnN7pwDVHejuQKgrx4mjyxRdfvB7+1a2414iD/fbbr9qDLIlAItBHAsEpcN///vfrCXlOrfvxj39cfvazn1UDjYxGy4u76667yqqrrlocH+yI3eOOO66ewheFUb7xxhvr0bmMzGiXiSAQHCFsjpxIibSJmKFEOoYjEER4nJS46667lt12262suOKKPZ0C64zAccLiZpttNqluJyY6DZOnjjjGuziZUf/22Wefsu2229bTGpsnjo5n/+69995ywgkn1BNCEbJ7yr3LE4/TOJ1kCkdRhF4X4sSPkzc/9rGPlZNPPrk6GIrogrVpfp3ImQKh1+hnfS8FBMY9gnD55ZfXED6vlBG59dZby3LLLVdJ+7zzziuO5x2NEgKBIWF0ebeOlA5vsi0QEJZQajvdEOHVCG+6zo//C1c7hhipRgqDIRXCNlbeYJS2QFCH784wwwxdj+kV3mUc9bkdwtUvf+NdGR+PfzAjrS5HFPPW2+Fa/dZfx14j18GEgXb/8pe/1LocB9wtgqCff/zjH6snLxwdxfgdc73GGmtUwnY0daciEuA46Thmu9M1cPKDPGJcjpZGuOp1lHYU4xddUl8bL33iLft7JywDc3UZkzmPo5qb/XKduYWpcXdLF2gP6REIsCCSzGmsMb/rr7YcBd7Gbyh9VYd599OcA33zfZg1622OwxxHikGo37HZRx55ZCXkBRZYoF4aKYYgbX0l+qUERlpCILhHtC86temmmw4qEGCm3/pxyimnZARhpBOR359iERh3gcDIMJBBcAznVxYAACAASURBVP7vxkV6p59+evXkRqOEQJhjjjlq9T//+c/LEUccUT0OfWkLBCT17W9/u4Yim7nK+eefv6ZCpEmQJmP+5JNP1jD1vvvuW8lmxhlnrHljXpUwptQF4thxxx3LBhtsUNsPgcAzZ1zPOOOMavRmnXXWGj5dbLHFJhHJww8/XI3xtddeW8lx5plnLp/73OfKaqutNknAqGPhhReuWDLYCOSHP/xhRygfeuih6qHql/qQwsYbb1wNpxzuqaeeWrG55ZZbatTAeKWBdt999//xZpGfqAu8kKBrhcbVgYwjxYDYkYlwOQ+Ukf/kJz9Z8fP7FltsUa666qry2GOPlXe+852VvKQz1Kvcc889FVOCUptzzjln2X777csyyywzCScpBO1dccUVFUtraptttql7Tw488MA6T+p929veVni6BCIsjEtfYKogk2OOOab2FcERSosuumidS+vHeoHNTjvtVDbZZJMaeYK19bDKKqvUv2tDMXfqv+OOO2q/3/3ud9fo1UwzzfQ/cwMDAlqaxTowlyIqIjl77LFHWWeddWr0DUbakRbTV7iec845leD11drR10jZiZoJu6uHiEGSBMG8885b9tprr/KHP/yh7L333nXtwn7nnXeu+0cG2oujXfhZl1deeWWRWogCe5EG4ySOiYNYXyMRCiEQ/LvLLruUj3zkI+Woo46qWHWKILAt+ggb/eWUcETsj1FHphhGw9JmnRMZgXEXCG3wHnzwwbrxjTHjeY7WPoQQCIwiIlhzzTWrt8rACeG2BQJhwIgwQE1vFoGqg1fNGDNSCIIxZXwYQGSGIBhhRgqpCMUylggDwYdAuPnmm+t3ETzhhEjsS7BHA4nYzLj11lsXoXBhVQb8zDPPrN+RMzcGBTn5mzpc4/f77rvvf9YqEtB/BpPYQc42biFRxGbcUgSImddN2Mj1Em7Itu25H3744eVLX/pSbc91+mtzHTJUH8JGGEgSkYlIfPjDH66Y3X777eWAAw6onj0Ck2M2T+973/sqmRE8+uNvMIDZWmutVUXLueeeW8keEUkJETqiQvo+33zzVQwJKhGN7bbbrpx00knF/hdzbT6IGLlyYxft2HzzzWtf4CLFQfQQWeo2Z/ow99xzl8suu6z+3fzw8OGtP9JV9g8QKcZCDJqTZZddtgoxhK4vCB4OhGm7aFc65/7776+RNFhLycHyE5/4RBUm6tT/ueaaq6bkEKW5Mi5pO4IHTuaYUCL+/A1+119/fY1GwFUEwXUEC4GgLURL6PguXImobmUggUDoExnmUFrPmnavEHjW/nBLCARzQHyIOBIA5g9GzRSDcZpf6wc25o5TQCT6zPdSIAx3JvJ7UyoCfSUQhOSRC0UvVMjQjcbuZ5MZAgF5MC7ICwEiDpsWt9pqqxftQZgcgYC8eX/IkKEiKISIGXmeNAGkPjlwJOAnBIK8LsPHgBMQPHuRCyTCuyYG9I2nh6AZWt4rscCjVC+SF9olThg9hOi6Th4gIpTn1gckxqPUFwQn8sG7RBDhkfHitdcpLE5s8LyJHJ4v4kemyMH49QMmSIcRR8pC6PoZpKUO32XEO6UYrBEiRHRGVGP99deva0SUBD7m0Y8+IGx7WbSJxBGfsVpbCL1TigFhNwUCUUEs6g8CEgWSsuFhiyrw2n2uPpviCB5igjhChISneddneEr1EFc2QxI05hiRNdNNYWwQl0105gi5S70phJNoETI3P6IZ1tk111xT14Z2vve971Ux8NRTT9Vog3sJXtZlYA0j64voeOSRRyouBJJ1ZGxwJW7cj3AZaJf/QAJBCseP+8KaIJSJxJE+IdQUCOqCyWyzzVb77l9rOfYgiLKILpk7EQ5i+Kc//Wl1Dux1EVFKgTCl0lyOa7gI9I1AQEC8PSTiZkfWvKLRKk2BgFwYXW3z+nltQrnNTYqTKxA8kRGbyYgekQlCJFIKxopYiBHkHwIBaQiBRo4bKQmdIzsGHvnxlpGYEKkilMyIi7YgIl4ZgYA4EBHC6FRgzqtD0MiFxxgFWQjx6zcvfSgCgaH1NIhxI8woQvNBxrxGHiWiQnxSFcQGj19aBSETScbQSSAI8UvfmBvzFR7oo48+WvFZcsklKxYEBPFBhEVeuolBtz0ITYGAgMwZErFbntALYRRrVfhev0MgaNu8wp936nepFvUgdF69lAGcVlhhhRrd6CQO9HUwgYDUYIAIXSu6Za0QFYRaiGtjghlspMJCIBAV5sJ8SfNIZflc5I7AUSdBZc3C0iOq3fZLDCQQ9Af5GrsUDHIW0elUl7l3b1pvirSKdWydtktTIMARHgQb0QN36zoEgjFpm0AhnqIQ3zDLFMNoWdqsdyIj0BcCgaHybL3wqJAsD0AIdjRLUyAgC54WUcBAHnzwwdVIjUQgMJjxqCIvTLgaWUcomReDuBA/8uj2FAPC5BXy4nmLwuY8bB5SPOERm95iX4B9DAhKFACRddtQ+Pvf/74aasJAGkS6JIo+ExsIlmEdikAQ6kWmwujmMErzKQZGHJEhNhEE0Y7YeAczfSDYEEIngYB09UcUA+EGxrxSaRGCyzwiCJEK4kt0pV2GIhAQDYFE4JmHpZZaalI1UkpIXj/NZQgEQsK8Ij/4ImY5fyQpFUCIEUnSKVI/vFrRm06bLAcTCKJREUGx8U69wujWLTKOAgd9NdciESEQCBORBVERKQYimBC49NJL63pTiAtiw3xae932IQwkEJ544om6xmEgcmB/ArEl3dB+/4j+WHf6oxCAhAtiH0ggSP1I6UTkzdqxLyUEgnuHECCs3YtR8jHH0bSyWfdER2DcBQIjKB+PWOw/EA7mqYz2y4naAsFEEinIhzfLa5GjjsccEVuEWxnbKJ32IAilNgUCb5aHMhyBwPORShBetseAgUMAQtw8sWaR0+YN6tNQBEI8AWFvA+PafNeASAXPH0GuvfbaQxIISJKY0S9j7SQQCA75bOM45JBDqphoppH0m2Ax/50EgsgM8hcSR2iEUrMgWoRHgPAUeZT6300gbLjhhi96Tr4ZQTBvPEwheCKHaI2+xljtFZH26SYQkJLwdggEe1CIHALBfNpkCevmkxTR18kRCOoVvSCyCTXpjihEgXmxpkUMxlog6IdUiv0o5lQ/zTFs42mH6Ks0EGFlPAoBIQLWaTNjM4JAQLhv7SUglNyj1m4IBGuZeJA+IVBTIEx06sr+jwUC4y4QeO48PBuxKHveV9urYCgZWd5mr16Y00kgaAcZEwUIyl6BEAgRapanDw+Ep8tjlWNublIciUAQQfF9nhMjKZpBDCBDYXpGkYhi5Hh23UK+QxEIFpgxehyR5xaeNm+cdy5C4e88vqFEEERBzB+P2Y95ZLR5tbxCIlDfkbAUAy+S8GrPt36ZC5ESeW/eq+uRs77KqSM6AkDUpNM+Fe3Z+4DcYReCk+iTRpI+iSc/EFaU9h4E6QOCRF8RDlxFbIxDhMHcCJ8PVSA0yZ9IgLnNf82UzHAEgu/w/q1fqRviy9rQV+sVBgQuMTIeAiHGZD1Y08SRtTWSSGFbIGjD2Ow7ERGzZkMg2FtBKIqa2JwoqkbE27cijZJ7EMaCbrKNiYbAuAsEm7gYZZvfYkc6EBk3O40RgHAwMuTpijb0IrrQSSBoVy5beJanynCHQJAb5YHxThlZRCV8zduxF6BXAsHGNk88IFV7C7SvIBBel7fXMYAwQH52oOsDwiNUfDbUCIJ6ES0CVDev2x4IbRoPL583pq2hCATXIF0bPaVOeOdC6ubX3gHeNGKFMQx5tkLwriUIREbU4W+eloiNhuYDQbtGSF1UhUdMMEonEDny+uqzUU1UAnawUR8SMJfWkUiJ68yvv/NskRUiFe6XSmhuUiQoiEJpBP2XZjBHnhjQR3VJ6QxFIAiv82L1XfjbXhNCz/9FVtplciIIvvvAAw/UPhqDPvOqiRBEDCt9tH7HUiC4T4gVZOxelwoh8Pzf2JuPQ06u8ewkENRByHlKBt4hELQrpQEDtoTwJDBhZW3mUwyTi35e/1JAYNwFAnKQo+xU3Ny8Hjd1PCbFyDdz5cOdJIYfERAhQp3Nwvj7m01/vMR4vIsXZoMgoyfkiVBEPnjaPE2eMA9aftyjbOEZ84AZQ+HuyGMjP69xJoC0oT9yrTwbhM/LQRBEkX56rE19DKtNlEhYVEXeXR5eakGEgchC6HLIBA0RMxBeogW8J5s0GUqESiRIaSAZ5Ke4zkYweEkfdItcwMMTFkjUd4SH7dqXB0cQ5tG4eHS8fNfHO/O1a86JB/iKpvB+RRIYeHsqRHJcD29hY+H62BGvr4SVR00VGzzhDid9kX6w3pCHPkghiAJJtcAKkSFZdRBahArhgERsgDQnNhzyQu2fgLf5g6/5FNY2lx41FdUQHdN/40Bm/ub5f9EV4/FEg7UVZ3B0EgjElf4Yd+wrEGESKUBqiC4iKPrqXtFX6broq8dEiT9rz9rQvn5aTzCAOwytU2vLPgoCJoSptIW1KdrRbd49XaKPohhSSLGB1nr1d+uVaPN980Tw+Rns5V0D3d/u03jnhqdHonhSwTs8rC3zHe/esCYJSgLJ/IvSmT9CzZprvlFzuHYlv5cITEkIjLtAEJbmxbULo8eTFupGgjw/j20hqV4UhstjTjwrBrRZkIn2GC/eaewyR56MjDwpo8pjRyiMjby7PhsPA4UUw5gyyB73Y8S0pyA50RDEToggKQSExISxRTjUK8fup7nRUOqBF+5HPcg0NhuGKEHI2kJAgz0qalza5oUjLo8EGk+zTX2xR4MYau99aM8HQtR/4WSRCSIHTuaz+aQEL56xJkyM2eeIKTZfatNjj3BCYEg53othjnwXtvG2SnXDId78Z1zy3rA3LhsKEVeMi9CzBmDoez6zFr0vQp+bz+gTsepB+ojdEzbET8yxusy9/sdLkbSvj3BwvXWkP7A2HvNjPcea6LSuYeT65nWIVkRLneaqXcyjd09EX+Fm7NFXZE6QEgv6G2kTQkp7cdaGerUFD/dBp7aibeLEXGibOG2+It38mH9ijpiCtfoGexvnYPe59uxFsR7bexRivsxjc835jvSD/to06v4j5v1u02iWRCAR+D8Exl0g5GQkAolAIpAIJAKJQP8hkAKh/+Yke5QIJAKJQCKQCIw7AikQxn0KsgOJQCKQCCQCiUD/IZACof/mJHuUCCQCiUAikAiMOwIpEMZ9CrIDiUAikAgkAolA/yGQAqH/5iR7lAgkAolAIpAIjDsCKRDGfQqyA4lAIpAIJAKJQP8hkAKh/+Yke5QIJAKJQCKQCIw7AikQxn0KsgOJQCKQCCQCiUD/IZACof/mJHuUCCQCiUAikAiMOwIpEAaZAq/7HexVxeM+i2PUAa+ndSiUd9x7DbWTLB3+M9GK1yJff/319ZXJzieIVzO3x+FMDGcTOAMhXlk91PXgOgdeefWwsyEGek3xeOPnVcNeja2fzddLj3e/sv3/Q8Dr5h185hXZXse+0korTXqld+KUCIwWAuMuEJwrYOHHCXvOW3Aoz0AHw4wUDIcpac+78rsVJ+ERBg56ccCQPnU7qGak/Zko3z/ttNPqQUfOK/BOfafhOXNiohXnAjicB2k7lItQ6FScu7HCCivUA8Mc/uO8jPXWW6+ei+BEwoEOGiIQHAN900031eONR3Jq4Wjj6yTJE088sZ7cGUd+j3abL/X6nXHh4DlnZnQrzlVxYJjD2MyNg8ecG2LdsksONsuSCIwmAuMuEJx2t/fee9eDieLHITL+hoxGozgO9ktf+lI94a9bcWyxA1ycgudExC222KInp0iOxng61QlLhwchdafmxel6I2nfSY48Gaf9OUSLoXIAkRPyHNftGN2JUBx05IhlB/UgxvZBPzGGW2+9tUYPELx14KAl415++eUrrm9605u6Dhf+1pBTK60fgnOoxUFbZ555ZhUlzVMKh/r9yb3OveZkRKdrOjU0y/8h4GA2c8Frd0rnSE6fbOJqDcb66Ia3A6/cww7XcqKrg7+cGiqSRzxMxOhdrq2JhcC4CwRHHjtpb+utt66n4yEfxww77U0YeDRCszxgJwi60UQRNtxwwzprX/nKVyYdc8v4ExC8TafhMRDt4ruiDM3jlEVE1NstbK0O1yiEULeCYFwnajGcyIU+OMZ2gw02qMczD8Xw+44xG1O7//rDk3HyJdILQylcL+qz/vrrl9NPP73jcKLOTuONkL22jReW3VI6cW1go7GhHv3dTA20BYKx6KO6mli3BYLPbrzxxjpeJyk2+xliM/rTSSBYLwONL8DjLYo+EC+bbLJJR0zh5Weo449K2v3094EEQrRj7rrNizqNt9vYhrLe24NUX8xJu91uaZ5Ofx9K/+OejDE0++L+5xw4gZKA6mQHhmPyjY34EJVSHNPt+PAddtihHhse9mGWWWYpt99+exW0bCJhminP4SCe3xkOAuMuEByFG0cUGwAPdfrpp69HtF500UXVEI9mYbSXXXbZauCE8HjJURwNK0S82GKL1aNg9VVY0E1L1MSRzL7jyFn5ZsdEEyCOaBZWbhoUY+MBOFaX0XQs8KKLLvoiT0B/5IQd5cyAwEJd6uet66c8pGuEvx07rWgToSG7hRdeuB7NrK+M2vbbb1/7or1OKQFjQZqOFXa8MkMP/4UWWqj2TXs8mbXXXrv2Zf/99694IEyfbbrppmXxxRevXrb+yus7ylf/f/KTn9TxEhyOHNaP6DOPHL5xbLbrtCka0SY+x/rK6ZsL32O4GX9Gc8kll6z1wwaBO+p33XXXnTSPjjCGuzFJD4RAMDbpowcffLAe0U2gqv/tb397NcKdBALR5XPjdY05d502kCgBZQzWNA9RNGC33Xarxx8LJ5sDfRCdags/nqL1c8wxx1SxhRTsCxC1sAcCpo5ORhiwcmS5McDAGuwmJOFiLTvaGjawdcwz3KebbrqOAsFal4rTjrVFFOmz70Q7RLb5NTfWrc+NPdY88QgbdShws94HIln1mB/rCqYcBALdj/FLR7qP1NN0HhzhDF/tW2ewNOfWiqO14W5dxZHO5lvf9AlZu5d9xxpx/xivY8vPOuuscvTRR9do0WabbVbxkm6MNdwr28TWrbXWWjWdtcsuu9RqzRs7YC0cd9xxdR2IJEQaNoVCr9DPerohMO4CodkxBt+NYvMbIrnkkkt6fiO2gRhIIJx33nnVMz777LPLaqutVuQNiQMk4HsMNMPLu9BnBvjhhx+ueUI3t0iIH2TBSMlbn3/++ZXEkQkDKFzNY2TsEPUpp5xSSR1RM6RPPfVUxYAXoy4Yfetb36pGhIEjHJQgPQbvhBNOqORin4V6GEdhdGQjQtMuyJ/XwuBrE7EjIlEdEZ5zzz23SMswosbCyOo3wXLBBRfUMatfOwz5SSedVMfPC77uuuvKDDPMUMemL4ysOo2J4TOupZdeujDw2vQ5I9kO+/OmN99884ozQud56a+6paIYToaeMIBxM3106aWX1nC9z+RuAyv4EzT6pb/mc5111in77rtvxaGTQDBmeXphZ8RpL4M1i6R9H4GYQ2uCQCAobPxzrTYQtO8bo+80i/EQE9adeUf++idFRORZM3vttVf5/ve/PynMbAzSR7BeddVVO97n9913X7HPwFzFOiMSYs+ByFkzxYAoXW9+jMlcWBPGwcMVlULS1iFRPdNMM9V2iQrYrbzyyvV7Uk/u4ZhLfTV/rumUnjFnsNQ2cibY/CsV9OUvf7kss8wyZcstt6zXmEf9iGLejFM6h+1Qh3kwTntMtE1UHHbYYVVA2F/iHjGf1pLxxZ4k9xlv3vxrw/ogQM2H9Q//XjsunQSCe90mWfsQbJjVV/NHYFpXKRCS2EcbgXEXCIyC8BqS4on4nXFEZIzJaN8EAwkExIhU3Izyjww4AmbwEJL+/exnP6uGRvgdaTJgPCxGnYE7/vjjqwE/+eSTK+EK9bvhGRyeIgPL2DFKvE11ERNhyOQd99tvvypEYDPvvPOWQw89tBITT3KBBRaoawTB+i6SRtA8W0QjfMwgM65ImZfXLrzxM844Y9Jue8ZfVIDHpi5j5skwsAQAAYJAEZY5W2655eoP0mOMEZ+8vXEhdSKLsTMO6Qn9t9mPAYcjLAgFxKktfWxHEHhQSF67jDes9VvUAoFceeWVFW9Ewagi4ygXX3xxnRfYazsEArxFRcwHQoP5tddeW73GVVZZpaNA0C+bw1xjPuy7QMzIEEE++eSTdb+BiAGBYH4RlkgFgtWGyM5BBx1Ux94s1iI8CUSbJwlKdZtTYyOSCAURL/9qQ1TF2tEmPIOso17jgrtxu86a9TfErV8hVpoCwbo3/9Yt8WDdEL9EKfx91xo1HwQM8agYOw+cp2ttEy3m3jjdEwSFdJe1Ya22i6djzCdCPuSQQ6oQ1a71q07rzv9XXHHFWicRQGy7L2efffYaHXO/iUrpv/VKWLg3zRfszYl9TyIf+uDfT33qU3V9uGcOPPDAKvBFT6z/yy67rOJnDtxzsBDNUWcvSyeBoH5js56tF45JRKP8niURGG0Exl0gMDRuZt4NscBIIiFGUihvtMtwBAKjx4DxKJACQ8pQ6rPwJFHDePKejzjiiEpmwu7SAkLgsWEQ+SNDBo+Xu88++1QDxQvaeOONq1GVimDQ/DDQPMihCASGc6h7ELQBB95RCDKkicj03yNVPmcwhWkZzwgzd9uDIBUhFKoPSCNEjO8jeOIhBIIIguu6bRb03RAI22yzTSUG3pT1gvAQPYIj4iZHIBi3dnmUBIz8LiJH+jDuFEFoCgTkQQgKuxNjyEM9sIk9CObVWiEqCCqizhpB/sRbp30Z3fYg8ByRsKdH4ikb86JuQtVctXe2E1GEKQ/ZI6rElL5Zt/ppTtt7EGDqfiSsrE1rAtaiO8Zpnds8iaSJDWH/qNdcud7nyI1wcz8rUliIzRyJwLSLcRGURAnyhrWoEvFlnmAnYiQNBGv3iXuJGDFvNh77sW9D9IN4grVCYBMQ1g1MQiBYc9pVL0yIGuOTrhAtHMoeBOkKabemKG2PDSbG5L7oVLoJBNcah+9Kn1jno+00jbbNzfonDgLjLhDcVDxWN5nwK9LgKTA4p556aiXW0SzDEQgIjhFnwJCMPjI8cpU8GQWR6z+vhUAgBBh3Bi1IwXeFRREMz5WHpw4526YnyFgzzrx0hq/XAiE2YzJSvGupFIbR3DCWvMzJEQhEn0iCn2auXR1IAqkaJ0JGMnvuuWf1jAYqIRAi2hLXilrwrhhoRnRyBEL7KQaCDpkiMV70YAIBOUo9uY5Y5IUSj9ILjHinpxhEYtTvM323btqlk0BAlCIQCA2GTQ/W2HnlRCRh2izy8P6mTRh2EmFNgUAMWs/I2H3ZfATUnIlcIGxpImQsqmH9iAD5EXq3roXCEa52Y727TpRANIv4aO6ZIKz0z3oQLUDYijUoPcA+iDLCQFRAZEZ/RIUIBlEHqUDCxBiIFoIqIlH6RJATwa4VibBe7MUQJYvr1C1iYPy+PxSBoF/GNFghROyXSYEwGFL5eb8gMO4CoQ0EQ8HIIkWE6WYdzdILgSC3zxNrCgRGl9ghEBhcYUl5RAawuSnT2IiGNddcs4a6iSOhTl5tFDl1AkFuV6oiBAJPPjykdophciIIwv7qZ4z1RX6YgWSUhyMQIn9uDAw4bKIwxPCwwTIiCCMRCAw6chRVsI+CQJAjRkZBTN1SDJ0EAtJAMjzcwQSC1IixmneRAmIvUjCEUTeBAGNiYjCBYC2IrikiAMjMHgcb+JpryD0izC/6hKQ7CQTrj/fZ6Z0PTYGA6KQwRLsIoKaACYFgz4c5I1qE7hGzCIa6rU2PhooaEUkiYc2+EgXSYlI7zWK+1C/FQHQR2k1PmWCAp/ETcqJFxmp9iQwQz2yGvS4ErWtEm9qpAGkLbUQEoS0QRC+kNGwWHapAcN/YhzNQBMG4td2+9wODjCCMppXPuoeLwLgLBEao/WyxULocLG+FV6TICzJW3W6w4QIwFgKBwRJat7nOo5siBp2EEY9MOLr5WCKjw/AzWowyz01olZjgkcTGNPWG98sjgqlwsFw/skOc3YqIiLoQjfA6QjcHvOjBBILNd4w3g6+dCK8jXwYRgXTa96AvwxEIEb3RR6SCTIRgjRkW8snaZLCRFM9RXlqEwoaz5h4En8FIfhnOIhryzMQSzIciEIzDd4k60Q0kbP+MfgxXIBA8QuZC5xER0Fek6X4hRmJzKkFt3AgawfKem0VEyLowT1IM8QSBehQESmTFHgTEK+LFA/ckTLy/QTvC/0L92mluECQUzKW0CexEz4gAkSRpmKG+g8O614a1bp67PcIpCkNoi3TF/h79911zYa1bz/rvaZNOZagCQbSG8LSe3Xej9e6BFAjDteD5vdFEYFwFAqODwKh/N7JNVzxXO6UZF+TkZufNCKPySHlKw3kvQDcQx0IgMODIlyE2XiSPvBg4exL8bkMVQiaKePCEAmJlyHg1CAgRIgkEyDtivHnOQrDC0p5aIEaQpVAyz5nBVyeisTudJ9kuDKBrkSLCZVgRJWwGEwhIWlsIAfn6XR9Ff6RYtMuYmzspJHMp7OyxvOEIBKkX60Nu3N4DOWPhbCkabcBW1AZRGbdQMuKGI8yaAsHfzAexheSsMXUSDdbkYAIB3vLsoiHhPcOQ52/dDlcgCLWbE7l0woYoNja/2+hHjJkfwswGNsKR1y791H5viD0iUgKwhps6/c1aM2f2G1ibzU2K8CJWRRPsiyGgbMgUOdAmoWHcngTgvVu/1o9oB6+eQIADoeMdI9qVdhEFkfKwrmNzbXMtuvdFVqQmpI2kDhQhfPOjPwSNdWy9W/vxeCsij7ETaObe3hZRGlEC3xdxs1dIPUMVCPYiEFjWLow4Kdb3QPtlhmOwUyAMB7X8zmgjMK4CgdpnXEQHhA6FhOU9GR83eOyK55nyDqh3ecSBXkI0uYCNlUBglHnnNqKgdQAAIABJREFUiMw4YpMdz46BR1LGzrjabGaDH2PobwQR8mKAhV3tdEd2sTksXsADTymHEAjIESG43qYunwkHt4td6YhSe+bBfCCCoQgEddkYhywJG8afl8lDlSpi3P2dxx/vvOAhIrnhCAS7+Rl7hh52QsoIVf9hIzTsyZN4hp7QhLdNavBrCgTXeIwONjx047Y/AmH622ACAUmJdMHN2rVu42U2NqMNVyBY44QcDxp2cCR8zAfhYZe+MfmcyIxUSbyboTm/1oQUkr4gu3gBWJAsAnefNQWC1JJ1Y12o2/1m/RJBsCaIhPOJiEhDwM7nBIxUmOv1lQCOxwP133xJabT3Suiz9aF+osSa5zAoHkMkROw7cF8ooijGZG2bV6IsivUhVURIEzfmx/xaL8Sq9TdUgeD+0x+ikwCJV4x3igJOru1pXp8CYSTo5XdHC4FxFQhx8yMURo8xt3OYF9v0MBhxnixPoNub5YYLEMPB02W87ANovsRFThmhIhy5ZcYQKSDa2N3NAMdz//KhiEvhiRoTDz5C7LxtTwZIByATxtf+BQa3KXp4a3685IXHLFzdfhGODY/6xiNDJl6ywgNDxNoMzwphCt2GwdbvdtEv3pXr4KFP8OdlRv9Fe0RApA14t838MJISfkVASEr4mQBCNAyfyAejbSzadw1DK/zt8UpRDx7wQCU2KSIzHpzQdTzW6NHPZkGw9mrAz34H5ILQ7C2QX4e9fQo2wyEh5GLcQut+iCQlvEZ99kigMSML69CaQLJC2USf9SONZB54+9aFPuoLDOMFPeaBALQj3VM63d6mSVgZs3tCW7xhmGlT3xEvwov9DEGm3TC08dV9JoKDsPUJ5tYJASFqZP02382gHes49j8gdWtWQfTy/NazvTXuD2NvRqj03fyrw14Nj7AaszkY6A2Q+kicuP+kypAxEWq+Y90RJLC3HwPpsxvtcvnll9f7yL3ivhZxY1vcI8Sh8REQ/hZRSfcm4S3FEe9qMD73GsEoEiIi0+sIgnuHYGYL2veCdSiqRXTmWRnDtfT5veEgMO4CYTidzu+8tBD4939eKMcef1rZZecvlj323KOj9zlREXntq6Yu07526ona/ez3SBB4/nnPhNafF/79r/L8P58pU79ueptaynN//XN52XTTl6le/ory/D+ertdM/dppygv//U957m9/LS+bboYy1SteMZLW87uJwKAIpEAYFKK8YLwRePQ3z5bDTrqhnH32BWW5FZYbNNow3v2dnPbnme015UPzdD5NcnLqyWsnHgL/+vl95YX//re8+r1zl7+cc0Z57g+/L9Mus0IVB//48Q3lVXPOVaZZdIny1wvPK1NNPXWZfvW1y9PXXFmeffzR8pr55i/TLLFMmWqA81wmHiLZ435DIAVCv81I9ud/ECAQjj/7J+W8719cQ9TzzDvPFINSCoQpZioneyD/vPuOKgxePc8HytNXX16mWWzJ8uwjD9UIwes+umL5y9mnldcsuGh5/um/lxeefba8/C1vLf/40XXl9RtuUf55521lhrU+WV41x4tf1z3ZncgvJAIDIJACIZdH3yNAIFx925/Kb37357o/oNPLhfp+EF06mAJhos7cyPstXfDPn95Rnrn9pjLNIh8ur5x51vL3a6+oqYTXLbN8eeb2W8q/H3ygTLv0cuWF554rT193ZXn13POW1y6wSPnP478qU083fXn5m9488o5kDYlAFwRSIOTS6HsEHKvwfONshb7v8GR00Ka7qaeajC/kpVMWAi+8UF54/vmaQqj7Eeq+BO+rnrruRSgvPF/K1P//WHjHxMd1UxYKOZo+RSAFQp9OTHYrEUgEEoFEIBEYTwRSIIwn+tl2IpAIJAKJQCLQpwikQOjTicluJQKJQCKQCCQC44lACoTxRD/bTgQSgUQgEUgE+hSBFAh9OjHZrUQgEUgEEoFEYDwRSIEwnugPsW3vqPfaWq87dnBPpyN7h1jVqFzm9cFe2dtv/fIKae/S9y7+Xp8COipA9nGlXh3tdcn+jVcQ93F3+7ZrXlHtfvFq7PZR1H3b6ezYSxaBvhIIzjpw+Ir3zXt3fbz3vdez4138zndAuN1KnAznffBOH/TO9ub5A73uU7f6GBPvaPcudgbacb6OwO72Dv+x6lezHecdOHnPITj91C9HIDuJz0FYztkYj/kbj/kYjTbdL87ocB84gyHL8BBwgJqTQh10ZV326n5xFohzKYjibsU5MTPPPHPeB8Obupfkt/pGIPBMHJ7iqFlE6KQ2B6aMRnEsrlP93FTdigOHnBynDw7Xcepdr27myRnT+eefX7bbbrt6SIxDjrwoyBHHAx12Mzn19+JafXGktQNtenHSpkOWHN/rcKX28cWT01+HRDmoyQmDhEIvjwmfnH7047XE8T333FPvNcQ/WHFqpRMlYelI54lYrKsHHnigHv40knU1krGLIDg0yuFRRx99dCXsXhQHSjmAy8mX3Yp2zd942LFejDHrGHsE+kYgOM0MEfJOLPKdd965npw4GsU59k6vo7ad4udGVZxmx0NSnLbnJDmixSl1yGo8CIZg2n333evJiqusskrFZrCT+0YDs4Hq7LVAcKwvQjL/jg4ebkmB0B05RLXDDjvUkxadHDlQcWokwQzPBx98sB6FPRHLMcccU775zW9WJ2S8TkXkCFnXTqe1xp0k2YsilXbiiSfWI7MV9sKR1o6Yd+Kn4vTS5smVvWg365iyEegLgcCTRwpf+cpXKiE4fnk0BQLviThws2pb2N7vblrpBAXp+Zvcv1xheOy+G6FqR8b6XSok/iYlIFXiaNtOIW11OqpWPTPMMMOAosM1jjd2zPL9999f5pprrto3dfghWAgGKRPtOcY2SrRjnCIhbXFDGPmbPjqW2TgdAxwRAGke3mXzb91uhU4CQfv6FfV2yrfC3lG8BI8+RjHm/fffvx7DvP766w96B2rLcdLa4pnFXA0kELTtGGPtdnt1M6NrPtXZqf8+R57d5rpTx80pXM1VHCsdc+qzmJPmPHb6u/nRN/sB2tGkSJ2py1rUR+Nsrg/fRx6XXnppxW2gAkdHfDsK2hHLzUJoOI7YWm4LB/2wBpCWddTGub0G9cl1MR79sjYHWoPm3fgcsT1YCmm//farx3UjUkeoB+760Ski1+xf83ft+YF9t7XjHod9p9SkI9qlGXbZZZcaDezFq8PDlvlXEfmUmvQTIkTkoDnOWL9DuccHvQnzgikSgb4QCPfee2/ZaKONypxzzlmWWWaZer77TjvtNGoRhOZMIgrn07uxiJS555570seMIUPy3e9+t55H/6c//an2cd11162GS/if8VtxxRXL1772tXLBBReUgw8+uH6GzI877riam4+C5IVnKXsGR3jx2GOPrSHetnFjWEU0GGckb5MdkpLuYJzk+0Vc/MtIb7XVVtU7Uq+oh3CwkKp6pSd4LauvvnolIHnQLbfcsrZrTCeddFIVLMLxhx12WLntttuqQGPkeB3qNcZuocmmQPA7A3zggQcWUSFF7nO33XYrO+64Y+0Pw/md73ynigBk6Tvrrbde2X777Wu71157bR0HseIznq6c7bTTTvuim9Cc2SOy+eabV0yNAe48M2PrJBC0BwtzY57gYY58x9zr3+9+97tKiMhTG8LRokzSKMrDDz9c9tprrzrfSI2AYOi32WabrpshjYex3mOPPWr9yNrBU+ZzxhlnrHhY87xcxK1f2j7rrLNqX4488sj6d0adgDr++OOrKLIxdNNNN61Yingp5lEb2oIbIauPxrj22mtXrDbZZJMqOmFmXRFpru+U1jOf1tOee+456XP9EK7mjfvd+jQPCJjwMQ73wqOPPlrHQTxwAKxTGN9+++11DRLn9jfARl+WXnrp2k+RDZga4xxzzFHXJbwCF+kR/b3yyiuryLdnyRozrqYQggcB475zbXNduX+sB1haD3CMcvLJJ9f+7b333nUt+Z1Yfeyxx+r17nv9Mm/wNibjdO/A/Ec/+lEdz2yzzVYFvihkiG/3hXub4HJvEZi9LnA2b2eeeWZNPTQLUb7rrrvWfU3Wr/vTeobHeERJez32rK93CIy7QHCjMSpnnHFGJWj/t6GsHwSCMB0xcM4559SbDGnzVJAW4rQ5D9kydlQ4I2mfgJvuwgsvrIZDNESEgTGWA+R1IGpeg/rl2q+66qpqGJuF0UVKxAmDjkC1sfHGGxceCLJ1M7///e8vs88+e1lkkUWq8UYkjPmss85aDSrxgHBt/jzttNPKOuusU+tjQO66667q4biO0ZB2QVY8U31FGpdddlk1cvrKCHcqTYGAdIVvEZfxM8iwME5GU+oG8X7mM5+p0RpYMLpyqAhWislauPPOOyu+BJmo0gorrPA/hp84ICgZZgJGf2+55ZZqeI21LRD0BYEgdvM033zzVRGDOIxRxEIqyTXmDSkgAXXy+GCPbBGhDZDW6SyzzFLHh7AYWXsd2t6odu15QWAf+tCHal+NmQA1T1dffXWdE2sMHsQmj988SC8x5K5dcMEFK9FpT7pJX2EKT39HNshx0UUXrfXx6okf/1pjxKB+WqcIEUZEpLkgLgig9jqELWLnfV9xxRWTPidcbLJbeOGF63ybX2sNqSNCpGq9aN89/YMf/KBibe3OP//8FVNrkHOAIM3jr3/96yoMCFp9XXLJJat40a55IHzjXtJn1yNe96R7lBg56KCDqpBqilmCmgg2XrhYV9aINWVuEL9xX3TRRRU/gsMcSUVq09/09aGHHqpCy9iM6Zprrqnr3JiISHbAddpjNwha9421TQhax+5ZgsjaIuIIEX3pdekmENgm6/amm26qmFt/RI0+Gs9oiJVejy3rGzsExl0gMOLIz6KltK+//vpqKPtVILiBGOZDDjmkkgxiRTQIn0eDXBjI5ZdfvhoAoodBYsARn4iBqASPA1EJ/4meMBTtwgMhnhhoO5QZSYWxofYZKoaPIWbIGXvGkSG75JJLKqGoA8EwGMQAQUMY+D+yI0IYLnlof2MUkRKRIX3hd14SI2KcgwkEnzOYCyywwCSPlmiJOnkuDDWSldLZbLPNqtEUToYhwz6UFIPxiiyo27rRX99FVMYF87ZAQErEkPHyfokh0RnEDVMesrAvgoUHrN773vdWMtBeiDpziQi1j8DgztgiPp5u28giLsKMwESA2mWorXFEjeCJPBtz9d+6EAkxjwQDAtFf40KavE/YIX4eNhLWPySpv/pvrBFl0m9ere/w6gmxoaYYXAdb39UfQkrRH1iF6ES0cCI+rDnChWiNqIZIA29cn+AWAoEQgAEBZu1Zg7A3p0Sw8cGaYLNu3QM8eONRl3WEwAlKWCF9T/kg8nbplGIgxM2b9ec+IXi0794yVqJZ3fpFsLmfrR8iwP3ufvY3IgMm8LUGRGqsa+LcBmf3vPVFxIpauA8Qsjab95X1yJlwzUCFILEuunn83QTC5ZdfXm2O9UhQwkmkkCPg771Id4wdfWVLo43AuAoEBCR0LxcsHIZUhO37XSBQ/wyem4lhZAh5C8g29gkwarwHhpXRslGIF8/Lj1wt4ycUz6Ajs3aaYTCBoH5GMb7H02IYCBiGJwojyPAhKpvMEI3reGpCkAQND4LhJtCIASSHdBgRBMEDRbqDCQR16TcPG9kxquoTCZE6Et4XJeABws9c84YZ6fC8hyIQrB0eLwPMk0S67dIWCAiCAUcsSDKKne3zzjtvFSvmlSFn5IW/9c/8qR/OUiAIjdcc+1V4zsQfzAiWZppKGyIUxk5MRO7b33lx5kzEwJoiOo1d/YQe71XUArFGdMi6IkYIhSiEAZyRFaINgYB8Y2+HJ3f0wRxrY6gCARESMlIA1k+IHyJGn0TEiHtYIbrw3K0BREvY6hvRaA3Aj+ANgYDwRSMU61KdrvVd94k1KH0CA6LDEwjEsfVt7Ydg0U/1wF6KQmRnKALBNer3g7QJWVEIwtzf4GUduV+IL2OIAlPYGL+1ZU2JBkVUw3Vsm/uUM8EWiAIiZOMxb3Bk96IQkYQXfAYq1qT+dXuXQjeBYP0Q/MboHsySCAyEwLgKBF4Bb4yxE0VAELwIxtkNwKNi7NxUo1UG2oPQKcXAQDJiiE5/CQThSZ4TgcATVBgARtVYhNqlAkQUEHWofsZPPp7xcN3kCgRkLhUQhYHkdcESETaL0D7Shq82GRDhexEI4+Cx+C7yRuiBOaPGqPNyEVOn0kwxGAMCZki1I7/p38cff7wadgSM3C+++OL6uzSBCIg+M7Y8rKEIBORHIDCkCLrT/oi2QECQQt1InIcXhTiSMuKZI2n1IRkpB78TAoyxeULw6nA9Dz4K79ncElMzzTTTi2Dy+Kf9FYrvReEtqt94eaXEgjVP4PmOnLjx6S+P1jxIVSDF5jtCtE3AIDVCJwQC3INAiA2RKikQ5DA5AkG7BLxIiXC+QtzCwX1gT4ZQteiZdeVeQLQ+jxw3kSqtwvM33hAI+msNKuY0BIJoQTytQ0ARbTxuZGqtEKzutbjGvQQHESLrqJPN6BRB0K6Qv3uBACaIpU5EDkRMRN1CIGjbmogiJWG87gs4iBQQN/oVkRNCyRxzhNRrfwaBYDxETlsgGIO27ZsYqFhHIkfd9gV1EwhEsH6LeljvWRKBvhUIQrvCgQizSZqxY1gIDUG56Uer9EIgMN7CnN0EAuNvLLwDhNh+E52xd9pFPVgEoS0QpBUQDNFAfEVhoBhiBhpR8wQ7CQSGlUc+EoHg+0iUkCKwbMQUvuQh+ztRoBgb7Bl9ffF/5McbC4EglMyT7lSMiYgkaBB8J0JoCwR7BKQSEI6Nf1HgweAiT4Y+IkPmS58YU6TLmPPARLn8ndfcLOaRwW4LPWFd4zcvxtQu5t53jYNgRn6iIvpEfCIl3jTshN4RHcyaRZvq8W8ngYCsEdjkCgQEb8yRYmgKnJhD6474gxsx4ztI3JqzDgkm7cOAlz0SgSBtZo2LvpjL5iZgeHSbA5+FQICnxzabhWCUUhJ6t26JtIhsdBMI0ivuGVEe0QfYitCJ5MSjhdGGdRFkTozD1P2rrXbqLp5SGtBwTzXVgE9tdBMIBFpsIG1uyhwt+5r1TmwExjWCQCUL7zaLMGLs+nUTCdkzekhLvozR6WUZC4HA0xV25DWLFCBKXhYPUmiUYe30boPJFQg2oPHieHQ2TPHMY5Mgwyycy9hFrrcdQeiFQBAeN2+8JfPII+IhImcGCQELORt7PObJYPGoELeccniMPF1eP6NPgLWJF5mqm3fPIDLAwtTWlahNWyAgeJvHhKbNg/aRme8TASIf6hHpEfmwAc3GOoTEy7z11ltrzl00QLTFD48Qxjxq7ft/u59EoTnXL3Xwwl2rbfMvGhACGYkRzbxS4gduPHiFcJDakJLR30gfiMgQTITnUAWCda9PCMo+mpiL9hMAyCrC7YQRUWRdmkOfwUkhXogmpE1wISJRNBEV4zTH1gPsRiIQpPO0o0/qsV7Mk/VkDvRfuq/TI4+iaohcWi9enBXrioAhRuEg2iECFu/gCIGA2GFA7NuzYIwEkEihOVGvdUVM8c5Fb+CsX36PV5FbB8L76rP3yH3Y69JNIIhMEYoEkWgJrPSPTSBg208K9bpfWd/EQmBcBUInqDrtQRAepfiFURnbXr5FcKwEwo033jjp8TWGWUhWSNXf5bkRe7tMrkBAVIymMLkwJyPFkDEKPuO98kjjKYbREAgEXhhaIkHEwvzJRQc5iLQIo3q8lDiSExUOF9aXbuKR2jAl30xc+TeubWLEA4MbkhU+Z9xEK2BrzG2BgETURzypT9pFGJmBj0dVrS11CidLCxGw9mkgC4afALEWCQfzpm8IRZ28Rp50m2RhT3wgKNcwzvqqDn205oNohah538L58fSINhT9JzStGZtgYYWk5eutY+SEiIYSQVCfXLcx6Q8vVjudonVEWIg+qQOEglw8gSB6RuyYU9gRCNY1T9w8iBrYe2MNEK6ihiMRCNI8UmWEgYiLdqSAkC0nwrxaC51shDSZ+TdWItG/cLQGRdekAaQ21GdtRaQvBIL+i+SIGBCMQvXEAuFvPkU1CA/rIe5xUSii0Jxa07ByL2jLGrMm4uVsvaSObgLBfWbM1jWxp//SPdZQPEHSy35kXRMbgb4TCG4yXgeVG2Fgf7Nj2KY6HmovXxXK6DKUjDgPuvnqU0bChireCsOEiJAuYmD49AOJ28jkd/XEJi6kw3D4jMFmyHkp8o6IgdfHqCBydXn8rV18h4ehLp5KbMRDKHZMIwQk1iy8X16u0D0yU+LdDYwST1UYlMdnIxfDr++MGuMuzMrYB2Ex7MLGPH9h104lNsbxEHmyQqz66JFHxk9unofCOMuB6ps2EIdiXhl6uMrdIiDzzXCZl0hPtHdYmzuP//H2CBF4MXjWDsJHYAhb9CTeIIcAYGpnOiLj1fFKGX3j0zaBpY+8ZHOEOBl+xKE/DL4NaohKHfqMDAkjHn6n9YnMbGS0YdEc6bu0CMEgghFjI+h4ufDSL581BYeNnwhbH5APIrQupFt4pTaJingQ0lIb8V0kZx3DGbkqMED0Ik+Ij6Dr9GY/8+A7+iuFZI6JuNiXYE0RM3by86TdE8Sea+Tb9c8aIGxcQ4AZhzVlbVqDCuyta7v4icbI4wv1u+99Zg5EpQhRf48d/yI30h+iVERLp9391rh1RYTBH17WClHlM/e6PsFf9CPmJAQCwWCjIjzUb+6sZ/duvN9D1Ic4dY8Zu/vIPW79EKS+Z23BWTuiQ6NxkBisRMyIsXYahj2VZrF+rTeRRvMGu3yKYWITeq9733cCgcKl5hmjeFSJQRC2ZMy7PYs/XGCQipCff4V6m8aY0eApIH1EgRyQuzBkM+ctX6wgw/BceDQIRp0RWtQGokAqjCzDYIzq6vYWONeqC5nHi1bUa3e03G6nGzrebqf/CsPmsaggLngSD77r79pm1PWNwUDYcW20BfduO6YZQ2OMNwpqnwesLqkT7esvI+53nyNJAkJhRJFI0+tjXOEKMyF5BNbtzZSuc71rYWlMDLHQNuHgb7Gh0DWEnvatNfOt/uaGQ0Ql7K7/5sgcNtuPELsxRR0+H+yNdEhJX9WvDpipu51eMjdwV2f7wDL9N6+u0bZxwtV1sRaMWd+llAIzgtQ6t97ivlKXcVpj1pY57pTq0h7xg9gQu7mKNaSf2tBX8x9z6HNrwBzEvOuztIif5hqMMcLEvPjMGgySt06IoeZ6d61++4l5Um+nN0s2bUOsK983jpjXeGyR8CPkeNmBXXMPAvFoDn1mnWmzKQjVa124Z43dnMDbdfF2Vmkjop+IipdvDdd+dfte9AFmIbTiWn3UP/e7yJP7z9z3MjLb6/FkfeODQN8JhPGBIVtNBBKBgRDg0dtzwQMX4ZvSCgdEJEwkRMSsuRmz2ybF4WDAyRDlsrcKpvliouGgmN8ZKwRSIIwV0tlOIjCBEeB5C93zRoX3p7Qi/SfELuTfDvtL50gVSjXx+kdShPdFY6RV2k+ijKTe/G4iMBoIpEAYDVSzzkRgCkRASFr4v/2ehylhqFItNu550VI7rSMlZJ+GNEG8CG24Y4aftKV0ZOb7h4tifm+sEEiBMFZIZzuJQCKQCCQCicAEQiAFwgSarOxqIpAIJAKJQCIwVgikQBgrpLOdRCARSAQSgURgAiGQAmECTVZ2NRFIBBKBRCARGCsEUiCMFdLZTiKQCCQCiUAiMIEQSIEwgSYru5oIJAKJQCKQCIwVAikQxgrpbCcRSAQSgUQgEZhACKRAGOXJ8jrbbq9RHo2mtedQmquvvrq+GtrxyQ71GeviNcBOJnSegNfJjgQDh9s4b8E7773tLksi0EbAK5qdP+AVyUsttdSI1pszCrxy2Xke6nqpFK+0draJ1247cyZeEf9SGX+O838RGHeB4N3ujklFZs3i0CRHALdPxuvVJHoznOOE4xwF71P3/vc4RXAkhKaP3nfuoCOHBTkYySE5vTxkqhsO2nSAjJe7eJe9N8Ah6rF+z7p3vXuNrIOWnFg3kvadmuetcw76cRR0lkSgjQBSn3/++euBSw5NG8m9Row6ZtwbFdmgiV6cVeHsB29xZJfYBeeGEFOOeI4zVpxW6aAv5494DbSzJrK8tBEYd4HgZDqnNnpLWfMwIKe8Ofmw0+ExvZgyp/rxbL0dzkElBIoDWxxq40hbZ70PldS8ge2AAw6oJwIus8wytXsO5mFoHG/rqF+vVx1qfSMZnz7wfrTthD/GYTxudIfoeCOdU+wccDOSsRMIDDaBQGyNRXFgj9MHGUwnCGbpLQIcAyS04IIL1qOQR1oIBKdxEgjOihiJQHC8t5MeCQSnOo5FcbqikykJ6uY5EL1o2+F37h9RRW/BFGUU4eMkOZaagHdgE4HgfuWUORp+POxGL8abdfQOgb4QCEjUUcHNs+i98300DzIJgeA0N0fwumEc78xjcOqczx3tGsUJhE5no67bx7M6Alfo+/DDD3/R+9XdgA6BcRJjHJ8c9VHyyJso6nQ0bbcpJmS8rlUf2kbQjb/yyiuXyy67rIqdgcRVM/VBFAkrDhSt0VdRlaG+HrYtEIxX37udCGm8xqXoRzOC00kgNPtvbpxK18RSW+ZrIHx9x3c7hVK33XbbemS1Y4Z5WoMV/VGXf81NpwiUNWbOOh3v63tKHBvsd32PetRNdLZP5nNdGwvX+m4nkoSLufSZuWz3M+rSlutg01yf5jFOKey0bmNd+2yguXYsMjIiYh053alEW9bDYAKzLRD031i6rVefWW/62V73nQRCE2Pfg6O6AwPtwb35t/aYYp12Wm+ifs58OOaYY+rR8r0sIRA4MkSvsTjW3VHi2nQsOMemLRBEGcJGjTSi2svxZF1jh0BfCAQq/Ygjjigf+9jHxmzkIRB4ubfddltt100u7+hYW4e3fPzjH69HT1PeDBDSdXStvDrScESwCMhVV11VGBXGTpiTINhODNLPAAAgAElEQVRiiy3KfffdV4+O5SF5x7ubzNG5jKMbM45Afv/731/PYxdF6VbcqPKD6nTELsGhLSkR5E6IiLg4TMbvIiA8AJ/POuusL6pW2/qsvz/84Q+LHL/jrOVb40AeX2AEjdv41alI/RBD+jyQsAmBwEMxrzA2BjjYF9H0TuSPzz333PLQQw9V4yWiIyUj5aO0BYLrpVJ8juQJO0Y76vY5LBwR7Brz6B360V/pjyuuuKLccccddT4c+2vciy66aD0G9+STT67z6Rhr8+KEP2Mw750MpTSV9h555JEawnXMsjlnYK2pn/zkJ3XOrSVzxUOEfRzHjHCl2eabb75KMk4P9L0FFlig9p1naV+JeffdtddeexI28HF8sBMCHVtN7BqDY49hHyLX2vWZvvhcP3wm1xxnD5gj1wg7Iw056WWXXbbOl7m78MILy5133lnvA/NH0MNEXcatn+bKMc8EiPGsu+66LxKqrrP+3O+ELGytJ0cib7DBBhUzeKjHPaqvhO68885bI37dRG8IBCk17Zpb69c9Yu7iiGt4WcsXXHBBJURrwhqx3qwDpS0QHJ9tfvXBHNxwww11fkQs4Kce69Fn7jV/YwNirViPxuo8ByLRZ3D1fWv06KOPrvU7o4HAj/WvvV6UEAjuL/bDfMGG3ZVmPfTQQ2ukLASCuROJvPfee+tx2sZkHTaPD+9Fv7KO/kegLwSCCILFyuAwPEh4tEsngeAGXX311asBYywRjvCb41+F5hgvhsjN5cZiqB2Be/HFF1dyYGAY5oUXXrgce+yxVWS4hkhYa621KpnZSMU4Mh4MgZuS0dxoo41qaLRpyAIDRkVelUDgfYqshBFmVKU3GERRGNEMpDfPPPNUMhERYSSbRd/0WxqH8WMg9Z9A4cEgS/27+eaby0477VR++ctfVqPGcLvO+L761a9WQu1WQiDAgycpUoNIYWdfxq677lrHYq8EMjUf+qtdhtTJecQXjNoCwRzYkxCHB/HaREH8rLTSSlVoPPHEE1VEMY4MNgJ2QA5y+/rXv15FAEJFjsY5++yzl3322acKCeHlW265pfZN+9ajY44RZVsUITBzq8/qInD0i3eMuBGtf+HMwCIRBwMtscQStU9I2t/MqR/j12/iBBkia+MhgPRHe04dtP4immD82ibytG+etIeECEa4ykFbH8gBKVs/+rn55pvXuhQhf/Md68G9iFyldfRVNEXfrAXeqPmzlpdeeumK9/bbb1/vGwRtzfqbdJe5jGL+rWPz73N9hrE29VWb9syYe/cFQRrrBs7un04lBII5Vcy1tYrspAyF7o0dIUtVSXGYD4Ls7rvvriJF+77XFghy974faUi4iw4SCQS4MZtDeBADG264YcXL2Pzf72effXadB/eY9UZgG6d50x94EmGw8D12pxlRHYk97CQQ9N+JkubUfBhHCAS2RJTDeKx3+LtHpUrbB1mNpF/53f5HoC8EAiNlQQr1uaEpZ6QnPzlaJQQCg0qgMBxUvpsdEZx22mnV2PKoGGBGj4EhHkQH3LyIxt9EHIKEhAr9jXEnEPzdfgDGjaFHruryXQYKqbnGTShFscYaa/zPkBksIW8k5neRC94aomDoRQEYYeTn+zwchskNDtd2eJYIQGCM6VlnnVWFgr4iB3UKPTLOjKLx+z8DgrzkJpGl/iC+duokOh8CgbFzHW8WwSFGhlIfCDBG0lwjF6KFQYINUiJutNUWCMiYQOBpyxMTVuaTFwRjXi1Rhih937zy4Akl3+GlEW7qhyWDiAiJLWPVB4KM1867En4Ng9meHOSjr9YwArZ+edoIg1cKQ/UjHxEaJHDYYYfVsLrrebz6SUhZM4RyEBihZu5gZ41ah55IgSkyN07FenMdrw/xIjCC01hhDyNrQurMunU98oSX6BGhoBCOcNUPEZ1Y8+4J1xLJ1p9+wBNG1o7xGiMxo31rA4baI5r1t1mIHREc/YKtNQA37RJU2jIGaxIuBOo222xTox+iWdpplxAI5tP6EW1AeP51z7m3eML6BzsRNnNmTcOIgEKA2mkLBDjCxbozZ/onaqX/7lv98X1rHukSlzx1YsPata583xq3jox9k002qf93PeGhXRjar2NeYdarDdohEMyjPRrEmyO7RRG1RbxwTEIg6B+RbF7YRZhZP65vOxujZZ+z3v5AYNwFAuXshmUcEAjD40bkUQi7MVKjUUIg8Oa0zWgx1G5cIb/mzcnzj7wjY4XI3OjUNyPQbQ9CWyDw1HgTvG9GNIrwJJHghmR0m4ROpOgTweIGRRpRkBNyRWpuYoZG6JoR1eduedsQCOecc04VFIwkPGxk4sHYMIXIGH8pF16bcSrGz5swftcxyNqKQpTwuHm6vA2khWRhbCwE1O23316OOuqommu1ARCZXnLJJZPC5jxL4VeiBDbdBAIS4f0wpkiOwVYP4ycSoD3E/PnPf74SDy9RlAARwk36QCGsCKPwiAmxoexBMG4RAMSARJp7VtQrz0sQIWvkI4qiMNRw4ImLZCBTRMjzJB4ijM7LNDbzFfeBsSBkhBf9R/g+N/ZI3RCyjL/NscgLAcf+AJ6vtULowpdIhWUIBN6rKE9ES2AFN9EA0YLADFFqB4m4Z63NxRZbrK5HUYrmHor2PdxtD4I1jeCRlmheFMRJPBG2EfFo1hkCAeESfto2r0QAEoehqBpRjAyJgIg2ENmwMieu6yYQzJd9KQrS1RdzSayLDMBX2/Ay9+4fwo4dcA/E3gLRHfea6Ii/68dgexCMBa7x1FU3m0j8EqbNez8EAuJ3b5p/IsF8uQ85KkoIBPc+x0FEy5hEiawHdiU2YY+GTc46+w+BcRcIbUiQNMXNe0OWFPtolBAIDCOBgrT8i9i0zSNHMG5IhpeC9pnQnPCk8DpvenIEgqc1eORIi2cThXFloBgcRrCZZ3Uju+GlMcKQx/cYbOTjewhjcgWCyEc8521M6uEd8r6RNA+fh+vRwjA4vELGgrBjRBhAnl0UAgXBIM/2UwzwROLGIm1jzASJMTLesamOAZMnZsAQBfybTzFEBIF3euKJJ1ZyIzJ4hTFXjK9ijhAZMSRKwBCL6Pg8oh+MoHGZc9EAhn0oAoEoQcz6S2gi6mYh6IgSdfIWY3yiHPqkz8ieGCUQRBsQRmAtWoCkrcsw4oiaMCPagkC1u9BCC1VxHcKWoDWXriEQYI8gCCWpNPcZUhVpig2tIRAQQQgB80h8ImiCJdIaMPNdaw4BxWPDp556ah2n9U2c8N47ecKdBII+EUD6Yf0FgcPUngFzJ21i/tql01MMUm3Wr/VJzJtXBGkMBGRzvREJ7jNkqP7mUwwRQbAnBPaK/UPmUN3ajg2ZRL45IlLhRSBbk8RFRFJgau2YX/eWe2AwgWB9Got+DlTs+RCtaGIeAsF9Y2zuLRjbYyCSFU9YdXuKwT1mbXLYiNLcsDgajNSfdfadQAATUhBWtSgR32iU9h4EN63IAYJ24/JMGT3eAC+PoeftUtduFOHK4QgERtqYeMdRhBZ5XiITQuLNnepEgZuekUEozf0ZblxeoNQAQzMSgSDUzOAxLAQCL0eqhxiIVIr+IhfXMTqugyNyjML7ZsQZ504CQTqAsScQkAeiRl7CvM1xM0JIEVF1iyA0BYK5IhCID2JuIIHgGkax/fgiI24eGPIQCMiZ6OlUbOJTB4EAj/aufWLQd0WNzG0QP6wZcWvOOvP3TgIhXvjTFAhCxNbdYAIBHqI7UinWr5w+7KXtRDWII/Nn7bmWKO0mEOBKIPDupRmaxXqMxxRFEogi4zbHvGr3VDPqFd8NgWCzL1GkuLcIKeNFYrFJ1WfuOaRN8Bj/UAWCe4OXTyBYT6I4CBnZNueLWCCICf9uEYSmQDBWgrotEHj5nJoQCKJ/9jBwetqbhQkW7RFygwkE9whRYs9Et+KeMR/tjZztPQjGSgTqv3s05qqbQLB22GJppxQIo8FG/VtnXwoEhoyX7V/EEYpdWLvTY17DgbfTJkU3kpC7/KGbmvfGc9UmMmaw3ET+JhwdAkE+khFk6BBLKOx2igHRSi8QAaIjEcIV5mOweJpu2uZGOIZB+FuKgccuFaHw4BhMHo1+uKaXAoGx5mURSwRNEC6vA0aMqTmKnd/tOej0HgRjaQoEmBEhvCmh226bHnspEIT6zROsGe9u3hCiYhDNTTPa0xynORD5iChThJAZcWNi0JG8PS3m3iZXBTnyLI1fSkE9IxUIyIawNi+KtYKUrBHi0bohTnm75pWoEX3ynYEEgrqE9HnF1oGQ/WDF3FuXxLZ17rvtQsQRScQKEaFYH+4NWPkb0oy17u+8XWJLlGE4AkGEyD3MjvCkpbE6lV4JBNElosq9S/SIYHVbb6KLRIX1FtGbwXAe6uedNimKhormGSuRanNvCoShIvrSuW5cBQIjxfjykL1GVxFyRaK8DzexMDQCtomH94IsJue9Ad2mspNAYKgjnMpLdtNSzjxFHgyvi7HlabmJQyDwIpADIuApIgieaFsguAGNh2pHlIyjHC4vR76PcRAqbhfGnjHlESI3j7TBCckJL9uFzTPqpUDg1Rq7MSAZxEA0MPbmg6fk7+2wevR9KAJBPhNBGj8DJX9rbMLLNhYSDzbV9VIgSCXJ09ooicDMgcgMz5f35XEuYzc+P9YBL9yc8TzbBt5ajXd4IANr0zwiId4+DAkCYxQVIyZ8h+duHVkzQvwjFQjahSejb/1p13whWveYHwIBGRAtvEJELCI0UIrBfCJzolgqyHzZlCeFYVzWHCEiXWVdEB32QRh7ROSIhHYxD9HHeERQNAZJWuvSDdpC4up23xmPtQ6r4QgEG+ykAIhEuNuvYK+EaIU23Hvu214JBPVZx/Cxlt07/iZdIMoiomDOePTsjv0P+uRvhEyv3gPTSSAQY9aAdtmkeOyz04uSMoLw0hEE7ZGOu0DgVQlHN18UI0QmBB2hS6FQxsTmIuHZbqQ0OdNIIAhXxmNu8V2bixhAnrGb2E2LlOMlPkSC/vEceQX2ILgBEajNigpPmKHjFctr2ivAg2NM1YcIbciMMTMEjLVrO4kfQoqRhUm8khpREUzEQ4gKnyE/xo6B7fY2Of1GfEgxzmnwWJ3oB2x5PMaJxBADTKKvwrI20zF24RF3wp2HIods3ggZpKsO4WriRvSBB63PiBNxEWhRtIMUkIWUgH+tB3/jBeu/+om0eOwMQUvFIK4IT/NkpUngBBskI88sddScA1i5DoFIs9gngJzgqPBeGc82plJAwq7y1NF/18CHCDQX6rVuA0PrR/+ROdHHg7cOCa7mWycRhXm2ZqRuFORmTPoTaSpzJqJFVEe6xzqK+oyHkRelMmZ1woyotI9AtEOfhOGN0bpvnkFgXMiaEDLeGIc2rAXfE4nwe2CgDTl44q5TlEk/tGVefIdgIxQIRHMjUuCeixcUuUcIKptmOxWRLQIA7vGqZX31OzFCrPjc/HNIEHezr2yLvTPWIsfEeiPqRC5EE82X7xurIsXgfuEcsCWRrtBv4ohYcl8Sn+5t6z2wg401Yi7NiXtDG1JzYWfsG5EG60WJDZXWtH0IYT89yaINY7D5WNscsXjVctzf+hJz5R7KPQi9mJWJUce4CgQQ8WB4NrxrNwrDbhE2X6TjZnTTxktvegGtG5dBYlSb+wEYJBut/IvUGUFEysi4lnhgZBg4BMcwuFb/EZlog+iCHzegTWHyrDwVRd4ZwREQxs4bQjAM42DFd/QDHrxZXmHT+OoHg8wDR+zdbmQpFF6hcYeXwotErIwHrz02OanLY5R2aquPt4G4Or0NsNl/xCr3LeQtuhJ9ETEhRtQRbTNM2iBIwpu2P8GPNcHrtkaIMkYXxsQYjx/OroGr58tt4iL8YkOYzZeMNWIJ0eBaRp1RNj4kTQzwHmOPByzlrs09Yy6KEHPYnqd4iZCNm/BDruqKYh2YO59bL9YQTMJQ8/ilsHjQPguseHUEFOKIvDKx5sfai7SPeuwtELlA7gSl8LYxh+A0HiIGFgphCDceuVC+382xz0VRmhsEYxwwU4f5ECExt/oBMxgYo0f8jId3zEvv9hisOnnS1ityUpf7Ld58aJ34cY8Q4SJM8Z6MboLURlTrQyoBhnAwx9qx3uIdIxwS6w2OSJutEcEkAMz1/2PvPqD2qqq8gZ8kdBJAQJERUAapFhQ+kABBOqENRbpKExQdAREGGJQyWEAEKSIgOEiHRZPee9GgMCKIIFaGjjKACQmkfut3nJ25XO/z1udtec9ZKyvJ89zn3HP22Wf//3vvc++2XgiEz+iFVJGcPZkEoaazZGUvVp8a8CIpMqAvcT/yMBd7N/a89TLW6sFF+qtPe0vUoV0RBJEfRNW8604I+2Q/up+5uz9dsK9iLZBbtsEa1M+gdGazyvdDWwIDThCGtvjK6IsEBl4CTU8xDPyoygiKBIoEhroECkEY6itYxj/sJVAIwrBXgSKAIoE+kUAhCH0i1tJpkUD/SUDOWzjaOZh2HODtv5GXOxUJFAkMZgkUgjCYV6eMrUigCxJwTkHOvZCDLgirXFIkUCTQZQkUgtBlUZULiwSKBIoEigSKBIaPBApBGD5rXWZaJFAkUCRQJFAk0GUJFILQZVGVC4sEigSKBIoEigSGjwQKQRg+a11mWiRQJFAkUCRQJNBlCRSC0GVRlQuLBIoEigSKBIoEho8ECkEYPmtdZlokUCRQJFAkUCTQZQkUgtBlUQ3eC70aVnEkr0j1zv54fevgHXEZWZFAkUCRQJHAYJfAoCEI3neuRoF343t3uRe/eF95RwWB2iVc4Ko2gffdK7Q0lABWvQBFdLxP3bvTvY9fHYBqHQbvUvfOdbUM2l1Ktl1rMFj7UUhJjQjFp9QdUI+jtCKBIoEigeEggQEnCIrIKB6kgpuqYoqnIAiKGKn8p7paXzYV3VSUU3kPMVC5DDEZKk3BJYVnVJ9TwGmTTTaZXfkv5qDioap2iuGo5NjVpnCSAjzkokhTZwWautpvb6+zZorfqE6nKE5fjkuRGrqBuKrspzplaUUCRQJFAsNBAgNOEFQaU2FMlTjlaZUfZfBV4QN4Kqz1ZVPZD8gozczrVoIVILQqldyXY+lu38gVIuUPIFe+19v06m/UU+FQdTrVEVW662oTlTjwwANzxcjvfOc7g8Z7RiCBtaqbyKV590VTsU9ZZffytkIVB5XLLeVu+0Lapc8igSKBwSaBAScIN998cy4vq966KELUVe8vQSkFq4yv8DuyoCErUerU/wEFgFAC2fUACnnxfyDt/0oQR+TDb6tldv1W+eNnn302g4vfLrDAAp2+Gle5WmV0X3755QyCUiAK8+hDn77z+QorrJA9at/F91X58bhdi3g5p+D/5uTfmhSLyI1ytq4xdtdI+URk4nvf+14uX2vOMTfj0495SQkpAYxYBYD6Tj/uoya9MTsjEf37vXK5xkYmxl4lN74X4n/llVcyCTJX/RuriMi5556b/vznP+fP3SPm0y7dMS+klV74N8KkfLBoSjRjtLbWXBqCHigr3d963K45l36KBIoEigRCAgNOEKQQHnzwwfSDH/wg12wHsoxtX4aNq8uPlJxyyilJwRv12s8777wcsncWIdp2222X89BqprsWuP/oRz9KW221Vbr99tuzhwkANcAAvPbee+98nQOE3/3ud9NPfvKTDJbAZpFFFsnpE/21AhLnBk488cR03XXX5d+QCyIjwiGNcMkll+R/6x9oLrzwwvnzE044IQNUtelDIR8kzHkFNesBP4944sSJeQ6ATq138thyyy1z/XeRFd/rH/gjB7fddlv68Ic/nJ588sn0rW99K/8WMCNK6sWb1/LLL59BU/ThV7/6VVpiiSXyGQ9E4Iorrkgbb7xxuuGGG3JU4rnnnsuEwvj333//tPvuu6eFFloog+0RRxyR5eb+yMbOO++cDj/88Jx2cvbCZ84E0JcvfelL6Wtf+1pbdzY9sPYHHXRQJi/6l2I47bTTZpOgM844Ix1yyCF53M55vPDCC+nII4/MOlFakUCRQJHAUJbAgBOElVZaKRt6nhpQ4TE6mLj66quncePGZWDqqya9IYUBpK+++uoMioceemgGSEQhmgiHED0PXh6ftww4AN748ePTiiuumPbYY49MCJxnuOuuu/JZhl122SX/m6f7gQ98IK288srZGz7//PPznK+//vp/OC/gnvrdYYcdclTAfYwR8BgTkD777LOzR228wOs973lPOvjgg3NfSBaArTZzI19/vv3tb+ezHgjCo48+mj72sY+lbbfdNnu+l112WU4niOogBkjb5ZdfngmNcZg/ILROX/3qV3OkZZ999snzMtaLL744j/v444/PkQCERBpAn1tvvXUG8l133TXLABl4//vfn1NKCAbigLgAXPInR2NECjbddNMcKRBJAb5IAxk89NBD6eijj87zlT4ZO3Zs21RFtEPfF110UT74KUrjbMp73/vedOedd+Zoi3bqqafmNRDFoK90wUFQZKm0IoEigSKBoSyBAScIPEeAA0SAKE9NGJchPuqoo7K32Fc5X94vQ87bP+uss7I3Dgh5tXLbxqAhCMCcBxmHGX2+1157ZQAEwK4xTqDJQwbUvOTXX389gy1ACU+Ylw6ozRMRqjfjAqjbb7999laRAdEHgM1bBUi8d58hJUCJp97q3EQrgiBU/+Mf/ziDK48d6F966aX58J9owlNPPZX23Xff/O/vf//7OcWgmdcXvvCFTBb+4z/+I5OWF198MX3lK1/Jnj0ZWFcE4aqrrsoyO+CAAzLZIwuRD2TEvclJA7rIBgKBBABeERQgzWt3j0mTJuUDk6IpxiqKgzg1PVlANvfee28+XNhRE+2opgziWuTR2iy77LJZN6RArIdIiDUR/QmCYCyIos9FebS+0tmhbGzK2IsEigSGlgQGnCAAOMYXGHz0ox/Nniew46kL4TPOPOS+aHvuuWcO1V9zzTVpiy22yDlygMjD5zXyuKsEAQgGaRD2B6zGCjji0UjeP0DmzT/xxBN5PqIid999d5I2kO/nbfP+HSxcZ511/mFq0h3SEjxxIBuNB83r5qWffvrpGXB7QxCAGQ85UgQIGfIisiCN0EQQpBI8CSGkb+xIHTCUohCZQC78sWbG7jNrGN69MxwA39x53IiEhqBINQFaREi+X+RAdMDaIHFrrLFGvrYrBEGERopElKGj5hqyrDfpAnKWJkGCkC/ESLQFOfjhD3+Y02CIjLQHuSFIpRUJFAkUCcwpEhhwgiCdIGcOVIGfBoTkx3nOQsnSEO1uzgx4rl3UwP15qJpQOxBfb731cnoAwEcEgccNkOM6oAf0AWXVe+e9ArOTTjop/fGPf8xEQz5biF16wuODyEYrggBAedhICo86Gu8bmQKiQE3ovzcEQdhc2iIO9wFCkQlRgFVXXbWRICBGzmFIxSB0xhDesnWznsDTuBAEp/4RhIiUkLvIA2Ll/nEGw281KQWRGeshAuBMg/Mf5Cuv709XCIL+EBXv1+ioWXsyrTcEFXEUNTFHDYG0nuaCJHkiBEEwRjIJQtluXS39FQkUCRQJDIQEBpwgOAzIe/SsPo9SA0LC5rxTYWSers+ARP0Rvp4KjYEHcsChDhATJkzIAIe0CD83EQQkwNiBFyAy1npzjYN4gBeI+COFIlwvLA0AmyIIfiOK4EChlEIAMK8aWRLlAEjk0U6C4J7C/3WCIP2DkCBsmjMVSAxy4ZxF05qIpDQRBFEQ5w/+8Ic/5PTMKqus0uESSj/ddNNNWQ7InMdfyZr8rKEUQ6Q+eqoL9d/p0z0Qg3oKCMHxvcOgDn5ay0IQ2iX50k+RQJHAYJLAgBMEYW3Pmn/5y1/O4VzeLEDgjX32s5/N3/G4vadA2Fo4v7f5XblsOXT5cTllqYJqky9HWBAI+XBhZWcQqhEE1wspAwhnE4Tc5cIBIxARGhct4PFKn4hGIEA8UOcPpDFEFZoIgs9FCZATjxfKgyNRwNsBPX+7H9LUlwQB8UEEhOsRNXMCxoiNz0V5ACUw5bHHI6DLLbdcHlsTQSBDv+F5IyQOKQJia+JRQk88iEJIw0g/6FvEQNSBDiAvPHdPiujDWKRD3L9d70OgcwgJEiLVU23OSkh9ORuDyEnRFIIwmExaGUuRQJFAuyQw4ASBRyjXCwABKA/bEwPSDYDVifArr7wyPyUg/+/63j7vLi8db8QDOPX+5OCRho022ih7y8hEE0GQowdwgM1hO4QA0HkEUGoAQPKyEQ1gKu3gN+4plYE0NBEE+Xwn+M3b70QNgC9w8lIpaQBRj74mCFItwE+6A2ERsRANQRLk3JEocpIqANA8fNEe47OOTQTBdeYPfL3ASZpHZMJhTukasgLAIhPekWD+ogjkTyc8Zok4OKeAfCEHnqKQ7pGa6G1DYJx5cIDUORGvra420QPpB+keJE+aqBCE3kq9/L5IoEhgMEpgwAmCvK5T7x5zc6jPwTuAKBctxw1o5LGBDk/a371NM/BOI6URp9Gri2NMHhsMkDM2h+2ExH0WDdg99thjORWBVAA53rBxi34ATiAnUuHRQd97VM48PNIHDF3T1Jy+B4o8ZKDEe/d0hGiGvLkoihSG+3hCglfeKrJi7FIEHh9Exjwy6JyApxOQnzg/YR5ICc/Yd/r3WyQJ6UHQeNeIkPE5tCfaIWLifIWDmcYH9MnGUwru5R7VFIyIhJcwuZ+1RUREhzzOyTMnH/Mmb6kIhwHjO4RAc4bDGrrO9yJOUkG9bYgq4kGWojf193EgKx7BvOOOO/L6IW5BIkudi95Kv/y+SKBIYDBJYMAJAmEAIoaXR8wwA+HqC4R8z7Pj6bfjDXXx9jsH4eJwYn1RPOYG5ACfELffeA9AUwN48dZA5EWf1TcxmpfUg3nE2wzjhVAdvdLZ7/Tr3vo19ypBMRYRC9/F4cmm8dXnG/L2u+o4jcmf6lse41qfG6unNYKIVMcX66wGjWUAACAASURBVGZ+MSdr6vfVN0tWyZW56dc1fhPrEeSHzEIn9Fsdq370rw/XN8mmJxvNWKx9RzI1Zvd1TzoSb1Ksr01P7l9+UyRQJFAkMFgkMCgIwmARRhlHkQAJTHvl5TTqf182NXnCA5kELLjWuDTtuf9Ob064P43ZaHwaMc+8adI9t6d5V1wlzbfKR9LkhyekGa/+NS247vppxv+8mqa/+pe0wOr/90rmItkigSKBIoGhJoFCEIbaipXx9rkEXv3RGWnmmxPTfB/+WPrbDVd761Eas+lW6fVLz0vzfWjVNPPtKWmuRRdP01/9a5r6x9+lxf/1q+l/zj0rjVrkXWm+VVdLk3/2QHrXp/dMC6z5zvMLfT7wcoMigSKBIoE2SqAQhDYKs3Q1Z0hgxhuvpVfP+UEmBgt+Yp3896T7705zLbZ4WmTHT6fXLvzPNGv69LTwp3ZJbz5wTyYJ86+2Zpp7qWXSxFtvSCPHjEmL71demjRnaEOZRZHA8JVAIQjDd+3LzDuQwMw3J6UZr/1PmmsJr9sekaa//GIatejiaeT886cZr7+WCcJciy2WZk6dlqa/9EKa+5/el9LIUWn6X15JI0ePTqPGvLMeRhF2kUCRQJHAUJNAIQhDbcXKeIsEigSKBIoEigT6QQKFIPSDkMstigSKBIoEigSKBIaaBApBGGorVsZbJFAkUCRQJFAk0A8SKAShH4RcblEkUCRQJFAkUCQw1CRQCMJQW7Ey3iKBIoEigSKBIoF+kEAhCP0g5HKLIoHhJAFFvm6//fa06aabJoW7SisSKBIYmhIoBKGTdfMWvd5Wj+ytanjvv6JP6g+oN6Da5ECPqTtzOuuss9Ldd9+dKx+W1xF3R3J9e61S5SpibrPNNrlKaruaIl3qZKg8qhCXmhYqnyrs1S69VePjzDPPzMXB1OFoV7/tkkHpp3sS8Ep1Ng65VKiuWrulez2Vq9spgQElCGoE7Ljjjvl9/E1NuWMloFXva2dTBEmBnVb3dS8V+9QGUIZa5UDVBTuqm9DO8VX7UlHQhlH0SUEjlQsvueSSljUk+mocvelXlUWVD1VAVIyrN40hUVBJXYyO6k/05h7D5beKZSmkte++++YS5O1oCnchHK+88kouba50uwJhKoL6u11AriKofbHKKqtkYOltAbd2zH2w96HGyN/+9rdcUK5e16Svxu5+SsWrRNuq0YkzzjgjV4r91a9+lTgUitqVNvASGFCCAKAZE0Sh2oCh6oi+o1y8kHY2no1Kg+6rOI/qjprSwlGQyb1VLzzllFNyZcfNN998QAgCD0854dNOOy2XM/7LX/6SxzWUWjsJwm9+85v0b//2b9lrtEal9VwCfUEQLrjggrw+SMc3v/nNHEUoBKHna9TOX1577bW5quvhhx+eS9n3R1PBVuVYVVc1hEH1XhVoVb2NhiB84xvfKAShPxalG/cYUIJgnDwNXmG1ffe7303nnHNOBuajjjoqV3FsZ1N9T3VI6QP3jvCq+yo1rfF0kYeXX345LbHEErM9X5+FF/TGG2/kfyvFHJ9h6YgPlt7U3FOVQn/zgDvyqFzDyB599NG5rHSUOva5P7wmVQV55u5XlZP5uY/qi3VvwW819w5ZiNLE75W7trGrn9XnYo76r8691RpVCYKxMBKiM63mT8avvfZa7rueknjggQeSssrC1lIt0WJdqvKsyqk6NtfWPc6oLGndW3mjfkcuxlXXyapMyYZuLLrool0ilX5LJu5bvX91/Pp0jXtHBdIYjzVuVZXUNSp+1iuMkkcTQWglM59bk47uRQ+RA+WwH3zwwezdd0QQyJwOdbRX9GmP1nWhVQShrgex3+wH5L+V50znq3Jq2pcd6WUr3e9ovzfprH5a6TKdsmea1jp02jzIrOk6e0aJcoD9uc997h+GbC3YA2vcrlSg+bOJ+taUeVe2XuT4+9///uwx0HvR2hJBaCfS9b6vAScI9Sm8+uqradVVV80KeuWVV6bVV1+997PsoAfGh8JSZDlNUYRojNx3vvOd7MGvtdZaeePZWBtssEH+t7MBohDrrbde9mgx44svvjiDyIorrpi++tWv5r+jOUNw4okn5k1iIy+zzDKZBFXvGdcyBhi1dMjTTz+d7/mud70rbyIb7tJLL83EJkL3NpyQ64QJE/IYeNrmxvi6buedd87liclXyoQBQQCAhP4QI7ljRlu0Qqh4ySWXTHvssUfaZJNNZgMikHKW4JZbbskyMCb9S8G0InJBEIyNjP/0pz/l+++2227v+B0jcsUVV6TrrrsuR0qMffz48fka9znmmGPy4bef/exnGXzkn6Vc5Leti4jCnnvumUtqA1TGkB7tv//+WdbazTffnGVGVp/85CfzWiGG8vHm/r73vS+v5bhx42avG/lceOGFOVwewB95e6Djd8KiyC453nDDDfm8CC9p9913T5tttllLomAu5P3SSy/la+iSNUYuGPLf/va3abXVVsvjfvbZZ3Oaab/99ss5Wvd85JFHsiytwWc/+9l3gAfdoSf6tjYf/OAHs77FwcE6QUAA3PO+++5Lxx57bA7zkuNtt92WUwTPPfdcvte6666b5Y04VxsZkquIn71L35oIghQRHbKWdGixxRbLgCHSYJz2onsiGnQF+L373e/OEbQtt9wy37JOEOi6+Ui/0dltt902OafA0RCNpFvIgYOTxhipLvfyO+OhC+7vOgTBmYmvf/3rGTRdc80112SHwb7RD/21Tq3aCy+8kE466aTG/W7dRAfZFdGWAOTf/e536eSTT86y5RiwL9aD/pkPcrDGGmvkOdBVzX4Rufn0pz+drwWy9oC986UvfSkTH3uebJ566qnsudsP9JJ+kgG7RBfJkd6KMlQ9/HYZYY4OfXZfad5oZMz+FILQLkm3p59BRxCEwHiGlF1usa/z/h0RBEYOsPqbwZH6WGqppbLhMy7ATuFtMMYXKAj/M3o2s3MMUiQYOWBhDICIsxWMkIN7Nvz999+fVlhhhXesKGNlk954443ZMH/sYx/LhonBAho8NcaaZ/T+978/p0COPPLItOuuu+aNDvzcw7+NR3iR5/38889no+Fsg3EDWTJAQj7ykY/kcQI8nz/00EMZJKzJxz/+8UxqkCUgYu7AkCH3e8ZMv00tCAKQN99ll102ExiGH5nZeuutcx+AUi4cMQFCjCiDZl5AHmgxhn5rzgyZ8R1xxBFp7Nixefz6AJ6IECPI0AJSBl1DIBAVIU0AQG6//OUvs9F1rbUwf2ujP/9G1MjAPV0HnAAX468/Ywfql19+eQYYIG4OCCOCCwiseb3RkS222CIBEuBozPrVD30wZ4f9GHt90iNgZxzIE31bfvnl8zoBCx4iPdUAArnQAYYeSQA+1hVoI65VgkDGyBsZm+NVV12VQdS1xuHedEof5r/33nvn6FZ4/3QJSNEBniG5iIjUCQJ5HnbYYXlvG5d50nH7yb0RD/MyBtciav62ZtrDDz+c9adOEOghYkAn7LkAIX3bO/blXXfdlfeL+xx00EGzwdVYzQ8R1u8TTzyRZfyZz3wm6x59R06tARkgQq6xP/XTdK6mut/te2vo/taDjgFtsjIeezT6QAQOOeSQtM8++2T52qeIHwKBPNIVv6cviATiFJGB2F/0/vHHH88ydQ3yyNFBEJBM+4M82CdnUOgJsLYfkEckw9mvVvu5N9BTCEJvpNf/vx1UBAEoYrWAgYGuenF9JZquEARe7XbbbZcJAsMPSGxKGwxYA0/AwJACUEYAMDCQjMvaa6+dvva1r2WWDkgZFt8xyDYhcKmG22KuANTBHQYNgAODMP5IFGN46623Zi+ageZt8DSBUZxTYBREMhh04ItsuKcIgM+/9a1vZa8IsWB4RCqANsMPGI2Z4UeUjIGx5T0bL08R4eHNi/owbsZUb0EQGCCgRIbOgAAKcwKkPAdGkaHm9Ro/AOUtAwy/Y7yaUgwIENn7Tr/0BqnjlVoXa8Xj0hhPwOQ61xgDUHLWhEG11uSzzjrrZI+RTPx26aWXzqCJlAEH4+L1kCPCyPvhhQIVEQlesfSYfyMtohL1pj9z9ocBpxNxABMg0AvkBhggI2S700475XEgL0gO3bI+5kAnXEdeyJsxWH/kiZ4bI2A2P8ABvAGE9QGovqe37olI0AvgRO8RFXoO0PwGqPkM6dSQGxEbuWZrFd5nnSBYZ2MWFaJbPHDkhQ75HLjTPeO2v+KAMoA+4YQT8m+MPwiCeYqK8JbtS/PacMMNcwRAhIKuRWqOXUE8RAztG9eIAoiO6M/c6aL1MB76gYySrfWwvvQHybb+QeZcW29Al97Z73TM2lova+rPcccdl/ef+dJba0S2fnf22WfncZibfcnGsBXIiTG7tyiVPcguWXMOg72JGOoLySRjckGS/K4pxcBuIFx0GRkne+TF9XXig6j501Ezz3Cgmq4rBKGvkKxv+h00BIGiAiabxsbAnPvjZHJPCAIDYlPaQLxqxlWOlGGNdIGwtxAvzxPpYXx4Xwx0gKgwOo+PZ2C+9bxnZwRB+JRxr+fdgQyjbtPzuBADwM8YBUFwDWABBAwTomD8DIsDTPpENnj35mDODBKDByAYpmiMGo+JYWOAWxEEBpVnpjGyiAbvHcAjhMBPuJXHA9iFt43RmKR7kJAmgoAYuQ7AMZDClwgRcAIwAAGwMID+jUwAZAYU2CI28ViVMLv5kb0xRjqCAbaOcW7DfQBQGFX3JmtrwmPUgKhICDAAYvVoGBAwZ2kK4Gd+AC3CzYAEkAEW3q0GpIwPYOrTHjFm4AjMjQvJoReADUGNJm1kvYE62Ri/vgCLtJeoAqLk/xpCaD3NG8FBjsiFt474kDkSpvFY6YS+jz/++NkHi+sEwTx9D+QjXeD3yIW9aLzuzx7YH4gHUKKLfocEIa5BEOiJdSIz+ikiE/shznYgsXE2yNqYEy9ZNMvcyAFJESEAYPQH+ZVCdPqenvrMWvmNcSKx1sL39egQGSFTnuJAROv7nYxEE8jPvD26TG8QT+sBYPVPX4C3/tnFOEAtmhIEhBzZIvvSPo9zOWTGPpmrvcVpaXUGgQzsK86Nubonol5v9gkyZX6tGhJvDPWIaFxfCELfAHlf9TpoCAJDwHDzPoSRIyTcVxOPfntCEIyTgWScEAQbXggRwEo1aLxHG4r3CJx5+Tw7ZCKAwkZjmHjWQLC7BIG3BoCi6c9ncrdPPvlk3sjODHi2WARAGDEIAvKAMPCI/JvxMFZeU/TJiG211VYZvBguRooBB6a802gAymcMeIBLdd2anmIgN3LhoQt7RiiV/OKpFQaeN4MAAHLkq9UhRUZTWor3CEAQMtGJiFDQK+BJNowxwDU3c5SmiPMTZAaYeLYAHjkK0loNp5Or8TG+yCGCwMDTAWusSQfwihlzQFA/XEbuPF56AsRELYAQ0hiHtsiF9xjRNJ4jrxcYIBAaGQEhxMocraNUFOBAVKvNWHn35CA1YV2BK0KpX0Qq5O/pHuAkfSG1Fvopnw9w6QwZkgNdMkf3FOoPHa8TBNEYoElfqvl7hBVBMS8eueiNP88880zWY+Ojx+6BzAZBQHrYDjJHjKrPz1sPpFUUgKw1+mNO5Ao0effmTJb03vccFfcR6o/xI1bC+SEDMmc7RDpivUPOvjMXa4oo1Pc7kgJoEQgEC8ExRnsBqaMvxsNeAGvkz7zi3sCf/kl/IC7WQaRRKstei4YcGwcC5N+tCIL7SmeIsLiPtBuiHud2oj+2wTmcjggCB0DKxribWiEIfY1o7e1/0BAEnhIjK7SMlQPc/mjtIAiAjvGvEgSMnofAWAMjBAHwAIP6ex0YHiHjeussglAnCDw+MrQJeQPYPKPKs0JiOiIIgIqBqRMEEQTeNiCRJgGuQpzh0VaNkchPUz62iSCIWiCBQFhqSaheOJVX7PNq9IguIB76bkUQEB95U8SIsUQWEAWyJguRG2DJCwYOPjc33jBgqR8240EhDrx3/epT6LZK4gCMaxCYJoIQ4XT3byIIZAe45LR5tPRFNAXoIARAok4QhIvJqU4QgDgPHkGgh+5n/sAmmogMgmAeCJe+rStPHhgZL6AQiSBzBMf8kBZAVCU4SAWdRiaQPaFsoIXMVAGzThCQLXuA5xvpiRifHDpAA+zmSNaul95BZugncl4lCCIu5oRM6BMxsrZIi2iCvQCweNLmhHwBbXP3f/NHCBAs8jEvuq0fn4kCkqv7klM1CkQeoj7h2cc8rKl5IM7W1PiqTaRC2oPcjFmqBpGhu/afqFWcN4jDhHShahMRWuTX/JGyJoJAnq7pjCAYm+gmkh1PoIjA6bfaEBP7tqNGfvZYq7NjhSD0B6q17x6DgiAwigwThssT4YFUm83ucI6NVt+MvRVFfxAEQCR/iKEzAIxpV1p3CQIjKbzHA0AKGDAeLiMEFHpLEBhSHqCDWcCnqwdIgyAIyfJSNeF1n/NGeYnCuUL+gB34NYU4/Y4R45UjLRFi97l1FMr3x1wRDwSKQTN/xJOn5J6MMfBhBBlw8xJhaWo8PYSIgRbWb3pSgzfdU4JQBRXAANDtBXLuKUFAenimiCuPL1IW9MN5BoBvLfwfQEof0VHyQHbIQ1RLSkhUg2eNQIoiNLU4m2JtRVyqjxLWCQLZA32kyVyb0oh0V0rHWR2k1PiRCrptLasEQbRBBEAkgx6JYiE4wBnAIyGiR+wGO4PQBEHg6duLPhe1tN+AsOhYPL5LZxAEctN3q0cy63JB8BAs+10Iv1WLF0khDAAYsSBrhA/hMj9/ENWITtb76ipBQLDsGf0jPPWGsCCJZGws0n/tboUgtFuifdvfoCAI8peMC2MRh9Gq0+Y1MeDV07ntEkt/EQQpBODHEABAHjGvF2NnjBnteusuQQCygAUxEIpGqqQ6kAReVG8JAqMRng8D7hAZr4uRY8wY/qbITxAE6wtkhVgZdZEistCXUDFPHbgBDrJyvbFLwwAvkRbeJXkx/CIC4b2SHcDTRzyi6W+/BfB0SAMEwFBzL6QEoDGeiIdwNVBDKICnA2LAH+FAPuRorQuvzJzJG9noCUGQ7//DH/6Q78Pbk7aKcyDy0j0lCEiMdbL+PH/yF0kiL2OX3+YlV59icBAWQQEgAIls4qkVKQFnEMzVOJ0HERKns3LNohUiNIAKOFdbnSCIoolKWFsEgDyRRPrqfuRoT5BJHFoEtHSCh+3vOkFwb+SbzAA40sezF0kQRRNV8TmCAfDpjwgCgisqYN8gEAgQYiA8TmbO4ois0GuRBOkI8kRY/N7+5czw4ust9rvIoPHGfve5+8fZDfuHDJEbeoh4WwM65TuRSIBuPxg/4iCa4ryLaIh5dpUgILvWB+Gz3iJy7hnEy+dkgZRJQ3nyqd2tEIR2S7Rv+xtwgsBgMVS8UsyVstbD1Iw64xaPobXzxUkIApAQpeAhVA/XABXgwuvhafBKbHTGA/AyMMbPu2A05OrjEJ5NyxgwDg7Guc5vhLMd6OOp+U08uuj0exNBYBz8Ydgir8cgyj+SW/VQII/I5gaUPGeHneROhfCNwZgAJu8N2AMkBse/pQ5Eb8yVAdMAAQOoT4bFfMnEnJwbEEpl6BlXhh6ANhEEBhagOkOgT78zNlEV3iLjTf48fn0DZV55nKTmgTGcQrMABrA4tGbtGDUgpAFb95KfZoCBPtARfgVyxsYriiiUNSFb87YmDDLd8j0Piy4aFwIkYsGjBmbxQiMGOiIpZOTAIh2IU/NAlFwAPd2uv3zGOiJKnhZwH1ET64Q0maswd7yLI9bEmQlAbQ2RPs1aO3MhckR+QrwAhCyMOdaJ9xzvjDAHaR15dmsL/Oi3+fB6Xef3yDtSB4Dpl6Z/URpypT/2DEIFUOp5a+uEXEg9AGMyp5/kBGCNjV6RuX0IEK29MUm9WBP2QDqDXiAOxsrT9XccrHQdgmMPWxdyoFsIl3GTvfw6OUsnSbHQDfNHKOiieSGI9Mi5AICKBFsDUR3rWdVLawVom57cMU971H5HJKv73ecAP5r1FnlBZoxf1Caa9XO9MZiH8ds7oiDWRTrHnqVHxlh1NOw3c0a46Ja5WQNPBxkfO2Z/Wx/nISLFYk3Jzhq3u9kjyKlxVlMYbJA9xAGw1/riHQztnstw6G/ACQKFl//iHTByTWFMxpu3iSBUN087FshG4R3G0wjV0DYPDNgwzrwEG4hRBdRAAIAZv82rGb/Nq5kTQ2Mjxwtl3AODZuiENeMQkb5ahettKNczRkGcGA39CGPWc+fAAplgfN2XBwPMGWDkhkFmXI3F2IyXDIyVl+kAV/TpYJiQfhga83Utz1wfDmEBXfLgydRzrbE+DL1DaPKqPFO/Y1RFEuohW4bZ3IyfUZd/1rewb8ibVydFQYa+i5y3OQFG87UWQagYP0DnXoCg3hgl+hdvChTKrR4mdT0PTx/uLUKDCJKnPt3Xd4hYPNHiN4DB2QIAKhdcP4RKnxAW9wYgjLlx89I1TxYgdPqMNUGQrIl1jQN5fkuuQJo8QpcQD/ob66QfQBvN9w4iAtkgxuRvTPqK9+G7pzUBLFq8JtffgJaxR4CAXL2Rl3sgsgGk5EWedEjfvFjgCBSCvJEdMmRN6AAdpEfWxnjZBP8nf3qskT8iQyfpFl3lbdNte81n5gCM6GIQYP0hLfGCLWcCRLWAeDwFwhaQAd1CItkpsq4eXKzPPUL2UjAd7XcyoCcIHFsTNiT6IwP3tu+ttX1NVuSC6JkTWdbtJ3KmL3YidMK+Yh/onvV1bsiak1O8PdVa0e++eIqMfaKr9mb1QLO1Mkdzpaftrr/TDqwYjn0MOEEYjkIvcy4SmBMkAACRA5EDIffqEzVDYX6iWs5f8Jh57pwAYC2a5qCoM1FSHqUVCQxXCRSCMFxXvsy7SKCXEuDNCo+LSkkN9NeTR70c9uyf85iFtUUMRDd42+bicwcTpeAimtOue5Z+igSGkgQKQRhKq1XGWiQwyCQgiqB19YmWQTb8HLKX7oiUldSKlIUUQrsKFg22OZfxFAl0VQKFIHRVUuW6IoEigSKBIoEigWEkgUIQhtFil6kWCRQJFAkUCRQJdFUChSB0VVLluiKBIoEigSKBIoFhJIFCEIbRYpepFgkUCRQJFAkUCXRVAoUgdFVS5boigSKBIoEigSKBYSSBQhCG0WKXqRYJFAkUCRQJFAl0VQKFIHRVUuW6IoEigSKBIoEigWEkgUIQhtFi98dUvdbYK1O9UtUrbON1vXFvr8hVgMmrc702t/764f4Y40DdwytxvdbZK2a9va+0IoEigSKBwSyBAScIUcrZ+7m9M907ub1jXsEVBWv6qnljmiI/6g14T75aB01FoBQE8k54tRXUA1BQZjiBWnfkr2aEYj/eK+9d72SqSFL1hTMAcosttsjFhhSJ6Yv3vXdnzP15raJQKjgqcqQI0GBuCqSpsKiImLoFg7F5b79aEN6AWC1+ZKz2tyqO9rYqj6UVCRQJdF8CA04QFHNBBpADRXBsbKSB58mgRnXE7k+t419EuVrFV1Q8VL2s6V3yDzzwQK5qB/wUZlEgplVRonaPcaj1p7AN4FcS1zvuvbJWca0qoVK6V1EZ774n16H6Br6erI1X96oyiCREJcbO+kGYkWfFeJSyVtionU2RHkV9EF+Fe6IpvnTxxRdnwqeq5WBsilztuuuumSAouFZtClEhBypcqmZYWpFAkUD3JTDgBEGZ56iepvSqV58yViqOKXOqqlpfNAZ36623zpXMEBNgxRhWPVqvkVVCVflRxEVFPZGE6vvZkZlo7YosdLXPuK7pvr7raDwd/bYzebfqW/lZ8lINULXBplYnCCHvdsiu1ZzaKYvO+mqac/ymM4LQ1LdIjNLL5557bq4k2ao2QFfG1XSNWgrWTf/VkuOqSKqMqAKiyFm9deV+ftPV6zrTuabvVbtUMwFBkNaqNrJSX8EeFw3paF2q33U23t7sm57MsfymSGAgJTDgBGHTTTfNtchVUNtggw2yLC6//PJcpxx5YMD6ogVBiApuyo+qHc/riCZqwJPi5YocaEEQ5NKVTvXHvxlRJWu9w12qQmQC+RAB8X53AOg6kQuGqykyoiRs9Kk8MkIiuqGsKxLDOCn5qia92vU8KCkQJYwBB0LjnkrT+tt9/db9In2ijK53z/veeJSOldJxXUfevGiAHLqUDLJEbn5njEgdWalJf/7556err74690emdXAJgiDMvsMOO+TS0cZtnvqLgj/G6F7OKVRLvyp1rM84v6C8M9mI7pCH+cnvK6FNNj7jTSqly0OOssnGDETIiswRlWWWWSb3K0JkvYAz3SQX4yL7V199NV9nvGTeithYK781P/3QCyWFkYRqBMEYRc8A8qRJk/J66NsclSWWkrEHgNxNN92UZUH2+jMH/ZuHKoR+S6/8HWtJtvoOfTR/6yJ957ennnpqjtR9/etfz942nSE/JaJ9Tx6xhu5nTuRJH8yfbukv5EBHyMheUD6cnrnOvjKudqaUuksQ6J5mzPahOZAlXbFeSqvTBzJyfoZOaeZtzuZCjhodMMfQASWt6Qh5RVl2umev1nW4L+xZ6bNIoC8kMOAEQYQAOfjiF7+YPSVGkTevVvtpp52Wdtxxx76Ydw7Z8i4YN6kFY2Asd95552zEGNYrrrgih3WB2XHHHZcP3iEIwPmMM87IteIZf4YBmKnRftJJJ+U68YDSb4WSVbpjSI499tg8Jx7bl7/85XeAi34uuOCCPAb3EUrW5worrJAjGGPHjs2Ap8+oHc/IMUBK05qLdIhrH3/88Xw/BAAoisT4vaZ/c3U/wAr0EDOhb3XYmxqjf+aZZ+Y5xXkCRnOrrbbKffPgpBSU/AXQjO6YMWMyGNbzv0EQyNzYzTEAxRg222yzDG6iSfLLZIxERiMX+fvzzjsvjwWYub8a9nTG/a3HoYcempAsayhXTa922223dPLJJ+frrb9oh9A0QkDmwvnK+1qb0aNHOMLAWgAAIABJREFUZ7DwbwDrGl4qIKEb9NVaBOGoy825FZUCgY77AVkAidAEQbCeF110UR6TcbsOSRg/fvzsKomf+9znciEh44u5fuELX8h75ZZbbsmpGuuzyCKL5D7Igb4CPfMRzSFXsjEn16y55po5bUDfnDPwmXkANudC9E3uiMnpp5+ew/j05dJLL836Qy7WwVhXXnnlLGv6pyH1UhPOBFx55ZVZVtbZGtJ9BKRdrbsEQVTLnqDv1odMEWe6hvQaN13xb+TV3IOIk8W9996bZThlypR8DVnRAXtt7bXXznqiRDSdRzq33HLL/HvncBzKLa1IYKhJYMAJAs9zv/32y4x+/fXXz8bERjz44IPz5mP4+qIFQcDuw5vdfvvtszFlLBkKhtJ1NjiiwuNAEACQMwsMsHw6oL311luzUWVsGEweHQPCQCMTAHOnnXbK15999tnZA6k2BkeYF2Ay8ow1IsAgAwlAzJgBLNfxcAAFj9IhMh4c48xrOeKII7LHBoyBEeB3YMu1vHwgp2IdIw9k3MNckaB6A6yAlOEzfjLye8ZfpGCvvfbKfcplAwCgbn68NPfwd7UFQTA/USJgaO3dY5tttsmkApAaD49bVMc10ZAH40BWyB3gIAKf+MQn0r777ptBCyEDvvpBXHjVxihkLp+/0UYbZTIFHIGGaAcPESDwmoEH4shjFEG68cYb81kKeqq5DgAATMBQbwDX9fqkw8ABeUKykIAgCD777Gc/m6MBzm4gIeZM3+g/XUJgjP2OO+7Ic3aNtQXYSAqdpL/mKi1H1xA36+07fThjYOxIomgDwuEaURXXXXbZZWn//ffPwGk/IKXuaS3ohtQDmRir+x9++OH5fggTQmwt77zzziwz8yUfEQr7QFSInK6//vq8P5xPaVcLgkDe9XMSPjvhhBPekWJYZZVV0tNPP5310rrSEXqHNNjz9IdsyQShMma6h9Q50Ow70R36Zi3tNddwCOiSvYD4IunkgoD5t3s1HYBulxxKP0UCfSWBAScIPAxGESDwTIAP8MTmGdm+alWCwIsDvD4zFqDB+AESXqezCUA2CALS4t+MfRwaE/pmsEURACSDwDAzDoyk63nrDI1+66Fp82bUgJ5+NQYQyeA5Mq4MsXECZkSGQYqQPBDzf4ZSVMbnSA6yYE6ABlAyhr6Le7hGKJXHRA51Q8YIGgPvCLC41liFvkVbAKpwtD6FqZEM8zTnphYEAekRUQHwgJTHyWAjBLzS7hAEOsRAO9jq37xZj1ICOGO3RsCCLBhsoMkLRH6QJmvh3mQKMBAJRj8IglA5QBg3blwON1tfcrYOvMX6Wt5+++0ZWIyDHlu3IJzXXnvtbIJgjvqVPuBh68e9POWhAbNWZxCMAQADcrL0W2tkvmQsFYDMGrOoDFkga0gtEsqz5Q23OoMgMlElCAiGs0L+WCtEjQzp/IUXXpjXDcAiCMizg4EInygPnUde/R+JrDZpNYBcPXdT1xtzQ2gQraqsgyBI0YQ+x2/1Z3zVMwgIArkgW85WkIW5ILX0FknSj/EcdthhWb7IJvLuD3IkukgHXIPE6YtjY++6NlKlCKhIjQhWOdTcV1a89NvXEhhwgsDzdNCIIQFwPG6snDfCGNl8fdGqBIFBB8CMGIMrzAzseAC8PeDJswqCIKTIuCAFgJk3KTfJMDP0PD2AyZs96qijssFkVAACT7xV3lqfwAnYxTkB4+T5iRow6AiCawALr1ljDIXcAUU1Z+xz4+I1AnTAC3DI3JwZSxEbBlzYXqoCQak2QIvkMHbmVTXAm2yySfYs9S2i0R2CUH2KgXEFLAy+fDhw7g5BQGoAa5A1QAW0ELQ418JL5gkjCYiJBijNHRlEUkQyzEU+WRQnCIJQtHEF6fEbB2npp/B7/ewGL946AR1AEw1JAch0ylhEY+g68hlyR3CMASBZK/+vH1L0GdJqHkBPdEqjP9ZUysaYkUJkFOnh9TedMekKQaD/wF30BcGsAh69JG9pQYQiCAKyH+kE3jjiwnNHQquNzJHqzhpCJOJUnUMQBJ+JtlUbskSP6gQhzrYEobDnkRbnOxApDaGOJ3HsV03UwFrZe/pGvux3MvE4rz3tu4ga0kWpPucUSisSGKoSGFCCwAjyCgAZoxob1KZk0BgljLzVye3eCL1KEIBcRABsbF4eYyaPywDy4KsEAfjzNnkRcstC1ObAIFQJgvnxWAEDIGbQAVSToXatcC4jiwjw9l2nT2HsOkHgsQFtLbxaxMaBReOpkhDhU+At8gFYyFeIWKTGvRASYMXbjYhEyBbIAjtGEImqEgReMqLBUDvr0BuCwBtDDoEuw85wA2J6ER61ezelGOoEQeoFmakSBAdfRYOCIDDmgE0EhLyAmX8DrDpBsHb0MAgC/UAQfNZEEKy5lAE5A/do1acYgK60lRSPlEld7nQOwWiKIIh88Fbdh2zqB0FFeeicsL81QsZElZqIaVcIglw6Ain1xyuvkkgkGrEPch0EASmlY5q9RdbWtU4Q7BtRKuSmVeO1W6MgQnFdd88gIFMIAgIVZJLeIWxVgiCiI52CcFtD9xEpoRvG4YyN+SGW1g9RJlvzsAfJic1ysLmeSuyNzSq/LRLobwkMKEHAwuU7N9xww7zR4gAcYxGnixlheT8eEcNUfelOb4RVJwi8WF4Qz5PBY8iAiT9alSAI/Qq5Go/wpBwycGNEgEgc5pMTZjB4XMCHYWd84sBgdfyIgN+bJ2+XRx5PUQDxjgiCfuLJD8BgbE1yYhhFZoRX5YnlVIXWjU8It4kgMO76Y5zlzIPc8KIARzwlIIzeToLggJ85M9BAWJO6sA71MwjdJQjA1R+yQvIcJDUvAO6+PO9qBKG7BIEO8XYRFf1HWJp+RVTK90BIfl5Ep/7GydANBAH42ge8cucGgKpIF3mL+rR66RIdRyKNAzGMp0HooT6AJBJCFsgfvY9WTTGQP0KDGJFNNXIlQiLfLkom0tRdgtCbPdwfBIFOOERKLyINQd+sh/kiFggC4hRysHedWxAZFfmwf0srEhiKEhhQgiB3jWEDLYDF8Aif8koZK94Pw+U6IXWkgUFqxzPzdYJg8ZACHoXQs3HxrOP0cZUg+C3jgBg4rMc4OFjGE5ESQRAAvTy1XKS5OWkeeVigEd5VKA2DwpAzJvK3yAfABmJC0J0RBCAjvCl0yrg7DKkJvUt1ADx5cB6QvLkxaMbK+DFmTQRB6N1cETjGEpGwRoBOaNajceSG1LWTIOiT1wlInRlASHjM1oT3Xj2k2F2C4MAnPbJewsaiPuQvwuOwKVn2hiAgdl6njCySESJGpz29Qi/ikKLoiHGInDlo6Hq6BPiAd+TJef9+48wDwAfuCKmcud9YF6AUj5v6W9RJ6gt5kOdHAhxm9Zm0ke+dT6AHQF2UCIERyUBC9Fk9g4CQSJcBwzgUKQrjN9IOvGZRpDmNIERayNrRSedu4gkYqYiIIHAGpCXojbML1oxOIU4IaDts1lAEmDLmoS2BASUIDB2jw0sEtsKqPgNqNhTjCswc9Nl7773zyWjeezuiCE0EgYfmfgyfTc1LiEN7VYLAiIsMCOEC4nimHrFAaoAXz5Dx5CUyqPrh+QIf3hwyUE01eOqBUQECwMX85cCBupPRnREEwANwGHUhZ2RKEzUQ2iVj5ENO1vwitSNnzaOUq28iCNZDqJ7hl4cV8Ylctz54SPFZOwmCuQNOoVx5XCBnLAhLyDieYuguQbAePG/Eg1ctnaNfJMQ5E8a+NwQBgaLXPEpEU4oHMANxsg+CYM0BM6AhS2FpER1j4bFLY2nSLlJuUkT2iDePItDSA9YcwQbq1kWf0kxx7sXZFGNxKNEhRWDuOoAvPSFMLnqhb3JGKESMkNoqQbAOPqcLzrKIKFkjqbE4MEtn5zSCYN+InCD77A47wGFhK0QdrR15k6W9JNrAhtAheipVyY6UxxyHNlAO19EPKEEgdGArbGkTyg8yZADH6WLekU3J+2bQeGIMUDsaI4yAMODAWgNAQvVC6QiAMwjRGGMGAbgAJof/EAH5agaaF+oz4zd2HrZxy3vHK2ydtgYOPEMAUM07uzcjDKQd6pITZ2AAFtDQp/siEELt+hUNqDbG2pMGvJp4/t4TGc5yyL8KdZOxELgDVubusJwDXtIMEWqvyzdekCP1IQ/r/7xP5xYQO8Bg/A5s8pR5q63eDwBUrCWigpT4LYLC0ErDGA9yoz/3ImNyM484SQ8kES8ESzRA4+EF4RLVsYYIQJwb4JXzloEr4uGeTqBLEZGxsVhH8pPqIVvrTR+E+YXZ4yyMvkSMrIHoTpN3SK8RWxEKBMZ602tEz1pGSgHxITceeLxUSCSNpxpnC6Q4RJWAs8iCyAr5+1w0IA6cIoAACchLy2l0wvqKvAAwn4vAuD99QhbIgd6RiYiN8ybkIB1mPfSpkQf9o59Akrxcb58Eafe9uSANEVqPveLeZNauhgxZU2RF5K/aEGbnQJBjZwk0kTW/EYkK4m99pAnoShwotHec8XHAk55af3OiV/YoQmDOooPk48wHnXfYkl5aI3K11tKo5B0ybNfcSz9FAv0hgQEnCP0xyXKPIoEigTlNAvGK8xEe30gzp76dRs47b0ppRJo19e2U5po7jRg1Ks2aPi2lmbPSiLnn5gGkmW+/lUbOO19KSO20qSmNHJVGzDVXmjVjekrTZ6QRnuLJ1/1vf67TRxrx9z5mzkizpk5LI/K9Upr19tt//9y9pk3Lv/2/e1X6mDEjj8d9SysSGCoSKARhqKxUGWeRQJHAbAlMf+WlNGPixDTPMh9Ibz54b3rrqV+n0ettnAF+0j23p3k+8M9pwXEbpIm33JBmvjkpjdl48zT1T79Pb054IH8+9xJLpol33prmWmzxNGbzf0kTb7sxTX/phTR6g03TjNdfS5Puvyst8PE10rwrfyhNvP3mNHKeedKYTbdMkx/6aXrrd0+lMetvnNKIkX+/13IrpAXHjksTb70hExD3evvpJ9PkRx5Ko8dtmEYttnia+syf0gKrrZFGLrBgWcUigSEjgUIQhsxSlYEWCRQJhATe+s2v0xvXX5nmW+nD6fXLL0pjNtkivf3736aR8y+QRi327jT5oQfSwlt/KpMHAI0ITPnlw2n0RuPTmw/ck+b55w/myMDUP/0hLbTFNumN665K863y4TRr6tQ0/aUX0/yrr5km3X5zWnDd9dPUZ59JMydPTvOv9v/S366/Oo3eYJM07dlnMkGY+5+WSm/ef1daaOvt0+RfTEijxiyU5lryfWnyhAfS6E02T1N+/tM09/uWTnMvtUxaeJsd0gjRi9KKBIaIBApBGCILVYZZJFAk8H8SEM6f/PCENOW/fpHmWXa5HBX42w0/SbOmT08Lbf4vacqjj6S3fv2rtOC6n0yjFlk0Tbrr1jTXe96bFtp6u/TGNVekGW+8nj39ac/9d3rzZ/enBdYYm+b94Ipp4m03pJELjE4LbfOpHFWY9vyzafT6m6ZZb01Ok+6/O827/EppwbXWTX+78RoJhkwuEIO3nnoijV53gzRy9Og08e7b0txLvi8tNP5f0hvXXpFmTpqYow+IQmlFAkNJAoUgDKXVKmMtEigSmC2BWTNmpJmT38xRA/l94X1nAEbON3+a/d2Co/Mh0plTJqcRc8+TUxDOKMyaNj2NnH/+fBgWgAP2ESNH/f26UaOyp4+EzHJmQVpAka5/uFdKI+ebb/a9Ri04Op8xMCZnFNzPGQXnG9xLxKG0IoGhJIFCEIbSapWxFgkUCRQJFAkUCfSTBApB6CdBl9sUCRQJFAkUCRQJDCUJFIIwlFarjLVIoEigSKBIoEignyRQCEI/CbrcpkigSKBIoEigSGAoSaAQhKG0WmWsRQJFAkUCRQJFAv0kgUIQ+knQ5TZFAkUCRQJFAkUCQ0kCg4IgeNe5okTeG++RJKWDvcu/LyugeVe6QkbqHKiAqFhN0/08BuVd/d6t733z3rvuM4V9vEff++Xjve5DaeHbNVay8M5+VTetoRoCaluQaTT1KrwHX00I7+4fTu2uu+7KhZO8q18RrsHaQs/VKlDUabCWKDZOY1R3w56tFjyzlxUUU+NEEa7e2A/2QQ0QdRXU/lDHpLQigeEmgQEnCEBF5UPFmhQ3suEVWFEwRxXDvtqYAF75ZQWCGG6FXRQeqjeFZpR8VV6X4VToSLEi41O85cknn8zVAIdrY0RVtEScFKtRvOgrX/lKJnnREAikQSEbshxOTVEnxYIUBFIkqqugpVogIERAFSNqZ0N4FfxSbAnIasBVZUilvxVuUpGwq2Nt59g664sTEZVdVbhU1Cya4l7f/OY3c2EylVGrxdA667f+PdkrrqWolYJdUairu/2U64sEhrIEBpwgqKymrCxgWX/99XO1tB/96Ee5+hnjqkRuX7Qo94wAiFao1hhVHeN+vBUV2RgipZxV11OKmnesBK/SvTxj4DhcGzmosIlgKW+NPCEHVWJXCEL3CYKqn6o8HnvssWns2LFtUy86rUy50tx0fsMNN8x9WzdVIZHeL33pSy2rVLZtID3sSJXGNddcM1fpVMkxqnXqTin1z3/+83nsvlNZtadNWWwVIpV33n///d9BeHvaZ/ldkcBQk8CAEgRheyWH3/Oe9+SyvkjBpEmTMuAo/6u0crvKO9cXJgiCEKLSz1tuuWU69dRT3wH2PlcG9uGHH07PPfdc9kiUb+VNSC8YP3IQ5Y4ZX8AYYVBEoiven+uV7uXZKbtc/43vo28ld5XlRWrq4VXfCQ238px87w+vsTshZMZyxowZjSWclfU96aSTchhdGeOmVicIjLz+zLPqpVbnWe1HuNd1ca3/a2StL3KzDsoXB9hZu+pn1f7chxysIdJXTYe4rtq/dXEPa97VVBK90De97iiCoG/6HjpUHaPolhLPyPIWW2zxD2KlA+5hLVuNi4xF6Og40pbfKDhzZiYB1krkThnqaLxzcjHXKN8c30kDSsktvvji//BdfhvhzJlZH0UiXEc/Yz3aaRS7SxDqaykFQd6xRxAjumJe9X0jikAOEWWpztPv6B0S0hsi0k7ZlL6KBNotgQElCEKC6qqPHz8+16sPr1POmte01157pbPPPrtP0gxBEKQHhCkfe+yxdOaZZ872qAj6nnvuSXvuuWfadddd0wUXXJCBOQgCb5mhffrpp7MBZsxFE4Q2RR30x3CoF8/YA6KmJtTLm7v//vsz4WDsAQLQDcMknfHoo49msnTYYYfla773ve/lnL52+umn5/CwKAfg32677dJxxx0320Cbh/7IlcEEzML9UgGtQqeu+8UvfpFJmrkw/Ayr35CJe1mfn/70pxnkAAJyY7022mijd0w1CMKOO+6Y72+tAY6IkbH7rc+DaDz44INp6aX//t569z700ENz2Nj3DLwwOGMtJQSA3V84WHgZCIpmWCcAzQs01wA8ZM91/raeZGmNjjrqqNnEbJNNNsnzJXfXApAlllgiE8jwuJvWkkxEw+gC8OfpLr/88vl31RQDsinVQi6uM84DDjggh859R77GB7DJBoE58sgj8+fkdvLJJ2dCHYTS+I844ojZ602W1sF1CAJyQPbHHHNM7sO5iAB7Orreeuvl1Nkll1yS+7nsssvSWmutlaf4/PPP534QduTB9VtttVWWsdy8hhzaH/ThJz/5SV4z5EBqpTqudhiv7hAEOmJvWZeVV145z9G/RR1EZug+XXr88cfzXhMpEEUMYrPccsulT3ziE3lu9AShsr/99uabb04PPPBAJkXSMfYjO1BakcCcJIEBJQjAdaWVVkqf/OQn84aLDcYzAja8m/POO69PwntBEBiBf/3Xf0277bZbNqAAhScBrBl7xu+KK65I++yzTzbIQRB23333dNFFF2UvjgFGChgXhgSQrrPOOhlgpTAc4ANSVY8/lIgRveWWWzIhQlaAOTJgTKeddlq+jHEHqhpQBFZAk6EGbMBmjTXWSOPGjcskgOFyWJDsGPV99903h1833XTTDIJ33313PjsBZHbZZZfGXLMzF4DSfNZee+1sNI2NXBhV40ZChMGdQ3BuRL4cgRHirbYgCIAWGDqzAAgRRIcWecm8XQf5RCT++Mc/5vy4Zj6AGkFgqHl1QuD6tE6ADCCaM7kAdmQM8bz11lsz+UP8kBFtp512yuBrfazT9ddfn8fi3lJJ2kc+8pH029/+NgOz+yJdxgGczdVZlHpDUr7xjW9kMkAOyAEgdpbA3Oi3MwiAmZ7ccccdafPNN0/0D6i+8sormYwgd/pBKKTbyHXJJZfMofONN944EzSkyPkccnQPa4VgSNchSFIH5gMI6ZWzPUCQPG677bY8ZzKgM0AeCJo7UkHWUhDkZUz77bdfHrtcPJD1uyeeeCKTU2kQskAigSZ5WTdk7d57781rceKJJ2b9a1cLguC+9F4EMpqxIe5kL8VA7vYRYGdbyMvf9B/xotvWVuTSHkQS7HfRRA2pJAc6Tv/POuusLB8kiV7RMWTomWeeyfL2p7QigTlJAgNKEIANo8OQ8DQAESPMGDN4jCVj6ERyu1sQBDlGAI4gAHr3Y+QY1e233z4be4aQoeiMIDCEG2ywQT6fwHAxxoAU0AIOpKfeALf5IUqaMw4MGcP961//OkdPEISrrroqR1oQEUAY1zpg6Y/vGS2EAJCITAAP8iVP84gDXYwhQ4dg8A6bQtTbbrttJhXAhofKWDLAohsMI2MJCICDuTHIIi1NLQgCgkQ2gJJhJXMEipfL2+sOQZAvR0akgHjhPGOGnM4YDyKCYCFSoisIHvAkC99F7pqMgTAv8Oqrr87XIAjIC2+RXgIV8kK4gKg1rTfzISeAw1MF/PrmlSJWQRDIHnnzOS/c9QAGYQHmAMo6NaUYADNQtwbkLyxOJ4E30KID5GjtgLuolPUHqtZAZMdvWqUY6gTBb6wpEocA+K21IksEgC5uvfXW+TvEjj4hKaImfmstrDFiV00lidyITFi3jho9r5/vCYJAv+vpDhEXBFL6pEoQEDDRNyQI0CPrZEWO9ra9gaRaY/OgU/ZdE0FAThEqumUtyIE+I5L2R18dqm63/Sv9FQl0RQIDShAMUFhTaN5TBQw3sgBIeLgiCAC7O/nyrkzaNVWCwJgxDICEMQMWTnIjKQCQ4QDgXSEIDA/vikE0B79FDHjrrcL5jJpoivA5IweAeDORvgiCAISAczRABBgRgio4i2wwVmTHSAMNXjLyIeJhXMAAIAG9OkFA0owV8QAmPFiNR8b48lgjHdMdggC4/E6Tw2VYkRhytcbdIQg8cwBlXQCO9ANvlUwYfvIXVZASQHIABIMv2sAzFwlwX/IWRQGe4SkiCGQPxICQhthYS2MUQak3XinPE6EQheJNR6gfqESKwW/JAHACGI28pVqsue8+9KEPNRIE1+ibfoaX6/cIrujMOeeckwEc+UBU7a166+gMQp0giFbQZ4QLWdbi98YvrE4m5AuQrQHwjTlZU6TWUwDV8DvZi3yJxnXUpFxEMKotCAJyYW2rzoN1FZlBVKoEAVEjG8SbDtvnUg/+Ng+6ghCKJCCF0jmiU00EQUSCrYhoE3vFbolI2J/Vp3e6aovKdUUCg1UCA04QbLD/+q//yh6vMC0wBVhAkYHgKTWF5nsr0CpBEFIVwrf5RQp4EwBDhINhYThEGrpCEHiIAJvRAcj65FUgHIxIvTEqjJXHLTWGiTyA8lNPPZU9wyAI5FM9EMVbA0jy9dVHNBlPnpIQrFC0/LE5iYow1ADJvxEZxKVOEICvCIaUBGAL+TOuPHKkgXEFUt0hCPXHHBly/SOH0gLdIQhC9dbGupiP8QAqchax0URAgAgw4pGTibWWOjJH8wYCogrWjA6QP4IAvIBtHGAEcsYPGMy52uJdEMgYkKW34UnWDynyxqWseK1BGP0e8EnNACcRrKYIAtkDZdGP6uN9fsvbBlz02nWAVcqiNwSB3gFOspUGjFYnQ/TMPuVV+0004C3t5UxDleQ7B4CUW/eOmnuKrDQRBBE60ZbqI8aRjkIEqgTBWiJRHsNFcJBiRMCYY7wIod99+ctfznponzQRBN9bA85DNHuF3niqqTwO2VvLXH4/mCQw4AQhhBEnhBlWBkn4FXAydn3RqgSBF8vD5g3dd999GXh45s4ZMEIMRU8IAk8JQUAWmgiCOQsPC7ObK48aiMmrMzidEQRGj3fKWAGUaiNH4dkYg5y6efG49et+wqJNBAHgOKvAQDPk8VQFgiAX7mCiNeKl9oYgCE/z2gEFT51hBmpC6camtTqD0BOCYB1FYEQvzJ+ckQRheEDWEUEA6lIITQTBOOX343CpNYmDbnWCIJIh5E1uSEm1ISPxtEQQBGsW0QKRNucTjKH+wilzQ7KQQfrwqU99KoNkbwiCVIL0iMiFSIBGZ5E6UQzheUQEMWsiCCIiCGqdIOiDYxBPGLTa3+ZUdw66c0gxziDUCQKdl0ZoF0FAzq13IQh9YalLnwMpgQEnCDZxPMLGcAjrOmQkVCe8KT/sGkDHeLbrnQN1gmARHLrjhcVjhELYYZz7giBILQhPmqOUAGMozQCweDCdEQTeMMPt7IbIRYRxGV5/GFi5b16PaABQ14TeEReechNBcA0v1u/9Jk7uO9+AYPgjFG6c7SII5MAT5UFL8/DsgAiAFSWxDtVDij0hCDxX3p4zAAgbEmUNGHhkqDcE4Wc/+1nO/ZMV4DQfxIen6l5xBoHcgJN5+puMgxyTewAiYmxtEFSpNnvE4ULAb/wiQvFYnrXWB7JjbUU6RL/sGaTDd6JZog4idAiKPvUfIXayqKcYRFqM0+Fdh/+MFUAj71I5PHFzpgPdIQi9MXiFIPRGeuW3RQLdk8CAEwQ5Wd6jQ10MqjAlbz4OiDGM3rLIkAml8y7bkXJoIgieOuAlCjcCXQfhIqTfFwSBJ6tfxpwhllbg9QEbRKgzguD3vHAevXQBo8+IS1GYH3Cdj4sBAAAgAElEQVQVOeDlAUJg450GvFK/AcKtCIJrrIEXVYmmACPg5kAdgOAJA5V2EgTrLO+tX3rB8wNExu7pg94SBLokPC/0DYB5fdI05OxRv94QBCkLfQJfKQYRCcRAOF7KR98iRKJFQBUR9FigELrUkciVsHlEH4CvdfOkg99JPyCS0ifGSx4iFsBfKkU6BMEiO/f3qCVSiFDQASf5jcc8RQWcKUDE6QCdES2rEwQEQ6SAzvheqs04jc3vkWnkqhCEEkHoHuyUq4eKBAacIPBkGR1GVNTA40uMokfBwiNmZJ1Y5/3Jf7eDIAAfnrVccByck8t2CMzp73jePxaSUWcoeXHyqfLajD6gNU7gJvwL4J1y1hAdUQlGmzFteooBoABuAAOEhcCNA2gIF/vM3JGVuFdVuXiGPD0HB52R0ISa5VMd2tMQBeDgEBdwdAjOXEQQnEBvkqf7O5zmSQwH4ERx5Lnl2RGGeK8DTxbJQHAAUlOzvkCEDB2gi0bGvpPiEY4GmtaCjCO64iAfUCUXYwWEQu3m6p5II6IkBWAswt0hf4fT6JGnSxyuBISiQuThlD99A3rua26RTgK+iBA9iFSBaI11kGLxp9548dZH9MAjhf4vTeLPhAkT8vo7FGqs5uvQIyIqKmON6T1yyvsXCTAmh1WRAcTGXI3LmRUk2j3IwNohk9IV8c4Bh1DJyDX6p3fmKX2DhIrSyaNbW9Ey0RlPs3iKI9IFUl/0UOqEvJCFePzYPJAXOX1jI3cExP2r78AQlUFqkLD6y6h6aiCRaWTFPBDVOECrP+tNR+i3tbIG5GAtyQ8ZR6jsWwcqpZkizeMMECckaolYdwTKPqIX1oR8IsXjumjslXWop1J6OsfyuyKBwSKBAScIwAfIIQi8dYYynoEPIQkrxstM4nHA3grQ6XUHsIC9x/WiMSbAmpGpAnq8LIihBfie1QdiACxC1Q5aGl/8jvH1me9FSFoRGx5eEASPiAFvxthTBHHYUUg97lWfu2uBDcBwvcOQ7hdnB4zDPcgaQeCpAg7jQZBavXOfjIw/CIKwubRC9VAj0gHAjbvVAS3zQcgY83i5jjn4DBACo5ANYuJzsgV8dME9gKixAlgHLKUf/N/njD7AB3xAIORPb4ClewqvmyfQ0785IQjWS//68G/XABpAZFwhG7IF1mTX9B4E8wFI9IfM/NsaID7Ga6xx4t53omVAKQgC2ei7etrffOwNY6CPSJlxIkkAm1zJTQRO/9UT9K4xzyAIdLz6RsB4coY8yMy9fWbs1rh67oRuWuM4RKyv6oFb8jNW863qgEiWMdGNdj3+R3b2LbJHN6pva7Te9qU9HYcXyd5akk+QFKkm6+T3MQ+6bt0RRVERMhdRJAdRNP/3OzI1T3shmmiddUGY2jXP3tq38vsigXZIYMAJQjsmUfooEigSGB4SmDl5chrhXMXbb6Upv/plmvu9S6Z53r9smvrff07TXnguzb/qamnWtGnpzZ/elxZcc+00cvSY9NaTv86/mXe5FdKMV/+S3vrNr9MCa6zlxGWa/PCENN+HPppGLbp4evv3v839zrfyh9OMiRPT5F/8NC04dr00Yu6505RHH0lzL7VMmmfp96epf/5jmv7KS2m+j348zXr77fTmg/emBceOSyMXXDBNe/nFNNeii6eRC44eHgtSZjlHS6AQhDl6ecvkigTmLAk895XPp0U+tUuaNWVKev3KS9OsaVPT0udckp7dd7c0Yu550sLb7pjeevzRNPWZP+X/L7rn59Nff/A94Z303m+elF789wPTyPkXSAustW5Ks2amyQ/9NM2cMjm991snp5eP/reURoxMi+9/SPqfH52RZs2YnuZZdrk078ofTn+77qo0a+rUtNTZF6XnvvCZ3PciO346TZ7wQJr24vOZECy8427pzXvvTIvusW+a6z3/V2VyzlqBMpvhJIFCEIbTape5FgkMcQnw8l/+9lFprne/Jy287c7Ze5/2/LM5kjB6w83Sa5f8OKVZKb33G99NLx0J8FMas9H4NP0vr6Qpj/0yjZh7rrTYfl9Jf/3+d7Mk3n3gYemvp5+UZs2Ykeb/2Opp1KKLpUl33fr3Po49Ib101KG5j3d9Zu808bab0vRXXk7zLL1MJhivX3Fxvm7J409NLx5+YL5uoc3/JY3Z9O+vai6tSGCoS6AQhKG+gmX8RQLDSQKzZuV0wsyJf0vzrrBSmvn222nKIz9P86++Rho57/zp7d89lUYutHCaZ6ll0vS/vpKmPvtMmm+Vj3gNaCYI0gfSDlP//IcE0edZ9p/TzIkTcxpi/o9+PKWRo9Jbv3kszbPMB9Jci787TX32v9PMSRPTvB9cMc18a0qa8stfpPlXWzONnGfe9NbvnkpzqXz5T0unaa+8lKa/8Hyad+UPpZHzzT+cVqTMdQ6WQCEIc/DilqkVCRQJFAkUCRQJ9FQChSD0VHLld0UCRQJFAkUCRQJzsAQKQZiDF7dMrUigSKBIoEigSKCnEigEoaeSK78rEigSKBIoEigSmIMlUAjCHLy4ZWpFAkUCRQJFAkUCPZVAIQg9lVz5XZFAkUCRQJFAkcAcLIFCEDpZXK9QbfUq4sGkF14Vq8iT9/5rivRUXyHdH2N1f38UC4rX+vbHfQf6HmSvgJF6EYovDXZ9GWw67TXZaml47bbXi6uIWX1t9ECvb1/c3+ui1blQ9CpeC90X9+mrPgebDrV7nnP6/Loqr0FDELxXXsEX7z+PojLVSSgWpJrfHXfckd8J7/3xitkohtPd9uCDD+aCLd5D36pFiWPFWRR6UZBlsL5nnTIrcKT4kffpa4ojKdHbn01BIhUFH3nkkbw+w6Wpk6HegKJQdFedgMHa1FpQFEqVRvoSJaMHarzqhKgwqVaIOhv2nWJUqm7OyU3xNJU7FYAy58FOKqtrob4J27vrrrvmYmjVehiDdc04Tgp5KeR29NFHtxwmTFDIy7oopKcux2BrSrobW6tGlxQeUzeot3o14ARB8RUKd8ghh+SKhYiAyoQ8iWgK8+yyyy5ZKIrZAGpem+IrKuipStidpkqhcsIMkqZ/TRGiEOgXv/jFbPQPOuigXM2NV1wtUtSd+/X1tciV+Vx++eXpoosuyhXoGN5WRYX6ajw2HkJlPRW4GS5NER9FflQmZVy6ShCUaUZ6bWaRh3Y3uqBY0R577JGrXmoMpSqL9FmVxaYKo+0eR0f93XLLLZl8K1suCkNvFVAaaOLSVRmo+GkNkUPVH7vazBXI3nTTTbkKam8NeVfv247rVCO1ZqrhckQUxxrsjW1Uvl4BtquuuioXUyN7mMN2RvEtxc3MS7l0+7OKQ4NljvZtkBzOIfzyd3XPKN2ugm1vKx8POEFQQY1xYKhUJVRljQdaXZhLLrkk7bPPPpkRXXjhhbnKn3K1yhz7TDno7oC3+whnIiNIAkFqwC3C8irn+V71Np9Flbpq6CkiEFUGrT+/68jAuUY/XQWSUEzG04LX5ypqAJxUCFR6t6PUQmfjr28Cc/HHWDszYnWCQHGRubqStgrf1T/vbKydydq4jcH9m2Qd/fvbWpJrVzcUA+P++hVB6IggGAPZ1dfNWony0LsDDzyw0f6ErlTJa/1CY3EPY6lGuZSOfuKJJ9JZZ501G7xcp8piVI+s9hXGhgya5OB7zVw60wtjCpl2tDfJALjay5yEprmRgT6aInhdXcMmneuqHrp/rHVdLpwNwKPMu3k0tSYHpE4Q9N+kI/qLcZI5mbItIQvfsQtsUCv5BIC4pr6HqzLoql3inKlgqUpqeNjVfqr36wxU6/cPW9MqWhu63jSXuFfs+6pMVPqENYgyx8kY7Ttg63POYDSkmi1VPbe+3qHX1qDJHsZ8OruuM7l09L25qEarqaK61157ZTx7+OGHZ+9P1Ws50x2td33vN81nwAkCRQP6vKhzzz03/fCHP8xphiAIFnLPPffMjI63EfXbCYgnpAytPnoa0ta/Pi3smWeemcvqRlM6VkoDwxfytDGQFcpkUyIyUeaVByh8K/yDhSoJu8EGG7yjLKzPsW/XUWKKKrxoMVs1m1apa3+ee+65HDVRunattdbKfSvr++Mf/zjLkPEQPtYfpakvuL7OP//82bKiUD4zn/XXX/8dJXyRqHvvvTePVSluJYXl2FuVnDb+IAh+pwQwsqeEt7EqhQvA9HXPPffk6Qoth/dhU952221po402yvOzLjxg62qMxkpm+iFrpZJ5b6InyvaSI5DWpKBElpA74G0MSjnrO0r+/vznP89hbWOwZsbq3MTYsWNzRKoVqBmD0tr6j8iBMZFLPYJAR43R3Bg8BtU4kWHeCXCUe99mm23y2Mxj7bXXzuMlJ7pH/tYVoNP3iASYJ0MhXWY85OAav0dur7vuunTOOefkMuKIAv3dZJNNss4Ib5ujcCsdocP0C3EwZjKim/RXX9H8jmFUDtq8lMCma/qNMt7Wzb7QF/mIBhiT+1VJmr103333Zd297LLLcriaDOiKPeh7emL+5oagSyfqK4w2HeAc8Arl9K3nqquumvshwwBX46E/5ExGmvWmp8h0yIHM6YJ5uZYekS87YAzKdVvrddddN+ui76zhlVdeme3XuHHjcuRMJIFxRtyNj40CGNaXraFnQRDsW/JWvhugrbbaank+fu8exhNrK7JqXwFl+9XeIUNlyO1POshhCvlY00cffTTbjbA39D1sJd0gY/vaPtG/68jE2reKLhkPj9xY/aFD5GBc1luUiizpauhck30zF/enG+wYnSFzZzLGjx+f5xSNLtmz1sL6WEdr4U84Y8p6W2dzdo3fWxPzM1drYQ1EWKVkrYFzIMccc0y2HfSabbGuSAPcib4BsD3r/sZK742bvlkre8jvjJMcyN6620f0wRj6IkVtD2y22WaZIARpIDM6QTfgaES2rNu1116b9YO+Bj5YA/tnxx13zM53tQ04QQi2R8i8qDPOOOMdBMEmky/lCWF1sfFNQuSBEbXYQRy6y8w6IghCUQyXzcBg2ESUF6AG22b8KauQG6Wg9IgAArH//vunf//3f88KZMNIVwBBxo6xZKQo5Omnnz7bcFXH7x4333xzzusDAYpHOQGG8QBk93JvsmGEKC5DZqPUFTKAnoGgHObugBgw5MnKSTNSgIdXJARHmcickQHcPpfuaWpBEBgXxpoBMy4b7z//8z+zgbdRP//5z+cNZa3jgBZAc7CSwdxpp51yNMnmQrRcS0/Iy0becsstsz5gz+YPTORzv/71r2dja+M7C2D+ANHv/Pvwww9PUkeasCKvjwEhK8bQBgNOiGqrFIn7HnDAAdkIMUA2nXnZZEKTkWIwfmNi4I3B+OmKQ2mHHXZYHiMAp99A2B9G0RzI+9BDD83nZKwl/WEIAAcSC4zNmfz8sV7uwTghs6JtcsN+Q1foBLn4rXkhC/bacccdl9f3xhtvTM6PAGP9MDb0d4cddkhHHXXUbALLuLqv9TQX+mP+xm0+xs0IO7NDX1xnjRAbulE1+Ay4NQCudNB9/bFGZCRfzCkgNzKwryJKE2tIP+kS+VsXAEE3eIWRXqM7UoRHHHFE4u0L6/tMWsD+ZDfsb3uAUdW3vYm40Q96a17G4B7GQG7mZIwcBnI3dvuakT344IOzjumLXjhw6Z7G5zt7LQgC401GY8aMyXvDfjBOemnt6BoQC2fAHicvMqezSA79AFzA//jjj88kga1iI+g+fbH3ARYyhOjRN2tFT3yvT2tLl+gEeSG8TQ3xBnjWzx/XGwNCoF/6Y1+6p6gK3fJ9vQGw/fbbL9s1dsKeMWe6B8DIgZ0iF+dSyJp9Mm/6RVb2yxZbbJHHYD5kS0ZsMptJH6wjx8xc2UqRA3vEZ8bKrhmfSLJ50wt7hUwQHmNjozks7oPgkaX5uh4O0R+/Y8fI0742VvvEWrFHVeezuzjV6vpWBAFusKP0O84r3HnnnXmOcCUiQNacnpAFHao6IO454AShOvEmgkAZTZTCYdnVRrlsNJvdNT1pHREExmvnnXfOxmK77bbLhoDiAT5gCtAwTR4aponIUBLK4juGGbPGMuWE/MYCMRKuoYQnn3xy3kCIRL39/ve/z4b8scceyykVbNAYbBzgIdrCiGPWDDAD5G8AwGOuNxvW5mLwyM4mxNgZZKQHYDG2QtI2GsW2AcwXe7apeAw8PmBRb0EQGGd92MCMEQMNaACjza6fiNjEYTTMloxdT+aMBWPj3oDX+jLgxkzWNj7ZMOZk4FrG3PgcMAIovCzAGKDO2NgEmnkFkFgHYxVd8W+GP4x8fY7uSd8YT0SJ8UAE6Km1D4IgZA5IAJh8v3v7v7Ex4jYleSN/fkeHrA39IgOG1bwYQHOk5yeeeGImaAwc4DEGeqQfAEYXeQK77757NvTA1rh4SLydZZZZJu8jf9NF4yBnIEV36CEP3m+tP4/SvYCU5nfkykMHDIyqMSBLSDpy4nMyYKDoFANsreljFSQAP12gJ9/+9rfz7+wNewaJJjcGVV+MNINmHAw0pwD5sAcYfcTO9cCfHIyzmvaTZzZO/TGW5mxe5MnYI0Z+B4id1wDsZAeQyB4x0x8P0ffbbrtttglkAXz0Y52QAyQBmBs3ouQzZM+4yYRx1ncQBB7bKaeckj1hEVI5fWvvb7+h+whryBzJsn9424CNHoscsC/+hO4ibvqwp+iU+5LxNddck3WQ/gEMdsCeoA88ZnuFvrCLdXsbe4FOkb/5mXek8MjKntCn9WUD2Rr6jJjUG3LjWv3521oCZfc3P+Sa3jq8bu232mqrrJf6tBbmZ63ZaTpCrsguMKbTSKi15oSZq/7ZNPbTnNlUNoNM2CE2JEgoOwDk6Yf+7XH6LQ2GzLGHbBrZIphsHh1jk0WYyNrY6AZdYWuC2PYEp7pLEOw7JI59EO1EwuwzezwiydbK3mVbzdMTaPWUyqAnCIwU48kDBJR1QsHA2Bg2bk9aTwgCA0y5CNXvKbF/8+bi5ChlYJgYECEgoVGbD5iHd4r9ASZhOEax3hgsIMFI2Ijx6JdNQBl5GUCNIjOQDDt5tEq3BEHQp7HaVJp0BIX3GVBFaIyNhybkrmHliITrsHmGrxVBMO84mc0I2FyAx2bsLkEQwXE/hhfQMPIMhHkKFQJe8jFWRARxMFYtIig2hE1L9mQAqBhWAAloyVE/jAi5uhaxa2q8A8YkogzGBJTpQDWCYF2NEygECWJwASVd1X+rMwg8Ir+jL/GUDo/Jhhf+tQYMDgMNaOIMjbGYu3mbT9MZBPKvEgTGS1qKTlufkBlARkgZ+fDc/I6OMd7+7R4IDnIL5BAdRtreMD6g09m5FWvG+PPQwmN1T0BO/+0NzdzsKSkJpJpOBUFgpAFGq3M/gNz8GECeNVJnv/Bg7V+RQp6lvcroA1D3reuRaxFOe9z9kIamMwjAkZ66L/2PdKn+zIMRDoJAj8jfZyKQQMx86IZ70SnpHPpub5Kne9JfhJMcgACQZVcAKCAwNuOoGnzgRcbWBgEOgkCvgKBrw3snA3slUnLVvdCKICAqfhcpUxFTzoQ1ZnNaEQRRQiBtHuRDp4A8MDZef/NwjbEaLqd35ALkEBZEjJfv92SKsMSZgCpBoGsdnUFwzyAIZOL+dBFRYRs0RJuusE1SKkik37F95ouIWCv4xWlxrT/V9XCYm3ziybMme8NWsbVhh+vXtIoguI4M7BH4iBD6PxJqXdn8sEH2LH1qeupt0BMEoWpMh6dLMavN5rDBGDDg1ZPWE4LAEPIQKbRNKNxoIavgTBmEyykQY8OwM848hVASvzU/CsSQVFMCjAmFtKgYOBnE95QO47Z5Kb6oQncIAuWwASLPTkFsPgYSkeH52VjCY1UDYeMxSjZvU/ix6SkG+V9jBZLAqLsEgcFkEGOswqg2Hq85DmPyJIAbWfPueMM2rc0hxArUgAOvikchKhEEAWhHNASBcD/9Cm/XG+MJ9IUUrU3Ipv4UA51yDzqBEMR6Iyp02GalG3S3fkjRPRhBZBiwxLzjwCziYW68LF5qlUTUx9sVgoAkkR9Qp9fVZg68LySU0UcKhCQZpYgG+E6EhE4w2EBXlAPBADxAnefHU27KwdYJAuPFUwPA9nz1fQgMmv70DwSDICCRPLWOGjnTb+sqjMqztm+BL6OP4OgbqLuPdeOBAiZ7jN7SK0CBmPJuyaCJIDD4SLZwud81PQbY9BSDiKF9Rb/teXNHEOx3tgUAa3SP7XNvxEeTpjBma2FNjU1kRGQOoZOatJ+RWd8D0yAI5E020fRhXfXZdD6qFUGwNxHbmK81QUboFl1sRRD8DnmJxhaZN72hmyIb9N+eRyai6ZvjhODZk9ZS9MW4ASoZSXdy3npKEOxZ92dDAG01MktnyDHwx9rx1jla8VSSSIV9YG+J7lRJLDIBJxDWVo0OsM9woKl1RBCsvegAbPAnnrTxuUiUqJ99SxeRlab3cQx6gmCD2cwUmyEOAQMwCmQDCzn29DGxdhAESmhTVAkCsBSKBlqYP4+C4eBV1Vk59lv3yOO9D8KmQRDCG7Phga6wKEbYW4IgHMZwMhKYcOTKGJRqWBg5iNA5IK23JoLAuLmW8gVBoKjkzigEOLdKMdQJAqOuVQmCcLH/B0EwDx4SI82zJyfzYzg6IgjOIrifCEwTQeA1MDZSSR0RBCAnOgMUrV/VKCALAIaH0RRBAIp0GUFgGOq6Ql50RfQAQZBWaPUukK4QBEbLujJ2VdIXuX/RFXpsLk0EgccmIhIEwdogBz4HotJCxus+TWBTJwhIHG8eCSKL6pkjBhpwICKAozsEgYdK75B1ERq6CmCArDGK4LEz1pY+0Rnyp6MiBrxzhEn0AnHriCDYjxwBOi7y0xTZaCIIwMT8OAcdEQReJzJTJwjsCPKPACA65sPmWMPIybMXnREEKQzjM/beEAQ6JaTdXYJgflJ59EZaEglCLq1/EAT23zwALKCzn+IwM8BGFiItRb8Bd6QYuhNBsIbA2d/uH9Ff96cLxofQIChNBAFJowvISp0gINt0paP38Zi3tEdTJMde64ggsHXsBYKCKNB3+w1mitAhN/52fwSq6UmvQU8QCJGiY+4mAYw1nqEDGFh9HBjD8rTuvIWtPwgCIsMrZIgsTngCHbo8KWUDaGGRiji8RjEdhGFIKCVl726KoR5BqBIEMqVQWC1vQGpAY7QYbh4roymU3xOCIF9sIyEfvGhGjYJSXJ5h/QxCdwkCb8iYeWO8UCSB4aA3jERvCALZA0pehFB3PBoFXBioSDHw+qUiAIqQK3k2NREEYVjRDIZGcw9zQHqNX0Sn3lxjszOOiFGk16wREkP/bXaeD4ImWhT91FMMgByJoRPWNaIdIi6AxZkP0Rn9dZUgxHjtS2NE7q11U5i0ThDMQYRFGo2HJfce+meciBlDDTS6QxDoM6IuxeBv0QGenjkz9Ag3YBIl40EjJ0AVWQY48v2iOwii9QyCYPzIKBC0/hpyFSfn7XeEUGNr5IYZ/L4mCOZlP9Eva0AXyQ1Qib50FEHob4Igfw/kkUGyQzYjWik6hCzQR6Q9UgzkaM9YG5G/6gFA9oQT5bcAlh1zqLBKENgERBCBkdphh6JVUwycMjKUimSbIsUQh2ytIzKCNHaXIHRm/7vyfUcEwe/tX7ITwYWZ9hQbgCSLXPs9udCHpgjfgBMEm8ZpU0YP06MEjACviBdmk/JaeUw2GsMY+X6LI3SCqZq8TSpkzCh39e1e/UEQALlwG48E2QHIvNR4DArQMMb1xjs0P8qNffJ+AB8Z2BQUFjDFIa2unkHoiCA4LyF8beMgAbw1h3ewZGMAvg7lVE+kx7i7EkEAYLw/BsyaOpDIOPCGraENXz2k2F2CQB42q76ALMYPnOgWefeGIJgnbwJ4MbSAWdSBoUH+qocUrTG9dD0DJ4JiYyIpjJlIDZnyask0Tmy7DugDG/K3FubAIEpDIR5A0xjcj2cB4IA3I0Zn6JlDSYilvWRdRCX8lvGsnkEAnOTFOBszckJ2jC9dA4CMjNYZQWAgzYm+GKMxG4PwpZB104uEms4gAG4pAfsdmEkJ8HzpH6BjkNmF7hAE9oXei4Y4DCplZ33I1P4kR94WvXSgzl5iZ3h/9MdvXE/WIgpBEHwHUJEaeoBIGS9Czx5JeQFqxpduI2DsWV8TBFG0eGqH3ICg9UU6B1sEAUg5R2NP8biN198iANYZsWGHOCj0ku2hZ2yGvWO/ODhIbwA9Mkyv6SAcYAfgQpUgxFkHMmGbrRMCaK9VCYJ15wwggfaG+xsTzxuJAbLuz3EYjAQBFtJ1emf8yD6Z2POiTJwJ0bUgPnUMGnCCIJQY3qjQrIiB8J4JOazEQxYlcMaAAbRgNhuGb3GwQxtZrlvYjcEGQl19u1d/EQQGxyZwmI4y8zJ5S+bGsGCp9WZsjIrNAdiE++OFKg52MaLxeF5vziBUIwgIAvmJXIjYGCt5Gz+mD3BavTGuKwTBxhQNslZOLAMmc9I3IsRA94Yg2OgMDGClR3FYS5g3HkFtdQahsxSD9XGNDQfsjZ1REaUQHnYQK55iIEP6KydPhvSZd2Q8yApyIeVhY/rbOmL1jI5/8/4ZIb8FOnTF3mD0rZf1QLCktfRJn+iSCJCIAXnSNfIwd9cwDtauShCMCym3HnEIz3oYP71zrwhvdkYQGGB6ifDRVWO2pwEoUthUn6OJINjbiBMiShbGaG4cBoAsAqB1hyC4nrG0JsZhzyFh5IhM8QjJCoEgc824ERt6FOk9shR2D4IA3JAI4/M7ukv/zN16ArmwRfFkCVn0NUHgNLCPxkWGiCEQQ/oGG0GgIwCdnOgePWRLeLXkHoRV5JRe0Qe/QQakFZEE+xCOiBxYI3vNuQt9cHbikU4OBEwJ/UGyOQ6AUsQhUm1xSBHZZZfsBfoT9ydXjh1iH+A6GAkC2yJizfaRA8xgz+1VOuj8Bx1v9WrzAScIQn4GCjiqjWLwtACWf1Mc4IRQuGTAkZIAACAASURBVNak5ahi8wFQTEgOExPt6kspbGShRf1LBcTJfmPhFeoTOXFwjVIyaDwb7DReMgPEjUn+Ml4uIqzjhU/6FJ7U3AM4xgs1PA5FuRj1jt42Jx+NBQvVOs3P8Phd5IyMCxgwAjYJg9bUbDxejbw8Nh5Gj7FjyIw1DqroiwF2Yp5MbUYh3o6IF89OX8K18eZJm8/GZpzIRyMrQAtIGLLw+uN9FpF2sFkx3eqraMmaHHlsMU9jJG/jF5nRv7EL7zIWPESAx3jwAMia58ibt6ljzRAWZyEAgN80NX3ziOP5d3rIsPg/ALWWoXuAznrTWffneUh18OZjvUXP6L/v6TpZxLr6LZkaF6/J78givo/XxcbLfXi+cSDQ2BlNeiMFwgACb+vHuzRuYwkdNg7rhOgAOmBZT2/w0OgFoxqpCIds7R86qU/GlAwDGBkg86qeJajK1XUB3IC22ui0NaJDcs/OVMSLjlzHy0SiRGPcp7PGqNMpYzG/0HXeqL0uihdnXEJ+zs3QL3uVvbEX2RoELmRgXyIW9iEdR2Csr//TC79B0Oy5SJnw6EWBEIo4h2OfcXjoj36ss5AwI29d40VgsVb6i9A6XeNp29ueIDI2v0MKyU/Uw3pLKdGx6lrZbzEu8zYGqSlg0vT+ApEhXjN9jOJkiC2iVT1MLcVE/9ikagg/1ikec7R2bAtZ2a/GR/eqZzfMjyzsc/dHykVjq29yRCSsJfkggfZK2OnQS5HpqLNj/7AR9Ayh4MAh0PYLh9P8YwzInbnQR5hFzu5vz4dNixebWat4DwfiGY9f062u4lJnuhzfGxfdM5emg+NsgP3oYCkHRoSEDYtHk9kM+trqCaABJwhdFUS5rkigSKBIoEhgzpFAlSBUn2KYc2Y49GdSCMLQX8MygyKBIoEigSEngUIQBv+SFYIw+NeojLBIoEigSGCOk4CDg8Ljwv5SLaUNPgkUgjD41qSMqEigSKBIYI6XgLy/cxrOWjSddZjjBTAEJlgIwhBYpDLEIoEigSKBIoEigf6WQCEI/S3xcr8igSKBIoEigSKBISCBQhCGwCKVIRYJFAkUCRQJFAn0twQKQehviZf7FQkUCRQJFAkUCQwBCRSCMAQWqQyxSKBIoEigSKBIoL8lUAjC/2/v7n7tqqo2gJ8/wwsTUfzCNBqNIn6UqrEQsUYRQVGEtNiqiSAFIhpECWkMmPgRI2Ip2IrS8iGmQYkIrQreIJELibaRG5NKQrzQC6+8fPObydN3srrWPvvss/fZe7dzJic9PXvtueYcY8zxPGPMudbYaIm3+zUJNAk0CTQJNAksgQQaQVgCJXmdptewelWy1+DWr4NehOF7pavHlLy3vLXZS8DrU71u1utkh8rAzn4Ui3sHr+L2Olxy8gpZ66WvlO3izmB+I/NKY77Gq6WbzOanh0W588IQBO94V0jEe+e9D7vv3e3eN61IjvfFq2+gOl3qCaxFoAqDeG+3/oZa3qXtndxqL3jn9iT3Wsu4+q5VL1xZYO+c915v7ylXfSzvgV9v/9P4vvemqw2hCNEijWsac1vEPrwPXolohZTUfpiHXY4jF+989w58dTcUDlL7YNZjtabVElBvQklxpbkV/vHu/lk1PonvQkS8636ZgVWtBvVmFMVSf2ajGr2pF4D4piG/KmO2wGOjtHDqfRaCIABBRVFUlQPcSrtaaHXzUg1FNbx5SyER1bXUhJ9kMepD0SKkZKjpW4EhFd8UqVEoZlRBpVmp8JFHHiklczk6hUdE6sY0j7EMzdFYFDdSfW8SfXT75Wz/9re/lbK7Cie19nIJKGql2JAqbEoxj1sAhgNWlAgBT+GfaclWxI64KLiUIkgieUCjiIyqewoczdpuX3zxxVJ0h/1YJzJuihp5W9+smnLOCLwCPirmzfJes5pD+lV0ScVQgZECTxvVUvVTESENkVRYDLGjTwFIKqIqciU4FLi1NlsJzJ0gYN9f/vKXS8U0TkbFNVX3VPFLUz1NfXUV+lzj/2qqczxDVahGie2vf/1ruR8HhnggCwySs03mwP2BMWMEfps2bZp59NM3ZvM0dxW5VMUjn6HKeLM1leHep00QRDDKqH7ve98brKo4r7kuwn0nJQjs/J577in2LhM1zabK3hVXXFFKHXPomgyCqoXWrYp+AHRcMjPp2FS2VKZZlUNVJo3BPWdFTFQj5StkJUW61uv27dsnHf7cvzcvgsCnK9sswBCM8XGq3go6VKFURp0Pdh07Uj1U4NbabCUwd4KgpK1a9NKlFrcUlzLJNUEA6KJnEYiF73r13CclCJwGYqDZ1we8/iYtGfbPqfibLINSrUmd+16cHHKDWChBm9SpGuTODAxtf+jTVoGUmpLIoxymazhc9eNFfsmq6MNnvuteyrm6n3Gm5T5IEMfVvU/mYdzSehi8qDIZAEQEGav/NmSKfQTB/W0X6cd+Zh+pIXspaOWWlTNOo9tvfetbZWtFKeWhFj26v/kYr/ka89BWh2yVOXfTlrVMjdm5CunNvALW5+TsMySyL1PCedGHuXQBib70kVr2bMAYxiW4+vUdeh5FEHKdMXbT+Ygm8qX8rNKv3WZ85GNuzjf0NdfU84wcfv/7369s3bp15Yc//GEp951GL901lM/8HbDKEtW2G3Lhu+ToOrYkhb8aOZZ9VO5dOXAEs6/ZY//f//5X9NS1k3pdyGYqk13bZrc/WZxdu3aVkvBI/FVXXVVsN+XOMxf6dy/yY1syG0Nl2V1DLmTbd29jpFs/CIr/80FZ4+bnLEGfDRgPG9Z/5lb7hi5BqOVRzz3bs9MifCEIZ511VrFRW7p0hOzRqYCBbK0BdnDJJZeUrHNrs5XA3AmCxc+pWVAyCVhhlyBw+oBXyl+tbosRcE5KEGqRAin7uBblXXfddbK+umvUqRcNiUTUZwdA9uXUAWeoxgJYkRegJtugD585I+F37NdCtqDsxV577bUl/en/HCMnhg13AYWjvuyyywqLJiOO0Z4cB0wWe/bsWfn85z9fziOQj9/1ZVFh3fZdOQGN80Ay1GrndKTxOPF3vetdpS9bOxyBlL7+yN/3ORkgyWmY/1AUVhMEDuPHP/7xyve///0V6V7N2Hfv3l1Sl67973//W64RyboH+dBprjl69GiZE/A0XlssN910U0k51o1e1JEXtdl3VtvdwTSpUXOiA83f1IlHQgENRy116cyEevbGrNa8CFgWiaM3dlGvLZ6nn356RRr52LFjZaxnn312GTu90yN5GrvMF3uiJ33deuutJ4mI2vSK0zg74O8cO2JkDObQ52jZJBIKcKTq2YE5AWJO1FaZ8RqTczls8NFHHy3zBbh0TObkbcsMAadncqUHn6l571pO2NiM0Zw4aIRZrXjy8jdpZ2vu+eefL3LlzEV2d999d1kLbC86cy4F+SdLdof407FmrHfccUeRrfVjntbJ7bfffjLLYEuCnOjeunJPY7AmfFYDsD7d29q45ZZbyvzND7mjw4MHDxbZ2QZgA2SqIa7+D3iMGwkXfNCv8wt/+MMfSsCAqL797W8/xROzUUTL1qdrrZmcGarT88ZrvgiaNYp4kLmAx3iNQ6MnOgWGSIT5vvrVry56Mu8cSEUsZID835ysoXe84x2lbzr2LzKr33379pUtFjbywgsvlK1Ztp7sqXnxU7aGtJogkOOWLVtO+pmQOP7r/PPPL5kSfgXRWG8LQTBfdpdtKrJjo+Zk7fo/OUW/9HP48OHi41qbvgTmThDqKQ0RhPqajSQIQEWVMUwVKbD4Ez1Kd3FqwIFzEA1auP5mYQEvAGzB+47rPvCBD5QI8NJLLy0OCZD/5S9/KQ4GgNQNaRKdcKzSt0DEgjceTsCi4biBOtLiEJhrOBeOyPgACcdIZn//+9+LI+cMOXqO0L05ec5GJO869xBh+C5glx5GZDgiZKGv1QQBOQIEWL75AyQLmIMXZQIO8925c2dxaiI9YEy2xm8fGxg+++yzRSYcAAJHrt0ok2wQI/d3nRQl5wuYXve61xVg57zIkZN1DT2GFJGfsQBD37GV5G+yVwgEp2NMQDEkgN6cgdm2bVshTX4nK2DPEbMD+kJWOHUOGrGh+z/+8Y9FLn4XGbo3IKAPmbFu4zSRA8BHbuanb6QRsJITguA6RJY+AZa5uz99IqTWFcJEXsYrYyYbRe8A4Jlnnil68Df/IjlkFrJJj/SHyAIt5x/Ml47IDokwF+sFaSI/fYn+2I0xWQ/+ZR/Ik++SG50ALnbGZkPSEdWvfOUrJZPhzIS0svLA9MC+v/GNb7xMXACPXBCnI0eOrLz2ta8tcgZ8CArbR4Bi70iJ64CdNcOO/G5dGJtgxPfpE9HqO7BHb+TOThDUkJq9e/cWvSQ7AdzMBaCTpbXKNhFK85VSN36kGeCaK3vnAxA3YK8PfoOtI83+JWNjdLbE/a1dtga8EYJDhw6VcdMBwDVPZIkdIZp06jPjIYsuQWBH5Md/GRv9aAg5u/Sv9TGNg6d9BIHvYrv8L9nShXmah7Gx1Ve+8pUrO3bsKBmZ1qYvgUYQRmQQ+ggCZwDYRJAclyidQ7T4RRAcg8UrcgG6HAAHCpgZ+oEDB8pCt6gYO6fLyXDe3cYZcxiyJZyoRaFh2Bw/QAJAxsThicw4X9EPwLO49SElzVlbYPaEOQaOECjbk+ZkbONIzcpyyE5cc801BYREOJyDMxtDh5ZqgmBeHKd7J+LhMEUuN954Y3HS5sqxcHrSsxwpMMpWzrhbDCEIwFzmiR44U+lHTh4x8RmAB4xAU4QCADkccqUfOiMvupBRIF9OmuzIhaw4ZREvGXJcPhOh+q77iLyAjOvoHQiH5NE/GSNIrtOf75onJ0veCF+30ScSgkwY5znnnLPy0ksvFRmyoxAEzh346hdwIkWiLKQC0NlSAAhDWwzGikCypTwVgVCIcI0r4yNjY77hhhuKzv7xj3+UTAjAGdpi6BIERABgy2jolzyBowwNW5SRYKvWl3nSJTCiNzYIYI3R2unbRvJ3dowI6kNDGtkb2/c5QKQ/BIrONAdjrTEyRBR81xjTuiBovbFf65NcrGEysM4BtL8hUZrryMwY6F8gYRzsMtsySKv1zC6QHAfw3MPaRVCQZbLJ9hVipV8EzxYhe9WsM/ex9sgAaWQ7/BG/wPbjR6z/rBUAbR3XGQRrmA7Yj/VCb8ZE3xp7qbeCZTL4FlscoxrSIktTtxAEQM+3ITr0ZY7mhiQj0W2LYfokYFSPjSBMQBAsWItVNClC5rRE24Aw5wSkxBECi50DZtxxVNl7tCgYviyAyLmbZl6NIHC+ot44r5znQGA4+DRA728AhxOUquMIRRUiCqAGWKXJZUOQBFkDzsBWgegHCHFGfa17BiFpd+DKeQFn2zXkBhBFTxyz6zguGQdOJ1sYayUIxg1s0gAhRyety1mbq/nJvkTGx48fX7GVwRn5bggChxRCoD/f49yl7kXHnC59Al6ZIk+XcIhApU5z0j/AkzaXLQlBII+kx9kHguRz4+02zp1tmB+ixsboJKCbLQYgJeJGROrH+RAa30Hw9NNHEACGKJ1DJp9s45gTYAF8/gUkAFV6vi+dOy5BYEuInfWDXKWJ/kXNPpf2R9IQOPMiIw2RACCIqjR5X2q7jyDIPNCptUl2aTJlyIa1BzwBnOusa7oZOofh+9YQEm3cMgGi9xMnTpSIV39+AoIhCNYWe9To1r2ss/vvv7/4BoDsbwhR5oaEmb+xycJYs9YJfSCJIeFO+VvntkMC2tYRooLs5CwP+5OBpEf+h43yCfp3z5og6IfsrE9ZDnZmPEg0sqDvukyzNYVQ6m9U83QJm+4jCOTgDFHeZUFe1h/fY96NIDSCcMoZhFok895i4Bw5BkCXw3EcM6fCEUttarIJHDjmbfFiwaItWYdEPpw9kPF5op16rqsRBIvXd9OQAguUM+BY64YgAGzOjCPhiDB5TsY8OA4LkaN3BgEAagiOyJ/jBXKrEQRkRdQhvQl8pNRlB0TVnKdx+T/CwRFKGYuKOBwAJupaK0EQNfluGlIjIgUwyJuIUrQEIEKmEDs/5GUrIASBg+UMQyToyL48/cQhkyVSYcsFINOTyL6OaI3BHroxICEhCLIKOWgnOhRx+uk7UIdIcYxIBh2k/+4hRQQD6AKk+lAb+SOm9DGUQcheNeAFUPW8yQc42GsGSLZI9Nl3XmJcgoAU2NIALiLmNNEiXQFDQIRsswPpZJmMNOQKKaOvROi1TfYRBPKiAxkixKNuIni2KPI1L+sC2O/fv39k2hrYu9b2mGjfd8mLrQBf6x4QaiEItocQNc15FnYpWAD8SDkwlAFiN7FTW1DGLsOB3NCj9YrMscccEkV0gKetoWxXWWt+kLFsQcmK8EOA3b0RI9kmP2yge0jRuqUT9s2/0Iv78gt5WiXyRDjMw1mtUQ3xiJ+svytI4EdlQHxu+4r/qA+TNoLQCMLEBIEz19ayJzbqkOLQFkOXIGR/fIggiJKBE2cslTvuM+hrJQhJW1poMgNpIiWLkjPzI5MwK4LA2XIc9nqz9+mQmbSxv9fEhb44Wg7IGLPPGoIgtVlHmd2lkS0G0Xq9Jy0KBdDAQDo5kZosxtBByyGCUN+T/pARJILTdk8EAeiLnmq9IiictTmZdx9BkG5HDjjtPoKAPDlEZj4IUIiFg38yGXUGgeMOEAy5EFkIwCVqtM2lsTH9SlnTXd9bOq0RmSoyAhT1uyno0HoblyAgOsijsdZPqIi4N2/eXMiB+RrntAgCGwPGtmhkVdIQVQQMIaZb24XjEATRrcyfubDz+skKdmyNAWn9ks04BEH2wfiQaO9SSJ/WKgKosSd77pMQBOsIQaJDY9cncmELix3KGPURBNtpSBq7t97YPWJBXwkipgFZQ4cUu32PIgiT+P9pjP107mPuWwyUKr2lcapAwYIWzTDgpLBc41ppYQ5XGhKwSLFJjYmKpbLzVMG4j99sBEHgXC1QgImhAwRjtvhEtn7ve1vYWgmCqES0hYSIPkWUohr3lR0gU/vwsgizIgj0R48csiibPvyNs88eLGds7iI1UTEg9znZOHCERNCv79uWyInlLvELQZAJAdrmKzpyiC6HLh0KRehEv7JPgJBd5TFOB7CcfRgiCCIrERH9cKBkjPABfOM1J/0aq7HrC0AAHmArfSwlPglBEDVy6sYIUI1dihcxAXQ5g8DBA1s2JmPBcbMd+9p5WobsZGyAjycnZAUiV2OTFjYfB7+sKeApqyRKBwiAAQEGFH7PWQsRrv1xqXYRsOjX55rvdc8giELd2xpGBsiIjOnbNk72utnAtAiCQ3wAkX/gW+zBkwviCuSBrqwG3Y5DEGQI2LenHuihPmBq68Hc+Km8QXIcgkBX9EBm9CBLhYjIfshEWNdk6/NJCAIfJNOJdCJCMjHIB13IbAxlEOiRzyAXvoT9+R3JmGYblyBYt9YhWVlb8IH/TLDh/9bbao/DTnPsp3NfcycIHDmnEPC3N2eBiVKk7kQ6jIeDZBxSYiIo+2AMgbFwmDmBDPw4tnENZKMIgkNz5mVLQdpW+oxTEGVIcQOXblsrQbCAs/cu/Q3IOHpOBnCJHMktTzHMYouBo7VdQP6cMmcKfIGd6IjTt6dtD1nEaEFb6OaKKDhYB3CNPU9iyIgAynq/k6xCEMzNITaZHKli0Y1De4gJoijSZiP219mTveU8PYBY+O4QQeDoZSPISnqXfbE/QMlx0yvCR6+ICccrEkfSECXXGcMkBIHTBubS8WQlm4DoADKRlENiSAESxraMxTkJ6wK4kAXwQxqkbmWYEABZD7KyPeVJBnvS7I+j9XSGtQfoACBg8h16BSb0mbMKAVugb0y2DMxfuhvw29roEgSRqu+TozEAV7LK4UVbc0jdNAmCdQHQkCPjMh/y8eSFz2RfjCU+ZLUthjz1AXRt/3TfVWAO1iF50d04BIE9u5a+ZRKAucwUWzNmfVi7iN4kBAGBpEtrhq5lNNk2m2FLQxkE40K6kWwZVbbMBm0HTbONSxDc03Yt0i77wb4d9kRYEWn2xL/UhyenOc4zra+5EwTs3j5w0kNRgIVgkXgOGuAz0GQaaiVxaiIprDjPGNvT6z4SN6RYjkL04l/3qh/l4zhFXdK7FgSHzRFzDMDPYgFsUtwiYd9P+lWKn0M2bucOzA/wSXNziOYiOrOfKv0uFd5tvgM8/QC7vOWRM+VMONHua11lJEQ1OVCmT9dwyhy3MdsnBXoOPDksZOyckQjRXrCUYg5SIhceEeNc86x0d5xAxRzJEeEyXs7EIraAATwiBEDyPD6yQvcagDa+nOI2FnLniDhwBxp93n2pUAgCR2G8oiOE0f1kl6JLzs/jYp42QEiRJlG2+dAdBwywpODJA8gmW4GQIhHGwpHaRgAmHC6SR//0TK9IELCmJ2QhhMEcPWZpfKLk2KYI0zyRIZmIPv3TFVm5v6wL8CdrUR27MRYNuAHqpMvJSkbFVgRAjI5lOtg120JwkFWfkQ27MgdEHNCzSaACsKwPpI5diyLphTNGUJAfDp4+2J7fHeRETJA1tmP+CIn7CgKMlczZCN3pg47tPZO98TgHIBtBH2nINPkC0r5CVfrkB/iOWqZ8CLDNo6X0Zu0hkuyODNgG22cP7KCvf+OnCwdg2Rjb7z5NIVOBCLMx5ANJQuaMK4eYExixV7JhE4DY4UjEy2G9vK8D4eZ/QpDdE2Gsz6VYe+ycPcfuzddalO0gD2eQ+A3y1zfCiWz4O/vVv3XL3hGqvEfEnEPY6AdBGte/jguobI7MrS92OWr7Ij4JiRVEsi9j51v4G34471EY9/7tun4JzJ0gABQLo68Bf47KYkYA8vau+lqAx2HUb9ILkI6jdMYv5e1faeR6j5qz58BECJyF++ctaPUJZ4aq+X6cBTLBUfpb/TY+WQOfmTfWyznqa+jchEXveocjMzbkQj8inb438ek7b/0zLvfg9LLt4nPzssiz52xuAFAkbJHm2tXupX/OjnwSSemfvvQlk2B++qZPY/F55OD7InsOoXa07hu96JcjHdpi4GBFEUCATMm8+1Il9qE/OvU7nbAtY9Iv0uBz8qhPx7ML8jdeAJ2qld1r8gpwQGrOiGI9HzbiHpx35pF7Jo3fZ6/uzwbMzbiNmSzcj1yTKXMdYuU6cqc/17m+fusjmzRPjczJyXj0HZ34nW3o39gy3qyVbPf5vH4bKNnqO4dTyZLjR1rppB6rccTejM9YapnG7urvGbP1Zx2w/b41Q6ZkY17dNxXSTWzAXLIuoqecnNe/sQ+tyci5O7boTz/s3/dlQzJX6yrAmnu5t35qm6AH86fD7trNeiPLelvSvOitfounPrJnH9mzD39zP3O07l0HWP0tY2W/sZtkMh3MRhQQjmk3+oAD5GFcQ29Cdd/Il67ZONsxdjKPPEd9f9pjP537mztBOJ2F2+Y2Wwkkg9B9imG2d229NwmcWRKQRXPuII+Ddt9ieWZJ48yabSMIZ5a+T6vZSotKszrb4Ke1JoEmgelLwBMqniyRzvd44zQqtk5/lK3HWUigEYRZSLX1uSESkEp2ZsKpdKnc1poEmgSmLwFbRM4L2devC9NN/06tx0WTQCMIi6aRNp4mgSaBJoEmgSaBBZBAIwgLoIQ2hCaBJoEmgSaBJoFFk0AjCIumkTaeJoEmgSaBJoEmgQWQQCMIC6CENoQmgSaBJoEmgSaBRZNAIwiLppE2niaBJoEmgSaBJoEFkEAjCAughDaEJoEmgSaBJoEmgUWTQCMIi6aRNp4mgSaBJoEmgSaBBZBAIwirKCHlbOepK5XyvCPd63rVU/B+/LWUtJ7n2Nd6b3UCvM/fXLdu3VrKIZ+uc61lowaCl9CoR+C9+9OaMzmyHa9FVndg2u/QX6t+2/VNAk0CyyOBhSAIQJgjUyxIIRTFQhTCSfOOcSVJFQ3yYhzvbFeFzus/+8okryZ+lfu8ptc764eaAjfeha5wiMIlisTM4/3eXm+qWJHKeuoAeJuZ8ffVYFht3ov+OSJkropZmauStwohDc2VrXg3vHoBqud5icuytqeeeqoULFKJThGmccuVrzZfhXisE3UADhw4cEqNilHfV1PBOGZh997v70ffIUOKCFlv9PjTn/60t1jSavOd5+cKRSn2pP7EUFN4io231iSwDBKYO0FQcEPlQYVA/vSnP5VCL6qh1eU6VWtU1U0hEkVYFDNRdnbLli2lOl5f1bVRwtefaoaKfiAn6qJr3saXwkqq1CmsoyqbuvWXXHLJTBzlakYiqlRrQNU/BYnMu644udr3l+lzzlWJYCV0gZriK4rI9DV2AkhTE953gMuytkUjCEBO9sYaY3fTbIiBSoMyG6oyJhgAsMpyK76j6uBa1/U0xzhJX6owKvGtqJem6qXfrdcUS1K501purUlgGSQwd4Kg5O2ll166smnTpgJ+SuI+99xzLyMIynuqW66sr9LAvmMhio441vPPP39NslZ1ToU+jgrQyA5oQCblWFVRk7lQqZADUzVMS1lqUU/KT6cioM8RHsSjW02wHqBr9IOMjEolu0YpU/XlyUUd9LRsfRi/+bhfHelx8JwTJ9tNK9dzcI3xmEO+b97m1u2znoP7ysDUcx9HCb6Tiof13I0pZEwkyR5GNeWNkTh9KYl80UUXlQhZNqFu9RaRSnUq9Y0CHrJgF3Ho3b78P9UfM4+6Sqb56b8v6k7lPN8ntzpL0EcQXN+XSVht28vn5uoex48fH5lBMF42EPvOfFMF8Iorrli57777Bkma74+ydbbEFmWB8g5/cpPxQbyt5di1cShzbNx9r/RVRZE8hsowRzf6d+2Q/WZMbMG4prWdQxbkpn9NaXj+47vf/W4prayRc2SdcbKVUTIcZ121a5oEZiGBuRMEzl1te6k39dJtM6hpX2cQLDyLOU4XOAEHe9WyARbipE1f9vU5VeldNe7TZDJsd4hU3/zmNxenI8I5FqGDsQAAIABJREFU99xzy+9S3JzBeeedV/Z3AZvISHle9QFEYGedddbJ/pRkBWJS6L4nOnaNGuvdBqDJ4qGHHiryMEeR1eWXX14AXV1741ZrHtkRmagb//zzz6/8+te/XnnhhRcKgKu8duGFF5YtGc6QA3vggQcKOeGobFeYi/GSKSdt++XEiROljPbHPvaxsice2RuX/s3dfW3xGMeHPvShkRmWY8eOlblwmByjbI2+OU7337t378qDDz5YAAMoyRYZj22GvuZ62QaZJ78DRFtQ733ve09eLjMkEpW6Z2cyVGRAXx//+MdPbk/RvTMA7Mk759mElDzSIYIOSN9www0FuNhC9Ey/ImxZLdkMciOT7du3r7zlLW8pYyGzJ598spBZW2n6I2/6ev3rX18AqksQ2CKwdN7kTW9608k50Zf1gtTabuoSGOT68OHDJXplL96fT65srd5iUDaZ7SCe7Anx/shHPlL0oQiWrN4999xTxucsCFuQxQPebIgN2P5iA0ovszF2EDtBbhD7I0eOlOsRbv24TqbIGJF+Zy7Ii429733vWzl48GD5PxtAKNgKm7DVpKogWb3mNa8pYyXf6Obhhx8umUBkg22SnflbF3xLxmWrkh1ai2zBPa2taW3p1PpgP8bEh7z73e8++RFbfeyxx8q2qXEYm8DE2j777LMndWXte00CU5fA3AlC9iIRABX5OPQuQejOmsMBHpyGSmMW+aRtFEGQAuXEOR9gpmiJdCHw4qiAhbMBIhrOmlPm1DhNC/+zn/3syne+853iVDkF5xoA5TnnnFOies4cUAKbmkiYizlef/31ZY5S7UBCdHzrrbcWsLvpppsKiMm6GIfsikzDrl27Vo4ePVqcJweItJAtkOCEAYN67mScevNIgX7e8573FHLjGn2K0mVnzAFxoitZFjpSLx6oODcg+rnlllvKfPuaa4xXCtk83NccyBFovfGNb1wBvt25ijAvuOCCU7pU014VR2BpHvRkG4Zs9BNnD8CAg7nIsiBiiJOmb8SPvoAJ55yCNOSFaHHW5pUMk4N++gZgrqFTY3n/+99fCAI96Q8J8l2gr7a9bTBkBhDLjLiO3dDZD37wg3KAsEsQzAVh/vrXv15kl4boISHIYzdzRr6uNW+AY87G51/fC0F48cUXy/zZHbKDRD799NNFD3fccUchUvv37y+24zN6ZrN33nlnsSkpcuTBWpBd81261CeirLnW9gEiTBbWhjXDNv0dAXnppZdKv9aPLCJAtbWkT6DqXta3deBa40Mm6emtb31rGSuypyEvMh3GGx0hP9Yl+wXQwJocZDTYOju3/hGKWVQoHCIIZCAwoHc2aVx++BpjRaZaaxJYBAnMnSDUQhiXIDz++ONlv9lC59w560nbagRBhIMgXHzxxYUgABsLmHMCKgCfk+KUgLMMg+j8bW97WwFOUe073/nOslVw2223FQBzjajBOQhlVP3NYbtuA9y+47vAmjMxV9Elh4gwiEzrrQdgiQjknIJsgHtwvPoCDgiC6M6/IvB//etfZS4iOhEkMgEEEQ73kqXhwAETogB0HdwMQQF6HDAH7W9149DdxziAGseIaJALQOH0EQhz9X/gU8+1L7IDYA56IUH6NH6/i07JVLSrAcrNmzcX8AJoPpcV2rZtW8k0AGdykgEwPuBKrsgb8iHLIDOCEInA6R3II0KIElKgf2SQ3NwDmHL0yA65IbIO1rJTmQxA5Ho6QRzM1Ri6BAF46ctY77333qIPJA54Ik2i4DotLVsUQkHPQBXZ++pXv1oO/JkLggCM2fOOHTsKqbruuuuKvRqvcbNF23fmiQSyC2QBuBu7bT32jjCzWeMyNxk/4Esf1qX/A3hzREKsHbqlY9s3vrtnz54SRbMf64EsvvCFL5Q5uqcxXH311eUa9iYbINtDH+Zl7NaSTNg111xTrkmGguzcj57Ysbnu27ev2KLtDdezQ2SN/Ke1zVDb/hBBQAaQOXqkD+Ngj9aAMcpQttYksAgSWDqCAOA4V9EP8LryyivXJcdJCALnal+RgxYhASfRgPEErAGNNCKnxXFKldtakJqV9tU4J2AuApU27jaOg0Pl8EW+0tKJzvSvbw6169xEjNLa0rPPPPNMcY6ADICFIHDYQFG6Fojb/0+aXypYn7YxpHI5ZNG2+YloRe9SwGnGIHUO9LPXms84wpzaFu2nuV4EDexFucBX1GwcIsS+bRffJW9Ah0yaj+heJG98MjKAxbZATRAAEcAEWO67c+fOAu6cMZkCOan0Q4cOFXloZGfusgHmTX7G6FoylVbXXONwmtS43zXyQmCBE1vNuGWWADmbYz9S7QgmktR3BgE5EXlnm0R/5hICUNsLWwKY5A2U9amRCfnLUJEbvSJCdAsooy8gv3v37pJ5QLLISvajewbBd/ywKQd3MzfkGKAjCLYEEFJEioy7begMgqxNTRDoCnlAbkTWiJ4m+6JvBNmcADzANydrgtw020b0yl6RBWuPvdgKQfCtQ2u4S0LZIxnJ4g01crQ1gcANPeUxRBD0yQasUTJj00iMTAxdW3+tNQksggSWiiCIiCxsQCaV6XfAvJ42CUHgjETeonmLGyCJwjjHAJvIRgQpShU5SqWKAEVWyXj4rqickxbRdx3VagQBqNR77qIraWF7yyLlpJiRC45R2jYEgWMCsKI1vwMsY5WBSJ9ICwcIEICMyJID8504a7LnyP1NVNglCNKpInQZBvevGwcqGwQYbD2MQxAQG+RAihpIAXg65PxFyvTifgAuGQRALHIk33//+98FSJEQ4wH09qo5ZYQuqWa6EU3bKzdnY0UQXC+KzqOXMiLk7f5J+TuLAMCQO1sUiIHxAjA2IFIE/PbU9SUr00cQzMdcsnWESJK1vupzCWSqLyDNBswrGaTuY45syphlnkTZtr8CWGTLVm0BsOc+ggDAkTDg6nMtjykjF+TPlulSP2Q4KUFwwNIWge0ZpChAzIYRZJG4cyO2MKxJ9kpXIYi2JaxHhBC5YieIC0JHz2xbhtB2Q02y6YiN0duoJlBAkoYymEMEgR8jI2vDGJFGZIbMbc30bautx8e17zYJTCqBpSEIFjdC4LE/jljaHTisNzU4DYLAcUtL1wSBU5dyB7pS8hy61LI0cPfEMmcuQu22tRIEIMGxSdk7JAcAOFNEBQCOIgjGBUi7BEFUTO4IgrQuUiFyqomJcSMMtlK6+6ecNnCWQTGONAAs0nOIzXkEgDMOQUAmfE/WQDQfUsXJki9wkBkB5H0EQXQomyAKJQ9bIggCHdWPzBqfLIDxySCIOvsIgkOEDvXVBEE2QeQdgiAzgVyxV6CB1CILsmC2H4YIAmIny8J2EDxAR4+2CLpRawgCexZVJ0vVRxAAmyhf1iUZk+gFoMqI2SboIwgIi0OuCFA3FW5Lgp5lkpA3oM5mJiUIdIQgyMLILIW8IdVsCtkja3Y+RBBkEGxTIAgAWFYAKaVXhJD+/essUBrCgyzlaYQ+58rvyGCMeiJmiCAYswxFtuucm0B0kIRGECaFsva9WUhgKQiClCRCAGw5IOlGEXk34sbMtbUc8tkIgpA9b9E9IBn3UOVaCYK+gRrwlmURHYpMRU32jddLEES0CAiwkyEZ5+S3OSMXwFs6PZG3/WZ73iIoEZsobByCwAZE5eZp6yYNYUDQEBKRGbIyDkGQigdsfgCrsyMagGRrQABBAJqTEASyQkjowxkPh+uiV2lvhGeIILBnWzoIAXJhO8b5EOdhus05DPdxqA/5kKlyH2AITGV2zI/O9CnLwR6AWB/JJk9zF2EDtOia/H2f/t2vzwaMF4EI6QqZsV2DuNG1TMPNN99cDplG5t0tBjZD7tYL8pr3Jdg2kUFEUIwHyI9LEJLxQC5s1yAzMkDOLky79REE5EMGhy6RcvclH8RLZqgRhGlrofW3HgnMnSBIt0qHa1LUFqtDWQgAZ2Lv1KKRZuTIRBIihjg10bio0f5+3o0AiPLCo9WEsxEEQRTOGYsApTORHWcVAKP5OsSV/et6vGslCA7WAYNEqPalOXKAwWGvlyBIuRo34sG5i27pT7oamElxd9+5YPtCSl9aGqADd5GZbQuEBikQbZrrOATBmQ1bJ0C7fnTM92WXjIuzlfUYhyCIzn0HYNGB/Wq2Q0fkRp6A3LwmIQjs1t6+vXFjllkA8uYKMEdtMQATGR1yBdgyHTIFfW+WRKLdQ8QOdETvIlJgLhOBVCAIdBd7MHfzRIQcihRJ+xtgB/zWFgJl/siCaJ7NIpuyC2yLTumD7dGBM0HGyqb9S/ee3qEL21iyNM4VGCu5WLO+Yz+ejOszCGwL8JMBkinjEdLkrIWzEuwawI5DEPgXMpVdMz/3zmPE9WPVq/mMcT8fIgjmYuuKXB32RMCsAYdrG0EYV7rtuo2QwNwJghPKQ3tuTs6LCjlIQMoBdZsTzJymiFR069EmTmzcF48gCIBB36IUxCTNPbF9KWvXiDrsd3JiHGvOIEh5c26imaRsfS5Kk+3wuf5F8hwSx5eX4PieawFRt7nGPq4f88r5BlFPHvMDmGkA3D0Ar3sYn9P3DiE6AQ6gyIbTlpLnjHzud+Dqc3NNn7IPdICUSdNyxMAN6NkLB/SImjkAAVFyHzFD3kT8oqa8vRLIiQLJHGiZKzkAdlmHvufB8xQFYmKs3ZciASF706J/9uB+bAsZQc6AgsOJQBRo6gMA0qu0u71p9gBEzInegEre5siBA2mZgIA0Zw/0pIhDWPKUQB5RFBnai7dnrm/ztSXjvmTM5tSgoCNRpW2LRObILttwnVQ7+Qw1/bMLhM08jDGPp7Ida8m6kGZ3H3bEZuiRbvMIIyBmO+YGvHyuH9kIMrdVhIAkDR8bQH7Yu36QDesWoPu+/myleaTQ1pB/ZSDoSbPOEDtr2HXGqh9EgL2yCXNKah/IA/icgzBv+kMasv2FIAN+BMR4bfk4o2Bt5KkMxMm22XqehBrSh/MJdGIuMlppdElWtrvYg3kiZggVvSBorTUJLIIE5k4QOBCAlrf7RSh5IYpohZMAMn0EwSNTFrkoxilgiwzwjJP+di99cqiAyzmAGnSc7OZ0nDHIYT4AD1REXcZo3KIn/zobkUNf9pY5P31mfzM1JaRSOWl7jxyYVOnQSWjEwA9nkzew2Zt1kl6EktP0kZv5ixA5JsCmb7+LfgEY8ASkxsKRkh8ZACLRrENq6ZODJRtzdQDNfF3rgB9ih2wgBOSBVJjPUANEUv8O55G1ecumRF6+J5MECOq51v0B1Dy73z0M6To2QF9S0wAHifH4Huec8QMHAE/+eTLBd9khuTgYB4hcLzquCQ+w5MzZW/2uBWTDNlIObiIywJS880ZI9gAYjNHYydjfcvjRFoHvkGN9tsZcRMcOtRlfXr40JGc6QUiMAcmSnrd2jJe+A4TkYF2xLXIC2nRiCyRvkSQT5Mc2kMwR4EKc2A4bRMDcjw4RiO4ZFHIxZ3qzfmQ2UjuFHbl/HnEla8QAUbIG2UbWhHuwN3bnb+yRbOtsla0Kc6bT2C9bdz6EPMkcEWaDbJ0tG7M1O24wsVaHbbvH3PmPumYM+eUtsPyGLRaZUmuajpa5pshaZdSuX2wJzJ0gLLZ42uiaBOYrgRTrss8uLT0rMJvvLNvdmwSaBBZRAo0gLKJW2piaBFZWSipcetqJd1sdUv6zSIU3YTcJNAk0CfRJoBGEZhdNAgsqAVsdUu62IrwsaKiy5YIOvw2rSaBJYMkl0AjCkiuwDb9JoEmgSaBJoElgFhJoBGEWUm19Ngk0CTQJNAk0CSy5BBpBWHIFtuE3CTQJNAk0CTQJzEICjSDMQqqtzyaBJoEmgSaBJoEll0AjCEuuwDb8JoEmgSaBJoEmgVlIoBGEWUi19dkk0CTQJNAk0CSw5BJoBGHJFdiG3yTQJNAk0CTQJDALCTSCMAupTtCnV/B6lazysd6bP+6roie41cRf8VpYr9j1WmCvuVWQ50x5s593EXj1sFcAr7fEeK0ArzlW7prO1XlobW0SUM48r+/2umKF3FprEmgSmI4EFoYgAEjvdlc3wLv4VSSsm4JMPudQ1YVX591760fVYx8lIu9l9650Tt/75/VXN++JV4vA++Xr96hPR+yn9uK99Sodqtugytu41ShnNZ6+ftU5UPBGjQrjU/7Ze/H7mvfNez++OgDeNa8YzVC9iY2cw6T3UlzHfNTR6KumOGm/DzzwQCnGpbCTwliL3NRNUJtDEau6+NC8xoxQWyteJqW+x+WXX14Kiy2CnVkjXpM9qqlvoVDXrMar3kVqpiDzalIk8ED21T3hdxQ/W0R/My+7avf9fwksBEFQalb5V9UTFTcBRAqppCnCBDyVr0UkRHAK43DaSs5O0iwMpWJFIAqkuH8dwan4h5AoA9xXGGiSe476DuCpS91OSnymPa66vw9+8IPlrX4qE6psqBDQ0Nv9lO/19j/FgPyrUuNGEK1ZzV9RHxUI2d80daOKpqqESiH3VfTsmw/HH7LyyU9+8pSqluuVgSJjv/vd70qxKqCSZk2oWKpUtcqS825khrB+5jOfKWOll5SqnvfYDh06VNbJqKZypZ9ZgbNS68pJKwzFx6m0mcJxbGjPnj0r+/btK0XSUmhs3nJr918sCcydIMgMABD/erWs0sSi97o+O0cg0vJOejXpjxw5UhyDcrMyDpNUP8OelXD+5z//WUrGAjAAneZ3EZN34Usrz7otOkEQcaiyp0KgzIvfRSND6XYApuKeyI5+AI6qj8vaFokgWCfsValszl1qfZoNWVbSGxlQejrNVgiyruLnq171qmnecqK+lIe2Pm0xqAQJ9GYVja91gAIdwKwpMa5Mt/+rXJumNDyCPc0tq3qcqlnK8CF8sq7KWguKUpUVyVMeW4CmGFhrTQJdCcydIAD7r33tayvf/OY3S5lijBa41AQBE7bnnfSYIjaXXXZZKf0LeJRTXWsLQVCqVjoQw77rrrsKAGpdgiAith0hCq4Zv1K0Fh8GbuEhLdLryisrk+v/ys8CSeNXvtfWhc9f8YpXnCytG4LA0YkqlUf2Xd9zXZ3WBrrGY7vFmDhrpaDryNa9yYzTRL6QoMytKyv9uZ+xkTVn4WxBzheImjk5zky5YXpSEtg9hxwy5/3YY4+VMsF0rM59TcCMgRN1b7JwrsH/ZXH81DJGTszXOGR8kBPydv8ULzJuJZyN2e/AjG6VGfYv4kkO+iJj98zYAW7mbwz05cd94rxDEPRDpq5nC7VejM8YyHooKqQv93AtOd9///0rIvM6g6B/1/khd9cppU2/PqP322+/vdirrAb9Rx/kavvM+MiUzbEfc6kLPZmz0uDsl7zIiTx9FzGQqgdqonP3jVyNx/xia5GFvtiPz4y1lp3PyM22oTkh5X43LrqJjN37P//5TwEsa4qeXNc9j8NmjEMZ7AcffLDo1fzdUx9kS7/u436yIPrJWMmGDoyzO1a+xRjIgozYm/uxfXMjK2tLH9YmGzDWUY2+duzYUdL97ls3voJtsxu6MA/ZOeNab2GuEAR6YffGKitKTmTRJQgZizGaI93QgetXm+Na/W+7fjkkMHeCYBFadBakdNuPfvSjUwhCLUqGbuFfeeWVxdgBa50GHVfsIQibNm1aweR/9rOflZTbrl27itPvEgTOktNEYOx1plnQtkPsg/qeNLx9d+OzR8+RcKb2mC16jp0DtBixeWk/YBKCwBkCSI6fbDhmKWiV/PRDVo8//nip7scxciLpi8NMNsX37Dta5OrMu/eJEydOEY97ACmRBAdFvhyifUnAZY/07rvvLmAhW+N+HKWUrrn0ZW84b9kC5MCYbr755gLoyFzt7C+44IKV48ePF+f5k5/8pACWz6XabR2F4IiS3f/o0aPFURkzsnPjjTeW7JMx/eY3vynydH6FI0bCgNKHP/zhcs3BgwfL3zlN+tIf0He/X/ziFyf1oi/ETNYIaJOhFoLAkdMrUssWpPgRDcBChrfddlvZKtu6despshbJ0SVbMQ+gDNzpMwSBLsnJ/EXGZEAnzie4JzD91Kc+VeYCCENStm/fXuwXGNx7772FZJobIADE7ks27guQzJntkZM+rT+2L8o1frLzN/ZtK4/9kqF+ZBjcj53IKMjmmRs50I0sny1BMtPIxLq2pg4cOFD07LvS384QSHsbEztznT7Iwd/ds0tsbQ/qiwysB+sFiTIf2S36sUZlF6wtcrvuuuvK1qWxHDt27ORYbR+StQBBe+qpp4ocbFXY0vzzn/9cSAdibE5I70MPPVT+5r7G/4lPfGLkoeJRBIEPc382zn+QA1DW77Zt28Z1Z73XhSCwM+v/kUceKWs627I1QUCIjcFa5Yvokp6QFTL76Ec/um7Csq7JtC/PRQJzJwj1rEcRBBEh4OWgAQVAuOiii1b27t07UVoxBAEAyF5wgoBv//79Bdy6BEFK16IVtQH/NICiDweSOCPZjER1ruPgpfaAJgfAKQKohx9+uDg4DgeYhCD4m8OXQIATspcpivnVr361cu65564899xzxTkb61VXXVWclM84dQsfkXBPQGCRO4BJTv5mi6bb3N/cHSIEdkABgP385z8vgAIMRBPGtXPnzgJonAynDUQBSLf57tVXX13S1AgCWUqtygzVZ0s4YQ6ZQwTuwO6+++4rIAUk9Q8k2QVH6v50I+MDODgw/ZK/rAZSgxgBU9sb5pZsh1Sr+bAhNkO+Dge6pz11QEm+Ik8gQ8/mALRqggA46ZoOnMEAaGSGtF577bWlf/roghowNz5kjV0Ys9/ZATAMQXBmgz6A5PXXX1/0y9YBOv0BOvNiUw4MAmfOHRkDzKJ/RAEpQo6sF4SBDvWDTFs/QFBUTA5IJKA3D3Mi21/+8pcrn/70p1c2b95cbINsyIROESG6sBVIb2xbxogeEQUArS9ydA/yNSZRvLm/4Q1vKHox/jvvvLPI0tMxCKMDrewagWAHru/K0pxkpciMXbJRUa6x+122ir3r1/YLEmCO5AqAEVDj0r+x0jl78zf/slfkG9knQ/Mkf9dZ4+yCPgUV7msMo86ljCII+kAQzzvvvEKIyIF90qn1sp4WgkDeSDhyJ6tE/+yvJgjs7Iknnijrz9ohCwEFn0d+dE+/rZ1ZElgagiBiZqQctBQgg+bga7Bei+pCEEQGQNhhRBGIaAMAcnj1GYS1EASRitQn1i3645A4Ao6HQ8fmRZ/uxVGbRwiCjAOSAtAQBA4Pgxctu55z5hiNFRAiKJyKKAZAfPvb3y7RFILAOXKWF154Ybmub69T5CQiA4TOZCAVolAn1QGwv2/ZsqUAFqfLWQDroccwgZ3vugZAICjGDCQ4VmNPQxA4ZPJHnIw5B89ErPTg7AmSISKkIyRL1KhPGYzdu3ef3J4yfgQJ4eNggR65cJCuJx9kC1AYP0fs6RWZEw6eXjTzF3Vz2ggM2dVnEGQYkBZEATh4tM7v7kUn9AVM6uY6AMjeDh8+XDIqSImDbCK7EARAal6iX+l9OkM6ALl5y7jQBXlaE/4vA6YhTl/84heLYydXMqAP8xT9kh85IpKAAJlAmpI1kY5nM/4OPKy3z33ucyen4cxDTRD0YwxsGnGhPzZDNvr3fUTCWMlE1sZaQCoRO4RKJsp1Dr+StzmHuLF/Y+vbxjIvY5ORIJds9SBR5mk8xoWoWIMZN/m6r7Faa2wLobUegWgIAluQWfP4KVLOrmQUECfrAdH40pe+VOyTTY3awx9FENgSMsTeNPJD1BEg97DmJm01QaBTpJIe2JL50l99BoE8EB92Y32wM9eyKzoaemJp0vG17y2+BJaGIIjQZBGQA4vHQuU8OQgAuNZWEwQRHyfAeVkM0oocyXoIgsXGOWkcJOfI4YjsNFEDwBShAOEQBCk9ZCIRyW9/+9tCVjxWJg2PZIhmRFo5ecwRiDYAoIgWYHCAIipgJHrqa3EGtgnMuQY14Ey2ACAR7TgEQZoSQRD1BVzJ+uKLLy4OWWSWsw0hCLWs6BWoOByH7CA4wIoc6rS96JMsbBE5iyIiRRCQqxAA0SzAlokAurIF9leBB1JEnjIa0vDSzggN/XPMQBUZkg0SNdYEgRzIxZaTf+lRSp/N+B6i0CVjABMZRGgAYBoHnTMIQAjoiWrNNXLiqBEQAA4MjbePICBlCALCIwrMGGxpsS9gCChlBoAWu0Pgui0yH0UQRPl+EGHZiRog2Q3d0CO5hCAgAckgsTfXsBN9GGP26cld9O+c0dAjpasRBPrMoVjbP+aMiImgAWAaGyB3YG/eIQgygXSpkSd7tMXm0crIFWmnPyRt1DbnKIKgf5/zQfqXjZHpsU7qdVHryFzYaRqf0vfERE0Q+AVEC8izIf/n32qCkO1bGQbzRF6yHcYW2FRrZ5YEloYg1GphyKIDAMKZiBTX2roEgdOVJQAkWDOAXQ9BqB+HAxxSdaINaWYNwHGCIijMfugpBtkITl9KEHBwmv7mbEA3SpUS5ZRFP8YPgB999NHBKETkI0JCKKRb66xATskjNsY5bgYhc9VX/VijaFkfZGAOWgiCrFC2KkSWnLHUNZkBU30+++yzL3vcFHADU1seUqMhCIBYlOz+HLd7IQj6si2DYErdAxBkAmAhbkCeAxXJkSuiM0QQkDeOE+C7FnnhpAERR1pvo9REQHQrgqu3eurHHAEukLTHDaC6h9SkeG0XDGUQEBy2gkggTjVJ8TtiJEqXNRC1Do11HIKAeBkvfZl3HeUjsEgaHYpUQxBq0CbfPNZrm0UTANC17TLgiBQDdaS521YjCADW3rsGdGUm6Kk7VrL2GVsijxAEawmIamw3BAGxTENcycrakaUaaqMIgsySswZIqfWCvAB/2yhDBIFNm1+a/yMr3dYlCEgc3chQ8EMCDGsAOXNf/s46sK2Xg7oCM/JvBGGtCHN6XL8UBIEz6zpLC5szFP3mcSKOkyMc5/RvlyDEQXEWsgmcE0ebxxzJqTZYAAAH3UlEQVSl9KVpEQgpSi1bHdLG9RkEAD4pQQDuUu72NhEh8wRo2TMXgQJE4wKwQ20cgkBetmrcE7jkcTn35dw5DFscshzjEATROXD2Pd+pm2jEPQALQM74OOQhgkDmAFR0JKtSHw4lF7KQmTDGSQmCyI8N+QFm9G7+oncg25dBQBCMmYwQMKQHiQIyiEjffjSdAn/AKXJnp0AuW1e2GNizH4SRDbKrvhaCIJWOBGWPPqArcyUK7Tt5LoUNmF3rPokKEeTo2FZCDiOKrtPqLQZzMWfp+fqxZLJD3K0VZEh2ZFyCkPsgEr4nkrXVZGttPQSBnMldpsK8I1djRUCl2v1rzhtJEPg19utMiTVhbSC2ABwx4n+ShZwEbvoIgjnL8MnmyIwhIwgCe7eeED52hXSwUVknvq0RhEk0sPzfmTtBsHgxbI0zECVzbg5d5dEtEYY0uchMxGaPmBEDDU6K8QJr3wNEUvKrkYQ+gmAM0ooWhcXrfiEIUvVSx36QBGk6jl4EIU07LYJgv1l2xJ48EHIv8xcZO9MgfYswACPjdLAJGZGeJBsgz8mMQxDM13wQDn2KHjgN6V9EiSOVgrXHPg5BsG1C9lK7nF7dOCGH3RASsgS+q2UQyFbqVfoXkANRUbSUL2BFCjhWZGRSgiA6EkkBSqQDuJOHNC69DhGE2IrIzfdFpsab7EjXNdjucOBPFoMuZW2QAFGoyDlnENgbQBRVAlb61beoTpRObnnJDTuxJaNf9sr52/+nB5kG7yuwhqwN9zAf60Ja2faIa2WczJnOkQfbNA4p2m6jS1sS7uuAYd6PkEOKxmyMsmD6o1upaf0iLrYCpbTHIQiASlRs3VvrZISIA21EYz0EwXeRFmMkV3ITrcsGuId/kREZo40kCNat7VGEmrxkPOgBULONoQzCuLDTRxB811zZNz/KV1ibbEBGyDkLenYolY+kS76uEYRxpX56XTd3ggAQk3KVZuck7PdySA4DAQeRo4WTtDrDtoCABkIBeJz+FhmJZqQUh/bdo74hgoC1SxdzFJwVhw083JPDlZYXZTpA5XeEJIfU8hTDejIIDphZ2J5k8K9xkgfiwgGTDwciNekcAoDLM/5AXcSHHIxLEPTve+bHQXIUZIi42V4QzYgkViMIQEwUhtAAJw6o2+gRieOgOZ5xCIJxIQP6tM0SggCIkChnAOh6UoLApuz3iyzZGx06zwFUReajCIL0K3AGbvSFYAy9WZI8kQmOlr3aGgEKMkXsPgSBs6Zf5yroPQSB3m07kIUmcs8bLaW33R/YIVRANTZENuaCQCJmbNX9gD9gpHP7/AiM+xkH2ZIFwsnW/R0RR07rQ4rmjaSSvWsQJUTEutA/wg+AxiEIImbX59Fc5ykApCDAWZr1EgTyMybkz1gRBGBI3jmbYawbSRAQOr4PsSRvtsMmkEHZONsM084gkCMf53FGthiCQNcyRDJgSB27k5nNAcxGEE4v4B93NnMnCAARs7dY6gaUOD17fxyWVC6nAfwtbo5Lqoyz1Rw+kiJ2YIqhr5ZBEIUCMySDg6ibpwL0AXxF1dkDRUIAFccCqLKvKcJyct49gaoUqfRtUrzSdvb+AIQIUHOPMHVPYliIovU8SmQflkyQE4Ql71EHNJydPj0mZx4cswOKrgMWZGfcwA/YjHq7nHuYl/sBDlGNexmTDEJe+CNqlVYGMFKy3UN4AEnkicgBhL5T3UgduQJk6XlRHWCqZcUpOXFtD1g0bnwyTOYLrIEy/YtaPb7pPsZi7BytcwH22f2NLZCxJxWkb0XT5ifdrx/X0i2Sai9WH/oWZbI5pEiqnF6RHzqrx2psoi5bDMDZfEYV2eL0ATuQ0jzV4IVgbIpsA4TGhiDQr/1vIIGs2maKvQN98ravrskoyTCJ9qSPpdPNAXnk7IFiHmk0L3NFGOiLrJzTkE2iezbGXv3oD7HzmSwZwGZbnn4xf+vXdXRLT+TpjAMyg/xo7uPHestpfXMkS/+3rQKoERBzRr7ZmfVFl30n+d3bemET5BcbR9IQFkRHtibN9QgNImLOiCe5ZKwBYrbAj8i2uL8msyJQoD9zSJPZkymTzRxVaCvveAD8tszqxm+xCQd66SFnT5B0oLyeuh9Iu+yLNYLg5dBriq7RJVkj7IgkW2M3SBJ58j2yGoIIOh960dq4YNOuWz4JzJ0gMFYOqa9xtnG4AKq+jgF3nbHP9bcaOXCv3Nei7ANQKdu+z5LKzWfGpaWPvjG4Jq+BDbDm/pmj/7smn2euPu8bX/oMsepeNzT+IRN1v8xl6BzHan2uJv+uzPuu78ol4+3Ot6v/fM/faxlHprWt1LKt5Z1r9TGOXvUjFQuIAYVswmqttuOMVT+1retjNf3mmsylK4+uPrv9x94yz679+Jy+Y9t56VLXjrtjzbqoCeSQ/ffJuLbBWpd9ch211oZ8QC3XvrEO2V8t565NjuNvRq2Nrk1EpuP0u5q99Y07/q8r/z6byrX03/eY9Gr3b58vtwTmThCWW3xt9GeyBDyJYgvGuQ9PWUzDoZ/J8mxzbxJoElgsCTSCsFj6aKNZIglIRTtMJ31ri6C1JoEmgSaB00kCjSCcTtpsc9lQCTjjYF/aEwl9r5ze0MG0mzUJNAk0CUxZAo0gTFmgrbsmgSaBJoEmgSaB00ECjSCcDlpsc2gSaBJoEmgSaBKYsgT+Dx1FA4ijkXzyAAAAAElFTkSuQmCC;" vertex="1" parent="1">
          <mxGeometry x="450" y="210" width="370.5" height="250.8" as="geometry" />
        </mxCell>
      </root>
    </mxGraphModel>
  </diagram>
</mxfile>
